<svg xmlns="http://www.w3.org/2000/svg" xmlns:xlink="http://www.w3.org/1999/xlink" xmlns:lucid="lucid" width="1510.16" height="1801.14"><g transform="translate(-182.44399307906627 72.66666666666663)" lucid:page-tab-id="6DI2vU30ZhCH"><path d="M0-500h2000v2500H0z" fill="#fff"/><path d="M572.9 115.08a5 5 0 0 1 5-5h150a5 5 0 0 1 5 5v90a5 5 0 0 1-5 5h-150a5 5 0 0 1-5-5z" stroke="#000" stroke-width="2" fill="#dfe3e8"/><use xlink:href="#a" transform="matrix(1,0,0,1,584.8888888888887,122.07825198335297) translate(18.049999999999997 31.025)"/><use xlink:href="#b" transform="matrix(1,0,0,1,584.8888888888887,122.07825198335297) translate(42.025 52.625)"/><path d="M752.7 161.08h-17.8v-2h17.8zm81.37 0H797.1v-2h36.97z" stroke="#979ea8" stroke-width=".05" fill="#979ea8"/><path d="M734.9 161.08h-1v-2h1z" fill="#979ea8"/><path d="M734.94 161.1h-1.08v-2.05h1.08zm-1.03-2v1.95h1v-1.95zM835.9 160.08l-18.68 11.04-1.02-1.72 15.76-9.32-15.76-9.32 1.02-1.72z" stroke="#979ea8" stroke-width=".05" fill="#979ea8"/><use xlink:href="#c" transform="matrix(1,0,0,1,752.6958125859285,149.41158531668634) translate(0 14.222222222222223)"/><path d="M832.44 309.33a6 6 0 0 1 6-6H990.9a6 6 0 0 1 6 6v88a6 6 0 0 1-6 6H838.43a6 6 0 0 1-6-6z" stroke="#5e5e5e" stroke-width="6" fill="#fff"/><use xlink:href="#d" transform="matrix(1,0,0,1,837.4444444444443,308.3333333333333) translate(25.709876543209873 48.71527777777778)"/><path d="M914.67 299.33V295m0-8.63v-8.65m0-8.64v-8.64m0-8.65v-8.65m0-8.64v-8.64m0-8.64v-4.32" stroke="#3a414a" stroke-width="2" fill="none"/><path d="M915.67 300.33h-2v-1.02h2z" stroke="#3a414a" stroke-width=".05" fill="#3a414a"/><path d="M924.85 230.26l-10.18-17.22-10.18 17.22" stroke="#3a414a" stroke-width="2" fill="none"/><path d="M568.44 309.33a6 6 0 0 1 6-6H726.9a6 6 0 0 1 6 6v88a6 6 0 0 1-6 6H574.43a6 6 0 0 1-6-6z" stroke="#5e5e5e" stroke-width="6" fill="#fff"/><use xlink:href="#e" transform="matrix(1,0,0,1,573.4444444444443,308.3333333333333) translate(23.85802469135802 48.71527777777778)"/><path d="M650.67 299.33V295m0-8.63v-8.65m0-8.64v-8.64m0-8.65v-8.65m0-8.64v-8.64m0-8.64v-4.32" stroke="#3a414a" stroke-width="2" fill="none"/><path d="M651.67 300.33h-2v-1.02h2z" stroke="#3a414a" stroke-width=".05" fill="#3a414a"/><path d="M660.85 230.26l-10.18-17.22-10.18 17.22" stroke="#3a414a" stroke-width="2" fill="none"/><path d="M309.72 578.67a6 6 0 0 1 6-6h152.45a6 6 0 0 1 6 6v88a6 6 0 0 1-6 6H315.72a6 6 0 0 1-6-6z" stroke="#5e5e5e" stroke-width="6" fill="#fff"/><use xlink:href="#f" transform="matrix(1,0,0,1,314.7222598360054,577.6666666666667) translate(68.24074074074073 48.71527777777778)"/><use xlink:href="#g" transform="matrix(1,0,0,1,314.7222598360054,577.6666666666667) translate(80.58641975308642 48.71527777777778)"/><path d="M661.54 578.67a6 6 0 0 1 6-6h152.44a6 6 0 0 1 6 6v88a6 6 0 0 1-6 6H667.54a6 6 0 0 1-6-6z" stroke="#5e5e5e" stroke-width="6" fill="#fff"/><use xlink:href="#f" transform="matrix(1,0,0,1,666.5390054916134,577.6666666666667) translate(68.24074074074073 48.71527777777778)"/><use xlink:href="#g" transform="matrix(1,0,0,1,666.5390054916134,577.6666666666667) translate(80.58641975308642 48.71527777777778)"/><path d="M1021.85 578.67a6 6 0 0 1 6-6h152.44a6 6 0 0 1 6 6v88a6 6 0 0 1-6 6h-152.45a6 6 0 0 1-6-6z" stroke="#5e5e5e" stroke-width="6" fill="#fff"/><use xlink:href="#f" transform="matrix(1,0,0,1,1026.8459339502,577.6666666666667) translate(68.24074074074073 48.71527777777778)"/><use xlink:href="#g" transform="matrix(1,0,0,1,1026.8459339502,577.6666666666667) translate(80.58641975308642 48.71527777777778)"/><path d="M1405.48 578.67a6 6 0 0 1 6-6h152.44a6 6 0 0 1 6 6v88a6 6 0 0 1-6 6h-152.44a6 6 0 0 1-6-6z" stroke="#5e5e5e" stroke-width="6" fill="#fff"/><use xlink:href="#f" transform="matrix(1,0,0,1,1410.4771684345149,577.6666666666667) translate(68.24074074074073 48.71527777777778)"/><use xlink:href="#g" transform="matrix(1,0,0,1,1410.4771684345149,577.6666666666667) translate(80.58641975308642 48.71527777777778)"/><path d="M470.67 998.67a6 6 0 0 1 6-6H629.1a6 6 0 0 1 6 6v88a6 6 0 0 1-6 6H476.68a6 6 0 0 1-6-6z" stroke="#5e5e5e" stroke-width="6" fill="#fff"/><use xlink:href="#f" transform="matrix(1,0,0,1,475.6666666666678,997.6666666666667) translate(68.24074074074073 48.71527777777778)"/><use xlink:href="#g" transform="matrix(1,0,0,1,475.6666666666678,997.6666666666667) translate(80.58641975308642 48.71527777777778)"/><path d="M832.44 998.67a6 6 0 0 1 6-6H990.9a6 6 0 0 1 6 6v88a6 6 0 0 1-6 6H838.43a6 6 0 0 1-6-6z" stroke="#5e5e5e" stroke-width="6" fill="#fff"/><use xlink:href="#f" transform="matrix(1,0,0,1,837.4444444444443,997.6666666666667) translate(68.24074074074073 48.71527777777778)"/><use xlink:href="#g" transform="matrix(1,0,0,1,837.4444444444443,997.6666666666667) translate(80.58641975308642 48.71527777777778)"/><path d="M1194.22 998.67a6 6 0 0 1 6-6h152.45a6 6 0 0 1 6 6v88a6 6 0 0 1-6 6h-152.45a6 6 0 0 1-6-6z" stroke="#5e5e5e" stroke-width="6" fill="#fff"/><use xlink:href="#f" transform="matrix(1,0,0,1,1199.2222222222208,997.6666666666667) translate(68.24074074074073 48.71527777777778)"/><use xlink:href="#g" transform="matrix(1,0,0,1,1199.2222222222208,997.6666666666667) translate(80.58641975308642 48.71527777777778)"/><path d="M1096.44 309.33a6 6 0 0 1 6-6h152.45a6 6 0 0 1 6 6v88a6 6 0 0 1-6 6h-152.46a6 6 0 0 1-6-6z" stroke="#5e5e5e" stroke-width="6" fill="#fff"/><use xlink:href="#h" transform="matrix(1,0,0,1,1101.4444444444443,308.3333333333333) translate(0 20.881944444444443)"/><use xlink:href="#i" transform="matrix(1,0,0,1,1101.4444444444443,308.3333333333333) translate(21.604938271604933 20.881944444444443)"/><use xlink:href="#j" transform="matrix(1,0,0,1,1101.4444444444443,308.3333333333333) translate(78.64197530864196 20.881944444444443)"/><use xlink:href="#k" transform="matrix(1,0,0,1,1101.4444444444443,308.3333333333333) translate(0 39.54861111111111)"/><use xlink:href="#l" transform="matrix(1,0,0,1,1101.4444444444443,308.3333333333333) translate(0 58.21527777777777)"/><use xlink:href="#m" transform="matrix(1,0,0,1,1101.4444444444443,308.3333333333333) translate(88.10493827160492 58.21527777777777)"/><use xlink:href="#n" transform="matrix(1,0,0,1,1101.4444444444443,308.3333333333333) translate(0 76.88194444444444)"/><path d="M1019.2 161.08h-20.3v-2h20.3zm76.98 0h-32.58v-2h32.58z" stroke="#979ea8" stroke-width=".05" fill="#979ea8"/><path d="M998.9 161.08h-1v-2h1z" fill="#979ea8"/><path d="M998.94 161.1h-1.08v-2.05h1.08zm-1.03-2v1.95h1v-1.95zM1098 160.08l-18.67 11.04-1.02-1.72 15.77-9.32-15.76-9.32 1.03-1.72z" stroke="#979ea8" stroke-width=".05" fill="#979ea8"/><use xlink:href="#c" transform="matrix(1,0,0,1,1019.2037035826669,149.4115853166863) translate(0 14.222222222222223)"/><path d="M1178.67 299.33v-4.66m0-9.32v-9.32m0-9.32v-9.32m0-9.32v-9.26m0-9.18v-9.18m0-9.2v-9.17m0-9.2v-4.58" stroke="#3a414a" stroke-width="2" fill="none"/><path d="M1179.67 300.33h-2v-1.02h2z" stroke="#3a414a" stroke-width=".05" fill="#3a414a"/><path d="M1188.85 205.65l-10.18-17.22-10.18 17.22" stroke="#3a414a" stroke-width="2" fill="none"/><path d="M1018.35 354.33h-17.46v-2h17.45zm73.28 0h-28.88v-2h28.88z" stroke="#979ea8" stroke-width=".05" fill="#979ea8"/><path d="M1000.9 354.33h-1v-2h1z" fill="#979ea8"/><path d="M1000.94 354.36h-1.08v-2.05h1.08zm-1.03-2v1.95h1v-1.94zM1093.44 353.33l-18.67 11.05-1-1.73 15.75-9.32-15.76-9.32 1-1.7z" stroke="#979ea8" stroke-width=".05" fill="#979ea8"/><use xlink:href="#c" transform="matrix(1,0,0,1,1018.354392816923,342.66666666666663) translate(0 14.222222222222223)"/><path d="M1099 139.7a5 5 0 0 1 5-5h149.33a5 5 0 0 1 5 5v40.77a5 5 0 0 1-5 5H1104a5 5 0 0 1-5-5z" stroke="#000" stroke-width="2" fill="#dfe3e8"/><use xlink:href="#o" transform="matrix(1,0,0,1,1111,146.68704194794105) translate(43.575 17.775)"/><path d="M202.44 818.6a6 6 0 0 1 6-6H360.9a6 6 0 0 1 6 6v44.12a6 6 0 0 1-6 6H208.43a6 6 0 0 1-6-6z" stroke="#5e5e5e" stroke-width="6" fill="#fff"/><use xlink:href="#p" transform="matrix(1,0,0,1,207.44399307906627,817.588364683314) translate(65.15432098765432 26.59027777777778)"/><path d="M567.67 818.6a6 6 0 0 1 6-6H726.1a6 6 0 0 1 6 6v44.12a6 6 0 0 1-6 6H573.68a6 6 0 0 1-6-6z" stroke="#5e5e5e" stroke-width="6" fill="#fff"/><use xlink:href="#q" transform="matrix(1,0,0,1,572.6662905288515,817.588364683314) translate(39.845679012345684 26.59027777777778)"/><path d="M932.9 818.6a6 6 0 0 1 6-6h152.43a6 6 0 0 1 6 6v88a6 6 0 0 1-6 6H938.9a6 6 0 0 1-6-6z" stroke="#5e5e5e" stroke-width="6" fill="#fff"/><use xlink:href="#r" transform="matrix(1,0,0,1,937.8885879786367,817.5883646833139) translate(33.08641975308642 48.71527777777778)"/><path d="M1298.1 818.6a6 6 0 0 1 6-6h152.46a6 6 0 0 1 6 6v88a6 6 0 0 1-6 6H1304.1a6 6 0 0 1-6-6z" stroke="#5e5e5e" stroke-width="6" fill="#fff"/><use xlink:href="#s" transform="matrix(1,0,0,1,1303.110885428422,817.5883646833139) translate(12.376543209876544 48.71527777777778)"/><path d="M375.33 1238.6a6 6 0 0 1 6-6h152.45a6 6 0 0 1 6 6v88a6 6 0 0 1-6 6H381.33a6 6 0 0 1-6-6z" stroke="#5e5e5e" stroke-width="6" fill="#fff"/><use xlink:href="#t" transform="matrix(1,0,0,1,380.3331828782072,1237.588364683314) translate(5.308641975308632 48.71527777777778)"/><path d="M740.55 1238.6a6 6 0 0 1 6-6H899a6 6 0 0 1 6 6v44.12a6 6 0 0 1-6 6H746.55a6 6 0 0 1-6-6z" stroke="#5e5e5e" stroke-width="6" fill="#fff"/><use xlink:href="#u" transform="matrix(1,0,0,1,745.5554803279922,1237.588364683314) translate(52.808641975308646 26.59027777777778)"/><path d="M1105.78 1238.6a6 6 0 0 1 6-6h152.44a6 6 0 0 1 6 6v88a6 6 0 0 1-6 6h-152.44a6 6 0 0 1-6-6z" stroke="#5e5e5e" stroke-width="6" fill="#fff"/><use xlink:href="#v" transform="matrix(1,0,0,1,1110.7777777777774,1237.588364683314) translate(50.339506172839506 48.71527777777778)"/><path d="M915.67 482.04l-.1 1.06-.24 1.06-.42 1.02-.57.94-.7.83-.85.72-.93.57-1.02.42-1.07.26-1.05.08H398l-.82.06-.76.2-.72.3-.67.4-.6.5-.5.6-.4.67-.3.73-.2.76-.06.82v73.8h-2v-73.88l.1-1.06.24-1.06.43-1.02.58-.94.7-.83.85-.72.94-.57 1-.42 1.08-.26 1.05-.08h510.73l.82-.06.76-.2.73-.3.67-.4.6-.5.5-.6.42-.67.3-.73.18-.76.07-.82v-46.2h2zm0-67.6h-2v-7.1h2z" stroke="#979ea8" stroke-width=".05" fill="#979ea8"/><path d="M915.67 407.36h-2v-1.03h2z" fill="#979ea8"/><path d="M915.7 407.38h-2.06v-1.07h2.05zm-2-1.02v.97h1.94v-.97zM403 551l-11.06 18.67L380.9 551l1.72-1.02 9.32 15.76 9.32-15.76z" stroke="#979ea8" stroke-width=".05" fill="#979ea8"/><path d="M915.67 482.04l-.1 1.06-.24 1.06-.42 1.02-.57.94-.7.83-.85.72-.93.57-1.02.42-1.07.26-1.05.08H749.8l-.82.06-.76.2-.73.3-.68.4-.6.5-.5.6-.4.67-.3.73-.2.76-.06.82v73.8h-2v-73.88l.08-1.06.26-1.06.42-1.02.58-.94.7-.83.85-.72.93-.57 1.02-.42 1.07-.26 1.05-.08h158.9l.83-.06.76-.2.73-.3.67-.4.6-.5.5-.6.42-.67.3-.73.18-.76.07-.82v-46.2h2zm0-67.6h-2v-7.1h2z" stroke="#979ea8" stroke-width=".05" fill="#979ea8"/><path d="M915.67 407.36h-2v-1.03h2z" fill="#979ea8"/><path d="M915.7 407.38h-2.06v-1.07h2.05zm-2-1.02v.97h1.94v-.97zM743.76 565.74l9.32-15.76 1.72 1.02-11.04 18.67L732.72 551l1.72-1.02z" stroke="#979ea8" stroke-width=".05" fill="#979ea8"/><use xlink:href="#w" transform="matrix(1,0,0,1,882.5925925925924,414.43277001655866) translate(0.005000000000002558 14.222222222222223)"/><use xlink:href="#x" transform="matrix(1,0,0,1,882.5925925925924,414.43277001655866) translate(33.58524691358026 14.222222222222223)"/><path d="M915.67 481.96l.06.82.18.76.3.73.42.67.5.6.6.5.68.4.72.3.76.2.83.06h177.4l1.06.08 1.07.26 1.02.42.93.57.84.72.7.83.6.94.4 1.02.26 1.06.1 1.06v73.9h-2v-73.82l-.08-.82-.18-.76-.3-.73-.4-.67-.52-.6-.6-.5-.66-.4-.73-.3-.75-.2-.82-.06h-177.4l-1.06-.08-1.07-.26-1-.42-.95-.57-.83-.72-.72-.83-.57-.94-.42-1.02-.25-1.06-.08-1.06v-46.27h2zm0-67.53h-2v-7.1h2z" stroke="#979ea8" stroke-width=".05" fill="#979ea8"/><path d="M915.67 407.36h-2v-1.03h2z" fill="#979ea8"/><path d="M915.7 407.38h-2.06v-1.07h2.05zm-2-1.02v.97h1.94v-.97zM1115.1 551l-11.03 18.67-11.04-18.67 1.72-1.02 9.32 15.76 9.32-15.76z" stroke="#979ea8" stroke-width=".05" fill="#979ea8"/><path d="M915.67 481.96l.06.82.18.76.3.73.42.67.5.6.6.5.68.4.72.3.76.2.83.06h561.04l1.06.08 1.06.26 1.02.42.94.57.83.72.7.83.6.94.4 1.02.27 1.06.08 1.06v73.9h-2v-73.82l-.07-.82-.18-.76-.3-.73-.4-.67-.52-.6-.6-.5-.66-.4-.73-.3-.76-.2-.82-.06H920.63l-1.06-.08-1.07-.26-1-.42-.95-.57-.83-.72-.72-.83-.57-.94-.42-1.02-.25-1.06-.08-1.06v-46.27h2zm0-67.53h-2v-7.1h2z" stroke="#979ea8" stroke-width=".05" fill="#979ea8"/><path d="M915.67 407.36h-2v-1.03h2z" fill="#979ea8"/><path d="M915.7 407.38h-2.06v-1.07h2.05zm-2-1.02v.97h1.94v-.97zM1487.7 565.74l9.32-15.76 1.72 1.02-11.04 18.67-11.04-18.67 1.72-1.02z" stroke="#979ea8" stroke-width=".05" fill="#979ea8"/><path d="M915.67 481.96l.06.82.18.76.3.73.42.67.5.6.6.5.68.4.72.3.76.2.83.06h762.94l1.06.08 1.06.26 1.02.42.94.57.83.72.72.83.57.94.42 1.02.26 1.06.08 1.06v445.68l-.08 1.06-.26 1.06-.42 1.02-.57.94-.72.83-.83.72-.94.57-1.02.42-1.06.26-1.06.08H558.94l-.83.06-.75.2-.73.3-.67.4-.6.5-.5.6-.4.67-.3.73-.2.76-.06.82v36.2h-2v-36.28l.07-1.06.26-1.06.42-1.02.57-.94.72-.83.83-.72.94-.57 1.02-.42 1.07-.26 1.05-.08h1124.7l.83-.07.76-.18.73-.3.67-.4.6-.52.5-.6.4-.66.3-.73.2-.76.06-.82V494.04l-.06-.82-.2-.76-.3-.73-.4-.67-.5-.6-.6-.5-.67-.4-.73-.3-.76-.2-.82-.06H920.63l-1.06-.08-1.07-.26-1-.42-.95-.57-.83-.72-.72-.83-.57-.94-.42-1.02-.25-1.06-.08-1.06v-46.27h2zm0-67.53h-2v-7.1h2z" stroke="#979ea8" stroke-width=".05" fill="#979ea8"/><path d="M915.67 407.36h-2v-1.03h2z" fill="#979ea8"/><path d="M915.7 407.38h-2.06v-1.07h2.05zm-2-1.02v.97h1.94v-.97zM563.93 971l-11.04 18.67L541.84 971l1.72-1.02 9.32 15.76 9.3-15.76z" stroke="#979ea8" stroke-width=".05" fill="#979ea8"/><path d="M915.67 481.96l.06.82.18.76.3.73.42.67.5.6.6.5.68.4.72.3.76.2.83.06h762.94l1.06.08 1.06.26 1.02.42.94.57.83.72.72.83.57.94.42 1.02.26 1.06.08 1.06v445.68l-.08 1.06-.26 1.06-.42 1.02-.57.94-.72.83-.83.72-.94.57-1.02.42-1.06.26-1.06.08H920.7l-.82.06-.76.2-.72.3-.67.4-.6.5-.5.6-.42.67-.3.73-.17.76-.06.82v36.2h-2v-36.28l.08-1.06.26-1.06.43-1.02.57-.94.72-.83.83-.72.94-.57 1-.42 1.07-.26 1.06-.08h762.93l.82-.07.76-.18.73-.3.67-.4.6-.52.5-.6.4-.66.3-.73.2-.76.06-.82V494.04l-.06-.82-.2-.76-.3-.73-.4-.67-.5-.6-.6-.5-.67-.4-.73-.3-.76-.2-.82-.06H920.63l-1.06-.08-1.07-.26-1-.42-.95-.57-.83-.72-.72-.83-.57-.94-.42-1.02-.25-1.06-.08-1.06v-46.27h2zm0-67.53h-2v-7.1h2z" stroke="#979ea8" stroke-width=".05" fill="#979ea8"/><path d="M915.67 407.36h-2v-1.03h2z" fill="#979ea8"/><path d="M915.7 407.38h-2.06v-1.07h2.05zm-2-1.02v.97h1.94v-.97zM914.67 985.74l9.32-15.76 1.7 1.02-11.03 18.67L903.63 971l1.72-1.02z" stroke="#979ea8" stroke-width=".05" fill="#979ea8"/><path d="M915.67 482.6l.06.8.18.77.3.72.42.66.5.6.6.5.68.42.72.3.76.18.83.06h762.94l1.06.1 1.06.24 1.02.43.94.56.83.7.72.85.57.95.42 1 .26 1.08.08 1.06v445.44l-.08 1.06-.26 1.06-.42 1.02-.57.94-.72.83-.83.72-.94.57-1.02.42-1.06.26-1.06.08h-401.16l-.82.07-.76.18-.72.3-.67.4-.6.52-.5.6-.4.66-.3.73-.2.76-.06.82v35.8h-2v-35.88l.1-1.06.24-1.06.42-1.02.58-.94.7-.83.85-.72.94-.57 1-.42 1.08-.26 1.06-.08h401.16l.82-.07.76-.18.73-.3.67-.4.6-.52.5-.6.4-.66.3-.73.2-.76.06-.82v-445.3l-.06-.82-.2-.76-.3-.72-.4-.67-.5-.6-.6-.52-.67-.4-.73-.3-.76-.2-.82-.06H920.63l-1.06-.08-1.07-.25-1-.44-.95-.57-.83-.72-.72-.84-.57-.94-.42-1-.25-1.08-.08-1.06v-46.9h2zm0-68.17h-2v-7.1h2z" stroke="#979ea8" stroke-width=".05" fill="#979ea8"/><path d="M915.67 407.36h-2v-1.03h2z" fill="#979ea8"/><path d="M915.7 407.38h-2.06v-1.07h2.05zm-2-1.02v.97h1.94v-.97zM1287.5 971l-11.06 18.67L1265.4 971l1.72-1.02 9.32 15.76 9.33-15.76zM286.58 808.8l-1.56-1.26 43.46-54.25h2.56zM392.1 677.06l-43.97 54.9h-2.56l44.97-56.15z" stroke="#979ea8" stroke-width=".05" fill="#979ea8"/><path d="M392.08 677.1l-1.56-1.26.14-.17h2.57z" fill="#979ea8"/><path d="M392.1 677.13l-1.6-1.28.15-.2h2.63zm-1.43-1.44l-.1.14 1.5 1.22 1.1-1.37zM289.7 788.4l-2.58 18.12 17.13-6.47.7 1.87-20.28 7.67 3.05-21.5z" stroke="#979ea8" stroke-width=".05" fill="#979ea8"/><use xlink:href="#y" transform="matrix(1,0,0,1,317.09547213654815,731.9608490083236) translate(0.004999999999999005 14.222222222222223)"/><path d="M651.75 808.67l-1.64-1.14 38.03-54.24h2.44zM744 677.07l-38.48 54.9h-2.44l39.3-56.06z" stroke="#979ea8" stroke-width=".05" fill="#979ea8"/><path d="M744 677.08l-1.65-1.15.2-.26h2.43z" fill="#979ea8"/><path d="M744 677.1l-1.68-1.16.2-.3h2.5zm-1.45-1.4l-.16.23 1.6 1.12.93-1.36zM653.56 788.12l-1.42 18.25 16.68-7.55.83 1.82-19.76 8.95 1.66-21.64z" stroke="#979ea8" stroke-width=".05" fill="#979ea8"/><use xlink:href="#y" transform="matrix(1,0,0,1,675.6149936892447,731.9608490083236) translate(0.004999999999999005 14.222222222222223)"/><path d="M1016.95 808.63l-1.67-1.1 36.02-54.24h2.4zm87.4-131.58l-36.47 54.9h-2.4l37.2-56z" stroke="#979ea8" stroke-width=".05" fill="#979ea8"/><path d="M1104.33 677.07l-1.66-1.1.2-.3h2.4z" fill="#979ea8"/><path d="M1104.34 677.1l-1.7-1.13.2-.33h2.48zm-1.46-1.4l-.18.26 1.63 1.08.9-1.35zM1018.24 788.03l-.96 18.3 16.5-8 .86 1.82-19.53 9.44 1.14-21.67z" stroke="#979ea8" stroke-width=".05" fill="#979ea8"/><use xlink:href="#y" transform="matrix(1,0,0,1,1038.3796066434306,731.9608490083235) translate(0.004999999999999005 14.222222222222223)"/><path d="M1382.25 808.8l-1.56-1.26 43.48-54.25h2.57zm105.6-131.73l-44 54.9h-2.56l45-56.15z" stroke="#979ea8" stroke-width=".05" fill="#979ea8"/><path d="M1487.84 677.1l-1.56-1.26.14-.17h2.56z" fill="#979ea8"/><path d="M1487.84 677.13l-1.6-1.28.17-.2h2.63zm-1.4-1.44l-.13.14 1.53 1.22 1.1-1.37zM1385.38 788.4l-2.6 18.12 17.14-6.46.7 1.87-20.3 7.66 3.08-21.5z" stroke="#979ea8" stroke-width=".05" fill="#979ea8"/><use xlink:href="#y" transform="matrix(1,0,0,1,1412.8063726104808,731.9608490083235) translate(0.004999999999999005 14.222222222222223)"/><path d="M459.42 1228.7l-1.63-1.17 38.6-54.24h2.46zm93.7-131.64l-39.08 54.9h-2.45l39.9-56.06z" stroke="#979ea8" stroke-width=".05" fill="#979ea8"/><path d="M553.1 1097.08l-1.62-1.16.18-.25h2.46z" fill="#979ea8"/><path d="M553.1 1097.12l-1.65-1.2.2-.28h2.5zm-1.43-1.43l-.16.22 1.6 1.13.97-1.36zM461.38 1208.14l-1.55 18.25 16.74-7.45.8 1.83-19.8 8.8 1.82-21.6z" stroke="#979ea8" stroke-width=".05" fill="#979ea8"/><use xlink:href="#y" transform="matrix(1,0,0,1,484.01227045144987,1151.9608490083235) translate(0.004999999999999005 14.222222222222223)"/><path d="M824.63 1228.65l-1.65-1.13 37.2-54.23h2.44zm90.3-131.6l-37.68 54.9h-2.42l38.45-56.03z" stroke="#979ea8" stroke-width=".05" fill="#979ea8"/><path d="M914.9 1097.08l-1.64-1.13.2-.28h2.42z" fill="#979ea8"/><path d="M914.92 1097.1l-1.7-1.15.22-.3h2.5zm-1.45-1.4l-.17.24 1.6 1.1.93-1.35zM826.23 1208.08l-1.23 18.27 16.6-7.72.85 1.8-19.67 9.16 1.46-21.65z" stroke="#979ea8" stroke-width=".05" fill="#979ea8"/><use xlink:href="#y" transform="matrix(1,0,0,1,847.5123080652305,1151.9608490083235) translate(0.004999999999999005 14.222222222222223)"/><path d="M1189.84 1228.62l-1.67-1.1 35.8-54.23h2.4zm86.9-131.57l-36.28 54.9h-2.4l37-56z" stroke="#979ea8" stroke-width=".05" fill="#979ea8"/><path d="M1276.7 1097.07l-1.65-1.1.2-.3h2.4z" fill="#979ea8"/><path d="M1276.72 1097.1l-1.7-1.12.2-.34h2.47zm-1.46-1.4l-.18.26 1.63 1.08.9-1.35zM1191.07 1208.02l-.9 18.3 16.46-8.02.87 1.8-19.5 9.5 1.08-21.68z" stroke="#979ea8" stroke-width=".05" fill="#979ea8"/><use xlink:href="#y" transform="matrix(1,0,0,1,1211.0123456790113,1151.9608490083235) translate(0.004999999999999005 14.222222222222223)"/><path d="M1288.4 1238.6a6 6 0 0 1 6-6h152.43a6 6 0 0 1 6 6v88a6 6 0 0 1-6 6H1294.4a6 6 0 0 1-6-6z" stroke="#5e5e5e" stroke-width="6" fill="#fff"/><use xlink:href="#z" transform="matrix(1,0,0,1,1293.38892650267,1237.588364683314) translate(23.85802469135802 48.71527777777778)"/><path d="M1370.38 1227.53l-1.63 1.15-38.94-55.4h2.45zm-53.13-75.57h-2.44l-38.6-54.9 1.64-1.15z" stroke="#979ea8" stroke-width=".05" fill="#979ea8"/><path d="M1277.85 1095.93l-1.63 1.15-1-1.4h2.45z" fill="#979ea8"/><path d="M1277.9 1095.94l-1.7 1.18-1.03-1.48h2.5zm-2.63-.25l.95 1.35 1.6-1.13-.17-.23zM1370.6 1229.6l-19.76-8.93.82-1.83 16.7 7.53-1.45-18.25 2-.15z" stroke="#979ea8" stroke-width=".05" fill="#979ea8"/><use xlink:href="#A" transform="matrix(1,0,0,1,1266.3179200414577,1151.9608490083235) translate(0.005000000000002558 14.222222222222223)"/><use xlink:href="#B" transform="matrix(1,0,0,1,1266.3179200414577,1151.9608490083235) translate(80.84450617283952 14.222222222222223)"/><path d="M923.17 1238.6a6 6 0 0 1 6-6h152.44a6 6 0 0 1 6 6v88a6 6 0 0 1-6 6H929.18a6 6 0 0 1-6-6z" stroke="#5e5e5e" stroke-width="6" fill="#fff"/><use xlink:href="#C" transform="matrix(1,0,0,1,928.1666290528844,1237.588364683314) translate(13.950617283950614 48.71527777777778)"/><path d="M1005.2 1227.52l-1.66 1.12-37.5-55.35h2.42zm-51.2-75.56h-2.4l-37.2-54.9 1.65-1.13z" stroke="#979ea8" stroke-width=".05" fill="#979ea8"/><path d="M916.07 1095.95l-1.66 1.13-.94-1.4h2.4z" fill="#979ea8"/><path d="M916.1 1095.96l-1.7 1.15-1-1.46h2.5zm-2.6-.27l.92 1.34 1.62-1.1-.18-.25zM1005.4 1229.6l-19.62-9.28.85-1.8 16.55 7.82-1.12-18.28 2-.12z" stroke="#979ea8" stroke-width=".05" fill="#979ea8"/><use xlink:href="#A" transform="matrix(1,0,0,1,902.8178824276766,1151.9608490083235) translate(0.005000000000002558 14.222222222222223)"/><use xlink:href="#B" transform="matrix(1,0,0,1,902.8178824276766,1151.9608490083235) translate(80.84450617283952 14.222222222222223)"/><path d="M743.1 1411.96a5 5 0 0 1 5-5h149.34a5 5 0 0 1 5 5v40.8a5 5 0 0 1-5 5H748.1a5 5 0 0 1-5-5z" stroke="#000" stroke-width="2" fill="#dfe3e8"/><use xlink:href="#o" transform="matrix(1,0,0,1,755.1110358835477,1418.9643639508417) translate(43.575 17.775)"/><path d="M822.78 1292.72v3.5m0 7.02v7.02m0 7.02v7m0 7.03v7.02m0 7.02v8.1m0 9.23v9.22m0 9.2v9.22m0 9.22v4.6" stroke="#3a414a" stroke-width="2" fill="none"/><path d="M823.78 1292.75h-2v-1.03h2z" stroke="#3a414a" stroke-width=".05" fill="#3a414a"/><path d="M812.6 1386.78l10.18 17.22 10.18-17.22" stroke="#3a414a" stroke-width="2" fill="none"/><path d="M377.56 1411.96a5 5 0 0 1 5-5h150a5 5 0 0 1 5 5v90a5 5 0 0 1-5 5h-150a5 5 0 0 1-5-5z" stroke="#000" stroke-width="2" fill="#dfe3e8"/><use xlink:href="#D" transform="matrix(1,0,0,1,389.5554051004294,1418.9643639508417) translate(29.549999999999997 40.525)"/><path d="M457.56 1336.6v4.26m0 8.55v8.56m0 8.54v8.45m0 8.34v8.33m0 8.34v4.17" stroke="#3a414a" stroke-width="2" fill="none"/><path d="M458.56 1336.6h-2v-1h2z" stroke="#3a414a" stroke-width=".05" fill="#3a414a"/><path d="M447.38 1386.78l10.18 17.22 10.18-17.22" stroke="#3a414a" stroke-width="2" fill="none"/><path d="M557.94 1238.6a6 6 0 0 1 6-6H716.4a6 6 0 0 1 6 6v88a6 6 0 0 1-6 6H563.93a6 6 0 0 1-6-6z" stroke="#5e5e5e" stroke-width="6" fill="#fff"/><use xlink:href="#E" transform="matrix(1,0,0,1,562.9443316030997,1237.588364683314) translate(36.75925925925926 48.71527777777778)"/><path d="M640 1227.52l-1.66 1.1-36.05-55.33h2.37zm-49.23-75.56h-2.4l-35.77-54.9 1.67-1.1z" stroke="#979ea8" stroke-width=".05" fill="#979ea8"/><path d="M554.3 1095.98l-1.7 1.1-.9-1.4h2.38z" fill="#979ea8"/><path d="M554.32 1096l-1.72 1.1-.95-1.46h2.45zm-2.58-.3l.88 1.34 1.63-1.07-.18-.28zM640.17 1229.6l-19.45-9.63.9-1.8 16.4 8.13-.8-18.3 2-.08z" stroke="#979ea8" stroke-width=".05" fill="#979ea8"/><use xlink:href="#A" transform="matrix(1,0,0,1,539.317844813896,1151.9608490083235) translate(0.005000000000002558 14.222222222222223)"/><use xlink:href="#B" transform="matrix(1,0,0,1,539.317844813896,1151.9608490083235) translate(80.84450617283952 14.222222222222223)"/><path d="M1480.72 818.6a6 6 0 0 1 6-6h152.45a6 6 0 0 1 6 6v88a6 6 0 0 1-6 6h-152.45a6 6 0 0 1-6-6z" stroke="#5e5e5e" stroke-width="6" fill="#fff"/><use xlink:href="#F" transform="matrix(1,0,0,1,1485.7220341533146,817.5883646833139) translate(25.092592592592588 48.71527777777778)"/><path d="M1562.92 807.5l-1.74 1-31-55.2h2.28zm-42.44-75.54h-2.3l-30.86-54.93 1.74-.98z" stroke="#979ea8" stroke-width=".05" fill="#979ea8"/><path d="M1489.07 676.07l-1.74.98-.78-1.38h2.3z" fill="#979ea8"/><path d="M1489.1 676.08l-1.78 1-.8-1.44h2.34zm-2.5-.4l.74 1.34 1.7-.96-.2-.37zM1563.42 787.9l-.48 21.7-18.77-10.88 1-1.73 15.85 9.16.4-18.3z" stroke="#979ea8" stroke-width=".05" fill="#979ea8"/><use xlink:href="#A" transform="matrix(1,0,0,1,1468.111946972927,731.9608490083235) translate(0.005000000000002558 14.222222222222223)"/><use xlink:href="#B" transform="matrix(1,0,0,1,1468.111946972927,731.9608490083235) translate(80.84450617283952 14.222222222222223)"/><path d="M1115.5 818.6a6 6 0 0 1 6-6h152.44a6 6 0 0 1 6 6v88a6 6 0 0 1-6 6H1121.5a6 6 0 0 1-6-6z" stroke="#5e5e5e" stroke-width="6" fill="#fff"/><use xlink:href="#G" transform="matrix(1,0,0,1,1120.4997367035294,817.5883646833139) translate(9.043209876543202 48.71527777777778)"/><path d="M1197.5 807.52l-1.64 1.15-38.73-55.38h2.44zm-52.84-75.56h-2.45l-38.38-54.9 1.64-1.15z" stroke="#979ea8" stroke-width=".05" fill="#979ea8"/><path d="M1105.47 675.93l-1.63 1.15-1-1.4h2.45z" fill="#979ea8"/><path d="M1105.5 675.94l-1.67 1.17-1.03-1.46h2.5zm-2.6-.25l.94 1.34 1.6-1.1-.16-.25zM1197.72 809.6l-19.75-8.98.83-1.83 16.67 7.57-1.4-18.26 2-.14z" stroke="#979ea8" stroke-width=".05" fill="#979ea8"/><use xlink:href="#A" transform="matrix(1,0,0,1,1093.685181005877,731.9608490083235) translate(0.005000000000002558 14.222222222222223)"/><use xlink:href="#B" transform="matrix(1,0,0,1,1093.685181005877,731.9608490083235) translate(80.84450617283952 14.222222222222223)"/><path d="M750.28 818.6a6 6 0 0 1 6-6h152.44a6 6 0 0 1 6 6v88a6 6 0 0 1-6 6H756.28a6 6 0 0 1-6-6z" stroke="#5e5e5e" stroke-width="6" fill="#fff"/><use xlink:href="#H" transform="matrix(1,0,0,1,755.2774392537442,817.5883646833139) translate(3.518518518518519 48.71527777777778)"/><path d="M832.33 807.52l-1.67 1.1L794 753.3h2.4zm-50.07-75.56h-2.4l-36.38-54.9 1.67-1.1z" stroke="#979ea8" stroke-width=".05" fill="#979ea8"/><path d="M745.16 675.97l-1.67 1.1-.94-1.4h2.4z" fill="#979ea8"/><path d="M745.2 675.98l-1.7 1.13-1-1.46H745zm-2.6-.3l.9 1.36 1.63-1.08-.18-.27zM832.5 809.6l-19.52-9.48.88-1.8 16.47 8-.94-18.3 2-.1z" stroke="#979ea8" stroke-width=".05" fill="#979ea8"/><use xlink:href="#A" transform="matrix(1,0,0,1,730.920568051691,731.9608490083235) translate(0.005000000000002558 14.222222222222223)"/><use xlink:href="#B" transform="matrix(1,0,0,1,730.920568051691,731.9608490083235) translate(80.84450617283952 14.222222222222223)"/><path d="M385.06 818.6a6 6 0 0 1 6-6H543.5a6 6 0 0 1 6 6v88a6 6 0 0 1-6 6H391.06a6 6 0 0 1-6-6z" stroke="#5e5e5e" stroke-width="6" fill="#fff"/><use xlink:href="#I" transform="matrix(1,0,0,1,390.055141803959,817.5883646833139) translate(62.68518518518518 37.46527777777778)"/><use xlink:href="#J" transform="matrix(1,0,0,1,390.055141803959,817.5883646833139) translate(8.487654320987659 64.13194444444446)"/><path d="M467.26 807.5l-1.75 1-31.04-55.2h2.3zm-42.5-75.54h-2.3l-30.9-54.93 1.75-.98z" stroke="#979ea8" stroke-width=".05" fill="#979ea8"/><path d="M393.32 676.07l-1.74.98-.78-1.38h2.3z" fill="#979ea8"/><path d="M393.35 676.08l-1.78 1-.82-1.44h2.36zm-2.5-.4l.73 1.34 1.7-.96-.2-.37zM467.75 787.9l-.47 21.7-18.78-10.87 1-1.73 15.85 9.16.4-18.3z" stroke="#979ea8" stroke-width=".05" fill="#979ea8"/><use xlink:href="#A" transform="matrix(1,0,0,1,372.4010464989945,731.9608490083235) translate(0.005000000000002558 14.222222222222223)"/><use xlink:href="#B" transform="matrix(1,0,0,1,372.4010464989945,731.9608490083235) translate(80.84450617283952 14.222222222222223)"/><path d="M751.8 354.33h-14.9v-2h14.9zm75.83 0H796.2v-2h31.43z" stroke="#979ea8" stroke-width=".05" fill="#979ea8"/><path d="M736.9 354.33h-1v-2h1z" fill="#979ea8"/><path d="M736.94 354.36h-1.08v-2.05h1.08zm-1.03-2v1.95h1v-1.94zM829.44 353.33l-18.67 11.05-1-1.73 15.75-9.32-15.76-9.32 1-1.7z" stroke="#979ea8" stroke-width=".05" fill="#979ea8"/><use xlink:href="#c" transform="matrix(1,0,0,1,751.8024691358024,342.66666666666663) translate(0 14.222222222222223)"/><path d="M1021.85 1603.6a6 6 0 0 1 6-6h152.44a6 6 0 0 1 6 6v44.15a6 6 0 0 1-6 6h-152.45a6 6 0 0 1-6-6z" stroke="#5e5e5e" stroke-width="6" fill="#fff"/><use xlink:href="#K" transform="matrix(1,0,0,1,1026.8459339502,1602.6127285037235) translate(34.38271604938271 26.59027777777778)"/><path d="M1017.85 1628.36h-3.94m-7.87 0h-7.88m-7.88 0h-7.87m-7.88 0h-7.88m-7.88 0h-7.88m-7.87 0h-7.87m-7.88 0h-7.88m-7.88 0h-7.88m-7.88 0h-7.88m-7.88 0h-7.87m-7.87 0h-7.88m-7.88 0h-7.88m-7.88 0h-3.94l-.94-.08-.92-.22-.87-.36-.8-.5-.72-.6-.6-.72-.5-.8-.36-.87-.22-.9-.07-.94v-4.05m0-8.08v-8.1m0-8.08v-8.1m0-8.08v-8.1m0-8.08v-8.1m0-8.07v-8.1m0-8.07v-8.1m0-8.08v-8.1m0-8.08v-8.1m0-8.08v-8.1m0-8.1v-4.03" stroke="#3a414a" stroke-width="2" fill="none"/><path d="M1018.85 1629.36h-1.03v-2h1.03z" stroke="#3a414a" stroke-width=".05" fill="#3a414a"/><path d="M832.96 1477.93l-10.18-17.22-10.18 17.23" stroke="#3a414a" stroke-width="2" fill="none"/><path d="M1189 1402.15h-2v-26.18h2zm0-47.5h-2v-18.06h2z" stroke="#979ea8" stroke-width=".05" fill="#979ea8"/><path d="M1189 1336.6h-2v-1h2z" fill="#979ea8"/><path d="M1189.03 1336.64h-2.06v-1.08h2.06zm-2-1.03v1h1.94v-1zM1199.04 1385.3l-11.04 18.66-11.04-18.67 1.72-1.02 9.32 15.76 9.32-15.76z" stroke="#979ea8" stroke-width=".05" fill="#979ea8"/><use xlink:href="#L" transform="matrix(1,0,0,1,1155.9259259259254,1354.640675888369) translate(0 14.222222222222223)"/><use xlink:href="#M" transform="matrix(1,0,0,1,1155.9259259259254,1354.640675888369) translate(33.580246913580254 14.222222222222223)"/><path d="M836.9 115.08a5 5 0 0 1 5-5h150a5 5 0 0 1 5 5v90a5 5 0 0 1-5 5h-150a5 5 0 0 1-5-5z" stroke="#000" stroke-width="2" fill="#dfe3e8"/><use xlink:href="#N" transform="matrix(1,0,0,1,848.8888888888888,122.07825198335297) translate(35.025 40.525)"/><path d="M836.9-47.67a5 5 0 0 1 5-5h150a5 5 0 0 1 5 5v90a5 5 0 0 1-5 5h-150a5 5 0 0 1-5-5z" stroke="#000" stroke-width="2" fill="#fff"/><use xlink:href="#O" transform="matrix(1,0,0,1,848.8888888888888,-40.66666666666663) translate(24.049999999999997 31.025)"/><use xlink:href="#P" transform="matrix(1,0,0,1,848.8888888888888,-40.66666666666663) translate(44.05 52.625)"/><path d="M916.9 108.08V66.83" stroke="#3a414a" stroke-width="2" fill="none"/><path d="M917.9 109.08h-2v-1.03h2z" stroke="#3a414a" stroke-width=".05" fill="#3a414a"/><path d="M916.9 51.57l4.62 14.26h-9.27z" stroke="#3a414a" stroke-width="2" fill="#fff"/><path d="M1105.6 1412.96a6 6 0 0 1 6-6h152.46a6 6 0 0 1 6 6v88a6 6 0 0 1-6 6H1111.6a6 6 0 0 1-6-6z" stroke="#5e5e5e" stroke-width="6" fill="#fff"/><use xlink:href="#f" transform="matrix(1,0,0,1,1110.6111111111109,1411.9643639508417) translate(68.24074074074073 48.71527777777778)"/><use xlink:href="#g" transform="matrix(1,0,0,1,1110.6111111111109,1411.9643639508417) translate(80.58641975308642 48.71527777777778)"/><path d="M1105.9 1594.03l-1.43-1.4 29.4-29.68h2.83zm81.94-82.65l-30 30.24h-2.8l31.38-31.65z" stroke="#979ea8" stroke-width=".05" fill="#979ea8"/><path d="M1187.82 1511.4l-1.42-1.4 2.84-.04z" fill="#979ea8"/><path d="M1187.82 1511.43l-1.48-1.47 2.96-.02zm-1.36-1.42l1.36 1.36 1.36-1.37zM1111.15 1574.07l-4.48 17.75 17.7-4.63.52 1.93-21 5.48 5.3-21.02z" stroke="#979ea8" stroke-width=".05" fill="#979ea8"/><g><use xlink:href="#y" transform="matrix(1,0,0,1,1124.6575348763345,1541.6218796152805) translate(0.004999999999999005 14.222222222222223)"/></g><path d="M557.94 1411.96a5 5 0 0 1 5-5h150a5 5 0 0 1 5 5v90a5 5 0 0 1-5 5h-150a5 5 0 0 1-5-5z" stroke="#000" stroke-width="2" fill="#dfe3e8"/><g><use xlink:href="#Q" transform="matrix(1,0,0,1,569.9443316030997,1418.9643639508417) translate(34.525 40.525)"/></g><path d="M635.72 1336.6v4.2m0 8.46v8.44m0 8.44v8.45m0 8.43v8.45m0 8.44v4.23" stroke="#3a414a" stroke-width="2" fill="none"/><path d="M636.72 1336.6h-2v-1h2z" stroke="#3a414a" stroke-width=".05" fill="#3a414a"/><path d="M625.54 1386.8l10.18 17.2 10.18-17.2" stroke="#3a414a" stroke-width="2" fill="none"/><path d="M1210.3 1603.6a6 6 0 0 1 6-6h152.44a6 6 0 0 1 6 6v88a6 6 0 0 1-6 6H1216.3a6 6 0 0 1-6-6z" stroke="#5e5e5e" stroke-width="6" fill="#fff"/><g><use xlink:href="#I" transform="matrix(1,0,0,1,1215.296241965278,1602.6127285037235) translate(62.68518518518518 37.46527777777778)"/><use xlink:href="#R" transform="matrix(1,0,0,1,1215.296241965278,1602.6127285037235) translate(9.104938271604937 64.13194444444446)"/></g><path d="M1291.73 1592.7l-1.25 1.55-38.7-31.3h3.18zm-63.15-51.08h-3.2l-37.4-30.25 1.26-1.55z" stroke="#979ea8" stroke-width=".05" fill="#979ea8"/><path d="M1188 1511.4l-1.76-1.44h2.9z" fill="#979ea8"/><path d="M1188 1511.42l-1.83-1.48h3.03zm-1.7-1.43l1.7 1.35 1.1-1.36zM1292.52 1594.6l-21.46-3.14.3-1.98 18.1 2.66-6.4-17.15 1.88-.7z" stroke="#979ea8" stroke-width=".05" fill="#979ea8"/><g><use xlink:href="#A" transform="matrix(1,0,0,1,1182.9660222172067,1541.6218795606158) translate(0.005000000000002558 14.222222222222223)"/><use xlink:href="#B" transform="matrix(1,0,0,1,1182.9660222172067,1541.6218795606158) translate(80.84450617283952 14.222222222222223)"/></g><path d="M1300.33 1411.96a5 5 0 0 1 5-5h150a5 5 0 0 1 5 5v90a5 5 0 0 1-5 5h-150a5 5 0 0 1-5-5z" stroke="#000" stroke-width="2" fill="#fff"/><g><use xlink:href="#O" transform="matrix(1,0,0,1,1312.3331076506443,1418.9643639508417) translate(24.049999999999997 31.025)"/><use xlink:href="#P" transform="matrix(1,0,0,1,1312.3331076506443,1418.9643639508417) translate(44.05 52.625)"/></g><path d="M1234.17 1336.13l3.35 2.15m6.68 4.3l6.7 4.3m6.67 4.3l6.7 4.3m6.67 4.32l6.7 4.3m6.67 4.3l6.7 4.3m6.68 4.3l6.7 4.3m6.67 4.32l6.7 4.3m6.67 4.3l6.7 4.3m6.68 4.3l3.34 2.16" stroke="#3a414a" stroke-width="2" fill="none"/><path d="M1233.65 1336.98l-2.16-1.4h3.05z" stroke="#3a414a" stroke-width=".05" fill="#3a414a"/><path d="M1321.03 1404.14l20 .76-8.98-17.88" stroke="#3a414a" stroke-width="2" fill="none"/><path d="M1293.52 1719.5l-.1 1.07-.24 1.07-.42 1-.58.95-.7.82-.85.72-.93.57-1.02.43-1.07.26-1.04.07h-4.06v-2h3.98l.82-.06.76-.18.73-.3.66-.4.6-.52.5-.6.4-.66.3-.72.2-.77.06-.82V1715h2zm-19.05 6.97h-8.03v-2h8.03zm-16.06 0h-8.03v-2h8.04zm-16.06 0h-8.03v-2h8.04zm-16.06 0h-8.04v-2h8.04zm-16.07 0h-8.02v-2h8.03zm-16.05 0h-8.03v-2h8.03zm-16.07 0h-8.03v-2h8.03zm-16.06 0H1154v-2h8.02zm-16.07 0h-8.03v-2h8.03zm-16.06 0h-8.04v-2h8.03zm-16.07 0h-8.04v-2h8.03zm-16.07 0h-8.03v-2h8.03zm-16.06 0h-8.03v-2h8.03zm-16.07 0h-8.03v-2h8.03zm-16.06 0h-8.03v-2h8.03zm-16.06 0h-8.03v-2h8.04zm-16.06 0h-8.03v-2h8.04zm-16.06 0h-8.04v-2h8.04zm-16.07 0h-8.02v-2h8.03zm-16.05 0h-8.03v-2h8.03zm-16.07 0h-8.03v-2h8.03zm-16.06 0h-8.03v-2h8.02zm-16.07 0h-8.03v-2h8.03zm-16.06 0h-8.04v-2H905zm-16.07 0h-8.04v-2h8.03zm-16.07 0h-8.03v-2h8.03zm-16.06 0h-8.03v-2h8.03zm-16.07 0h-8.03v-2h8.03zm-16.06 0h-8.03v-2h8.03zm-16.07 0h-8.03v-2h8.03zm-16.06 0h-8.03v-2h8.04zm-16.06 0h-8.04v-2h8.03zm-16.07 0h-8.02v-2h8.03zm-16.05 0h-8.04v-2h8.05zm-16.07 0h-8.03v-2h8.03zm-16.06 0h-8.03v-2h8.02zm-16.07 0h-8.03v-2h8.03zm-16.06 0h-8.04v-2h8.03zm-16.08 0H656v-2H664zm-25.08-7.04l.07.82.2.77.3.72.4.67.5.6.6.5.68.42.72.3.76.2.82.05h3.98v2h-4.06l-1.05-.08-1.07-.27-1-.42-.95-.56-.84-.72-.72-.83-.57-.95-.42-1.02-.25-1.06-.1-1.06v-4.06h2zm0-12.06h-2v-8.06h2zm654.58-1.3h-2v-4.46h2zm-654.58-14.83h-2v-8.06h2zm0-16.13h-2v-8.05h2zm0-16.12h-2v-8.06h2zm0-16.13h-2v-8.06h2zm0-16.13h-2v-8.06h2zm0-16.13h-2v-8.07h2zm0-16.14h-2v-8.06h2zm0-16.13h-2v-8.06h2zm0-16.13h-2v-8.06h2zm0-16.13h-2v-8.06h2zm0-16.13h-2v-8.06h2zm0-16.13l-2 .02v-4.04h2z" stroke="#3a414a" stroke-width=".05" fill="#3a414a"/><path d="M1293.52 1701.64h-2v-1.03h2z" fill="#3a414a"/><path d="M1293.54 1701.66h-2.05v-1.07h2.04zm-2-1.02v.97h1.95v-.96zM649 1526.63l-1.74 1.02-9.32-15.76-9.32 15.75-1.72-1.02 11.04-18.67z" stroke="#3a414a" stroke-width=".05" fill="#3a414a"/><defs><path d="M205 0l-28-72H64L36 0H1l101-248h38L239 0h-34zm-38-99l-47-123c-12 45-31 82-46 123h93" id="S"/><path d="M85-194c31 0 48 13 60 33l-1-100h32l1 261h-30c-2-10 0-23-3-31C134-8 116 4 85 4 32 4 16-35 15-94c0-66 23-100 70-100zm9 24c-40 0-46 34-46 75 0 40 6 74 45 74 42 0 51-32 51-76 0-42-9-74-50-73" id="T"/><path d="M114-163C36-179 61-72 57 0H25l-1-190h30c1 12-1 29 2 39 6-27 23-49 58-41v29" id="U"/><path d="M100-194c63 0 86 42 84 106H49c0 40 14 67 53 68 26 1 43-12 49-29l28 8c-11 28-37 45-77 45C44 4 14-33 15-96c1-61 26-98 85-98zm52 81c6-60-76-77-97-28-3 7-6 17-6 28h103" id="V"/><path d="M135-143c-3-34-86-38-87 0 15 53 115 12 119 90S17 21 10-45l28-5c4 36 97 45 98 0-10-56-113-15-118-90-4-57 82-63 122-42 12 7 21 19 24 35" id="W"/><path d="M141-36C126-15 110 5 73 4 37 3 15-17 15-53c-1-64 63-63 125-63 3-35-9-54-41-54-24 1-41 7-42 31l-33-3c5-37 33-52 76-52 45 0 72 20 72 64v82c-1 20 7 32 28 27v20c-31 9-61-2-59-35zM48-53c0 20 12 33 32 33 41-3 63-29 60-74-43 2-92-5-92 41" id="X"/><path d="M115-194c53 0 69 39 70 98 0 66-23 100-70 100C84 3 66-7 56-30L54 0H23l1-261h32v101c10-23 28-34 59-34zm-8 174c40 0 45-34 45-75 0-40-5-75-45-74-42 0-51 32-51 76 0 43 10 73 51 73" id="Y"/><path d="M24 0v-261h32V0H24" id="Z"/><g id="a"><use transform="matrix(0.05,0,0,0.05,0,0)" xlink:href="#S"/><use transform="matrix(0.05,0,0,0.05,12,0)" xlink:href="#T"/><use transform="matrix(0.05,0,0,0.05,22,0)" xlink:href="#T"/><use transform="matrix(0.05,0,0,0.05,32,0)" xlink:href="#U"/><use transform="matrix(0.05,0,0,0.05,37.95,0)" xlink:href="#V"/><use transform="matrix(0.05,0,0,0.05,47.95,0)" xlink:href="#W"/><use transform="matrix(0.05,0,0,0.05,56.95,0)" xlink:href="#W"/><use transform="matrix(0.05,0,0,0.05,65.95,0)" xlink:href="#X"/><use transform="matrix(0.05,0,0,0.05,75.95,0)" xlink:href="#Y"/><use transform="matrix(0.05,0,0,0.05,85.95,0)" xlink:href="#Z"/><use transform="matrix(0.05,0,0,0.05,89.9,0)" xlink:href="#V"/></g><path d="M140-251c81 0 123 46 123 126C263-46 219 4 140 4 59 4 17-45 17-125s42-126 123-126zm0 227c63 0 89-41 89-101s-29-99-89-99c-61 0-89 39-89 99S79-25 140-24" id="aa"/><path d="M24-231v-30h32v30H24zM-9 49c24 4 33-6 33-30v-209h32V24c2 40-23 58-65 49V49" id="ab"/><path d="M96-169c-40 0-48 33-48 73s9 75 48 75c24 0 41-14 43-38l32 2c-6 37-31 61-74 61-59 0-76-41-82-99-10-93 101-131 147-64 4 7 5 14 7 22l-32 3c-4-21-16-35-41-35" id="ac"/><path d="M59-47c-2 24 18 29 38 22v24C64 9 27 4 27-40v-127H5v-23h24l9-43h21v43h35v23H59v120" id="ad"/><g id="b"><use transform="matrix(0.05,0,0,0.05,0,0)" xlink:href="#aa"/><use transform="matrix(0.05,0,0,0.05,14,0)" xlink:href="#Y"/><use transform="matrix(0.05,0,0,0.05,24,0)" xlink:href="#ab"/><use transform="matrix(0.05,0,0,0.05,27.950000000000003,0)" xlink:href="#V"/><use transform="matrix(0.05,0,0,0.05,37.95,0)" xlink:href="#ac"/><use transform="matrix(0.05,0,0,0.05,46.95,0)" xlink:href="#ad"/></g><path fill="#6f7681" d="M117-194c89-4 53 116 60 194h-32v-121c0-31-8-49-39-48C34-167 62-67 57 0H25l-1-190h30c1 10-1 24 2 32 11-22 29-35 61-36" id="ae"/><path fill="#6f7681" d="M141-36C126-15 110 5 73 4 37 3 15-17 15-53c-1-64 63-63 125-63 3-35-9-54-41-54-24 1-41 7-42 31l-33-3c5-37 33-52 76-52 45 0 72 20 72 64v82c-1 20 7 32 28 27v20c-31 9-61-2-59-35zM48-53c0 20 12 33 32 33 41-3 63-29 60-74-43 2-92-5-92 41" id="af"/><path fill="#6f7681" d="M210-169c-67 3-38 105-44 169h-31v-121c0-29-5-50-35-48C34-165 62-65 56 0H25l-1-190h30c1 10-1 24 2 32 10-44 99-50 107 0 11-21 27-35 58-36 85-2 47 119 55 194h-31v-121c0-29-5-49-35-48" id="ag"/><path fill="#6f7681" d="M100-194c63 0 86 42 84 106H49c0 40 14 67 53 68 26 1 43-12 49-29l28 8c-11 28-37 45-77 45C44 4 14-33 15-96c1-61 26-98 85-98zm52 81c6-60-76-77-97-28-3 7-6 17-6 28h103" id="ah"/><g id="c"><use transform="matrix(0.04938271604938272,0,0,0.04938271604938272,0,0)" xlink:href="#ae"/><use transform="matrix(0.04938271604938272,0,0,0.04938271604938272,9.876543209876544,0)" xlink:href="#af"/><use transform="matrix(0.04938271604938272,0,0,0.04938271604938272,19.75308641975309,0)" xlink:href="#ag"/><use transform="matrix(0.04938271604938272,0,0,0.04938271604938272,34.51851851851852,0)" xlink:href="#ah"/></g><path fill="#333" d="M100-194c63 0 86 42 84 106H49c0 40 14 67 53 68 26 1 43-12 49-29l28 8c-11 28-37 45-77 45C44 4 14-33 15-96c1-61 26-98 85-98zm52 81c6-60-76-77-97-28-3 7-6 17-6 28h103" id="ai"/><path fill="#333" d="M141 0L90-78 38 0H4l68-98-65-92h35l48 74 47-74h35l-64 92 68 98h-35" id="aj"/><path fill="#333" d="M33-154v-36h34v36H33zM33 0v-36h34V0H33" id="ak"/><path fill="#333" d="M117-194c89-4 53 116 60 194h-32v-121c0-31-8-49-39-48C34-167 62-67 57 0H25l-1-190h30c1 10-1 24 2 32 11-22 29-35 61-36" id="al"/><path fill="#333" d="M141-36C126-15 110 5 73 4 37 3 15-17 15-53c-1-64 63-63 125-63 3-35-9-54-41-54-24 1-41 7-42 31l-33-3c5-37 33-52 76-52 45 0 72 20 72 64v82c-1 20 7 32 28 27v20c-31 9-61-2-59-35zM48-53c0 20 12 33 32 33 41-3 63-29 60-74-43 2-92-5-92 41" id="am"/><path fill="#333" d="M210-169c-67 3-38 105-44 169h-31v-121c0-29-5-50-35-48C34-165 62-65 56 0H25l-1-190h30c1 10-1 24 2 32 10-44 99-50 107 0 11-21 27-35 58-36 85-2 47 119 55 194h-31v-121c0-29-5-49-35-48" id="an"/><path fill="#333" d="M16-82v-28h88v28H16" id="ao"/><path fill="#333" d="M179-190L93 31C79 59 56 82 12 73V49c39 6 53-20 64-50L1-190h34L92-34l54-156h33" id="ap"/><g id="d"><use transform="matrix(0.06172839506172839,0,0,0.06172839506172839,0,0)" xlink:href="#ai"/><use transform="matrix(0.06172839506172839,0,0,0.06172839506172839,12.345679012345679,0)" xlink:href="#aj"/><use transform="matrix(0.06172839506172839,0,0,0.06172839506172839,23.45679012345679,0)" xlink:href="#ak"/><use transform="matrix(0.06172839506172839,0,0,0.06172839506172839,29.62962962962963,0)" xlink:href="#al"/><use transform="matrix(0.06172839506172839,0,0,0.06172839506172839,41.97530864197531,0)" xlink:href="#am"/><use transform="matrix(0.06172839506172839,0,0,0.06172839506172839,54.32098765432099,0)" xlink:href="#an"/><use transform="matrix(0.06172839506172839,0,0,0.06172839506172839,72.77777777777777,0)" xlink:href="#ai"/><use transform="matrix(0.06172839506172839,0,0,0.06172839506172839,85.12345679012346,0)" xlink:href="#ao"/><use transform="matrix(0.06172839506172839,0,0,0.06172839506172839,92.46913580246914,0)" xlink:href="#ap"/></g><path fill="#333" d="M100-194c62-1 85 37 85 99 1 63-27 99-86 99S16-35 15-95c0-66 28-99 85-99zM99-20c44 1 53-31 53-75 0-43-8-75-51-75s-53 32-53 75 10 74 51 75" id="aq"/><path fill="#333" d="M115-194c53 0 69 39 70 98 0 66-23 100-70 100C84 3 66-7 56-30L54 0H23l1-261h32v101c10-23 28-34 59-34zm-8 174c40 0 45-34 45-75 0-40-5-75-45-74-42 0-51 32-51 76 0 43 10 73 51 73" id="ar"/><path fill="#333" d="M24-231v-30h32v30H24zM-9 49c24 4 33-6 33-30v-209h32V24c2 40-23 58-65 49V49" id="as"/><path fill="#333" d="M96-169c-40 0-48 33-48 73s9 75 48 75c24 0 41-14 43-38l32 2c-6 37-31 61-74 61-59 0-76-41-82-99-10-93 101-131 147-64 4 7 5 14 7 22l-32 3c-4-21-16-35-41-35" id="at"/><path fill="#333" d="M59-47c-2 24 18 29 38 22v24C64 9 27 4 27-40v-127H5v-23h24l9-43h21v43h35v23H59v120" id="au"/><g id="e"><use transform="matrix(0.06172839506172839,0,0,0.06172839506172839,0,0)" xlink:href="#ai"/><use transform="matrix(0.06172839506172839,0,0,0.06172839506172839,12.345679012345679,0)" xlink:href="#aj"/><use transform="matrix(0.06172839506172839,0,0,0.06172839506172839,23.45679012345679,0)" xlink:href="#ak"/><use transform="matrix(0.06172839506172839,0,0,0.06172839506172839,29.62962962962963,0)" xlink:href="#aq"/><use transform="matrix(0.06172839506172839,0,0,0.06172839506172839,41.97530864197531,0)" xlink:href="#ar"/><use transform="matrix(0.06172839506172839,0,0,0.06172839506172839,54.32098765432099,0)" xlink:href="#as"/><use transform="matrix(0.06172839506172839,0,0,0.06172839506172839,59.19753086419753,0)" xlink:href="#ai"/><use transform="matrix(0.06172839506172839,0,0,0.06172839506172839,71.54320987654322,0)" xlink:href="#at"/><use transform="matrix(0.06172839506172839,0,0,0.06172839506172839,82.65432098765433,0)" xlink:href="#au"/><use transform="matrix(0.06172839506172839,0,0,0.06172839506172839,88.82716049382717,0)" xlink:href="#ao"/><use transform="matrix(0.06172839506172839,0,0,0.06172839506172839,96.17283950617285,0)" xlink:href="#aj"/></g><path fill="#333" d="M26 75v-336h71v23H56V52h41v23H26" id="av"/><use transform="matrix(0.06172839506172839,0,0,0.06172839506172839,0,0)" xlink:href="#av" id="f"/><path fill="#333" d="M3 75V52h41v-290H3v-23h71V75H3" id="aw"/><use transform="matrix(0.06172839506172839,0,0,0.06172839506172839,0,0)" xlink:href="#aw" id="g"/><path fill="#3a414a" d="M64 0c3-98 48-159 88-221H18v-27h164v26C143-157 98-101 97 0H64" id="ax"/><path fill="#3a414a" d="M101-251c82-7 93 87 43 132L82-64C71-53 59-42 53-27h129V0H18c2-99 128-94 128-182 0-28-16-43-45-43s-46 15-49 41l-32-3c6-41 34-60 81-64" id="ay"/><g id="h"><use transform="matrix(0.04320987654320987,0,0,0.04320987654320987,0,0)" xlink:href="#ax"/><use transform="matrix(0.04320987654320987,0,0,0.04320987654320987,8.641975308641973,0)" xlink:href="#ay"/></g><path fill="#3a414a" d="M137-103V0h-34v-103L8-248h37l75 118 75-118h37" id="az"/><path fill="#3a414a" d="M84 4C-5 8 30-112 23-190h32v120c0 31 7 50 39 49 72-2 45-101 50-169h31l1 190h-30c-1-10 1-25-2-33-11 22-28 36-60 37" id="aA"/><path fill="#3a414a" d="M117-194c89-4 53 116 60 194h-32v-121c0-31-8-49-39-48C34-167 62-67 57 0H25l-1-190h30c1 10-1 24 2 32 11-22 29-35 61-36" id="aB"/><path fill="#3a414a" d="M85-194c31 0 48 13 60 33l-1-100h32l1 261h-30c-2-10 0-23-3-31C134-8 116 4 85 4 32 4 16-35 15-94c0-66 23-100 70-100zm9 24c-40 0-46 34-46 75 0 40 6 74 45 74 42 0 51-32 51-76 0-42-9-74-50-73" id="aC"/><path fill="#3a414a" d="M141-36C126-15 110 5 73 4 37 3 15-17 15-53c-1-64 63-63 125-63 3-35-9-54-41-54-24 1-41 7-42 31l-33-3c5-37 33-52 76-52 45 0 72 20 72 64v82c-1 20 7 32 28 27v20c-31 9-61-2-59-35zM48-53c0 20 12 33 32 33 41-3 63-29 60-74-43 2-92-5-92 41" id="aD"/><path fill="#3a414a" d="M106-169C34-169 62-67 57 0H25v-261h32l-1 103c12-21 28-36 61-36 89 0 53 116 60 194h-32v-121c2-32-8-49-39-48" id="aE"/><g id="i"><use transform="matrix(0.04320987654320987,0,0,0.04320987654320987,0,0)" xlink:href="#az"/><use transform="matrix(0.04320987654320987,0,0,0.04320987654320987,9.50617283950617,0)" xlink:href="#aA"/><use transform="matrix(0.04320987654320987,0,0,0.04320987654320987,18.148148148148145,0)" xlink:href="#aB"/><use transform="matrix(0.04320987654320987,0,0,0.04320987654320987,26.790123456790116,0)" xlink:href="#aC"/><use transform="matrix(0.04320987654320987,0,0,0.04320987654320987,35.432098765432094,0)" xlink:href="#aD"/><use transform="matrix(0.04320987654320987,0,0,0.04320987654320987,44.07407407407407,0)" xlink:href="#aE"/></g><path fill="#3a414a" d="M185-189c-5-48-123-54-124 2 14 75 158 14 163 119 3 78-121 87-175 55-17-10-28-26-33-46l33-7c5 56 141 63 141-1 0-78-155-14-162-118-5-82 145-84 179-34 5 7 8 16 11 25" id="aF"/><path fill="#3a414a" d="M59-47c-2 24 18 29 38 22v24C64 9 27 4 27-40v-127H5v-23h24l9-43h21v43h35v23H59v120" id="aG"/><path fill="#3a414a" d="M114-163C36-179 61-72 57 0H25l-1-190h30c1 12-1 29 2 39 6-27 23-49 58-41v29" id="aH"/><path fill="#3a414a" d="M100-194c63 0 86 42 84 106H49c0 40 14 67 53 68 26 1 43-12 49-29l28 8c-11 28-37 45-77 45C44 4 14-33 15-96c1-61 26-98 85-98zm52 81c6-60-76-77-97-28-3 7-6 17-6 28h103" id="aI"/><g id="j"><use transform="matrix(0.04320987654320987,0,0,0.04320987654320987,0,0)" xlink:href="#aF"/><use transform="matrix(0.04320987654320987,0,0,0.04320987654320987,10.370370370370368,0)" xlink:href="#aG"/><use transform="matrix(0.04320987654320987,0,0,0.04320987654320987,14.691358024691354,0)" xlink:href="#aH"/><use transform="matrix(0.04320987654320987,0,0,0.04320987654320987,19.83333333333333,0)" xlink:href="#aI"/><use transform="matrix(0.04320987654320987,0,0,0.04320987654320987,28.475308641975303,0)" xlink:href="#aI"/><use transform="matrix(0.04320987654320987,0,0,0.04320987654320987,37.11728395061728,0)" xlink:href="#aG"/></g><path fill="#3a414a" d="M100-194c62-1 85 37 85 99 1 63-27 99-86 99S16-35 15-95c0-66 28-99 85-99zM99-20c44 1 53-31 53-75 0-43-8-75-51-75s-53 32-53 75 10 74 51 75" id="aJ"/><path fill="#3a414a" d="M96-169c-40 0-48 33-48 73s9 75 48 75c24 0 41-14 43-38l32 2c-6 37-31 61-74 61-59 0-76-41-82-99-10-93 101-131 147-64 4 7 5 14 7 22l-32 3c-4-21-16-35-41-35" id="aK"/><path fill="#3a414a" d="M24 0v-261h32V0H24" id="aL"/><path fill="#3a414a" d="M24-231v-30h32v30H24zM24 0v-190h32V0H24" id="aM"/><path fill="#3a414a" d="M101-234c-31-9-42 10-38 44h38v23H63V0H32v-167H5v-23h27c-7-52 17-82 69-68v24" id="aN"/><g id="k"><use transform="matrix(0.04320987654320987,0,0,0.04320987654320987,0,0)" xlink:href="#aF"/><use transform="matrix(0.04320987654320987,0,0,0.04320987654320987,10.370370370370368,0)" xlink:href="#aE"/><use transform="matrix(0.04320987654320987,0,0,0.04320987654320987,19.01234567901234,0)" xlink:href="#aJ"/><use transform="matrix(0.04320987654320987,0,0,0.04320987654320987,27.654320987654316,0)" xlink:href="#aH"/><use transform="matrix(0.04320987654320987,0,0,0.04320987654320987,32.79629629629629,0)" xlink:href="#aB"/><use transform="matrix(0.04320987654320987,0,0,0.04320987654320987,41.438271604938265,0)" xlink:href="#aK"/><use transform="matrix(0.04320987654320987,0,0,0.04320987654320987,49.21604938271605,0)" xlink:href="#aL"/><use transform="matrix(0.04320987654320987,0,0,0.04320987654320987,52.629629629629626,0)" xlink:href="#aM"/><use transform="matrix(0.04320987654320987,0,0,0.04320987654320987,56.04320987654321,0)" xlink:href="#aN"/><use transform="matrix(0.04320987654320987,0,0,0.04320987654320987,60.06172839506173,0)" xlink:href="#aN"/><use transform="matrix(0.04320987654320987,0,0,0.04320987654320987,64.38271604938271,0)" xlink:href="#aI"/></g><path fill="#3a414a" d="M140-251c81 0 123 46 123 126C263-53 228-8 163 1c7 30 30 48 69 40v23c-55 16-95-15-103-61C56-3 17-48 17-125c0-80 42-126 123-126zm0 227c63 0 89-41 89-101s-29-99-89-99c-61 0-89 39-89 99S79-25 140-24" id="aO"/><path fill="#3a414a" d="M135-143c-3-34-86-38-87 0 15 53 115 12 119 90S17 21 10-45l28-5c4 36 97 45 98 0-10-56-113-15-118-90-4-57 82-63 122-42 12 7 21 19 24 35" id="aP"/><g id="l"><use transform="matrix(0.04320987654320987,0,0,0.04320987654320987,0,0)" xlink:href="#aO"/><use transform="matrix(0.04320987654320987,0,0,0.04320987654320987,12.098765432098762,0)" xlink:href="#aA"/><use transform="matrix(0.04320987654320987,0,0,0.04320987654320987,20.740740740740733,0)" xlink:href="#aI"/><use transform="matrix(0.04320987654320987,0,0,0.04320987654320987,29.382716049382708,0)" xlink:href="#aI"/><use transform="matrix(0.04320987654320987,0,0,0.04320987654320987,38.02469135802468,0)" xlink:href="#aB"/><use transform="matrix(0.04320987654320987,0,0,0.04320987654320987,46.66666666666666,0)" xlink:href="#aP"/><use transform="matrix(0.04320987654320987,0,0,0.04320987654320987,54.444444444444436,0)" xlink:href="#aL"/><use transform="matrix(0.04320987654320987,0,0,0.04320987654320987,57.858024691358025,0)" xlink:href="#aD"/><use transform="matrix(0.04320987654320987,0,0,0.04320987654320987,66.49999999999999,0)" xlink:href="#aB"/><use transform="matrix(0.04320987654320987,0,0,0.04320987654320987,75.14197530864196,0)" xlink:href="#aC"/></g><path fill="#3a414a" d="M155-56V0h-30v-56H8v-25l114-167h33v167h35v25h-35zm-30-156c-27 46-58 90-88 131h88v-131" id="aQ"/><path fill="#3a414a" d="M101-251c68 0 85 55 85 127S166 4 100 4C33 4 14-52 14-124c0-73 17-127 87-127zm-1 229c47 0 54-49 54-102s-4-102-53-102c-51 0-55 48-55 102 0 53 5 102 54 102" id="aR"/><path fill="#3a414a" d="M27 0v-27h64v-190l-56 39v-29l58-41h29v221h61V0H27" id="aS"/><g id="m"><use transform="matrix(0.04320987654320987,0,0,0.04320987654320987,0,0)" xlink:href="#aQ"/><use transform="matrix(0.04320987654320987,0,0,0.04320987654320987,8.641975308641973,0)" xlink:href="#aR"/><use transform="matrix(0.04320987654320987,0,0,0.04320987654320987,17.283950617283946,0)" xlink:href="#aS"/><use transform="matrix(0.04320987654320987,0,0,0.04320987654320987,25.925925925925917,0)" xlink:href="#ax"/></g><path fill="#3a414a" d="M205 0l-28-72H64L36 0H1l101-248h38L239 0h-34zm-38-99l-47-123c-12 45-31 82-46 123h93" id="aT"/><g id="n"><use transform="matrix(0.04320987654320987,0,0,0.04320987654320987,0,0)" xlink:href="#aT"/><use transform="matrix(0.04320987654320987,0,0,0.04320987654320987,10.370370370370368,0)" xlink:href="#aA"/><use transform="matrix(0.04320987654320987,0,0,0.04320987654320987,19.01234567901234,0)" xlink:href="#aP"/><use transform="matrix(0.04320987654320987,0,0,0.04320987654320987,26.790123456790116,0)" xlink:href="#aG"/><use transform="matrix(0.04320987654320987,0,0,0.04320987654320987,31.111111111111104,0)" xlink:href="#aH"/><use transform="matrix(0.04320987654320987,0,0,0.04320987654320987,36.253086419753075,0)" xlink:href="#aD"/><use transform="matrix(0.04320987654320987,0,0,0.04320987654320987,44.89506172839505,0)" xlink:href="#aL"/><use transform="matrix(0.04320987654320987,0,0,0.04320987654320987,48.30864197530863,0)" xlink:href="#aM"/><use transform="matrix(0.04320987654320987,0,0,0.04320987654320987,51.722222222222214,0)" xlink:href="#aD"/></g><path d="M30 0v-248h33v221h125V0H30" id="aU"/><path d="M24-231v-30h32v30H24zM24 0v-190h32V0H24" id="aV"/><g id="o"><use transform="matrix(0.05,0,0,0.05,0,0)" xlink:href="#aU"/><use transform="matrix(0.05,0,0,0.05,10,0)" xlink:href="#aV"/><use transform="matrix(0.05,0,0,0.05,13.949999999999998,0)" xlink:href="#ad"/><use transform="matrix(0.05,0,0,0.05,18.95,0)" xlink:href="#V"/><use transform="matrix(0.05,0,0,0.05,28.950000000000003,0)" xlink:href="#U"/><use transform="matrix(0.05,0,0,0.05,34.9,0)" xlink:href="#X"/><use transform="matrix(0.05,0,0,0.05,44.9,0)" xlink:href="#Z"/></g><path fill="#333" d="M64 0c3-98 48-159 88-221H18v-27h164v26C143-157 98-101 97 0H64" id="aW"/><path fill="#333" d="M101-251c82-7 93 87 43 132L82-64C71-53 59-42 53-27h129V0H18c2-99 128-94 128-182 0-28-16-43-45-43s-46 15-49 41l-32-3c6-41 34-60 81-64" id="aX"/><g id="p"><use transform="matrix(0.06172839506172839,0,0,0.06172839506172839,0,0)" xlink:href="#aW"/><use transform="matrix(0.06172839506172839,0,0,0.06172839506172839,12.345679012345679,0)" xlink:href="#aX"/></g><path fill="#333" d="M137-103V0h-34v-103L8-248h37l75 118 75-118h37" id="aY"/><path fill="#333" d="M84 4C-5 8 30-112 23-190h32v120c0 31 7 50 39 49 72-2 45-101 50-169h31l1 190h-30c-1-10 1-25-2-33-11 22-28 36-60 37" id="aZ"/><path fill="#333" d="M85-194c31 0 48 13 60 33l-1-100h32l1 261h-30c-2-10 0-23-3-31C134-8 116 4 85 4 32 4 16-35 15-94c0-66 23-100 70-100zm9 24c-40 0-46 34-46 75 0 40 6 74 45 74 42 0 51-32 51-76 0-42-9-74-50-73" id="ba"/><path fill="#333" d="M106-169C34-169 62-67 57 0H25v-261h32l-1 103c12-21 28-36 61-36 89 0 53 116 60 194h-32v-121c2-32-8-49-39-48" id="bb"/><g id="q"><use transform="matrix(0.06172839506172839,0,0,0.06172839506172839,0,0)" xlink:href="#aY"/><use transform="matrix(0.06172839506172839,0,0,0.06172839506172839,13.580246913580245,0)" xlink:href="#aZ"/><use transform="matrix(0.06172839506172839,0,0,0.06172839506172839,25.925925925925924,0)" xlink:href="#al"/><use transform="matrix(0.06172839506172839,0,0,0.06172839506172839,38.2716049382716,0)" xlink:href="#ba"/><use transform="matrix(0.06172839506172839,0,0,0.06172839506172839,50.61728395061728,0)" xlink:href="#am"/><use transform="matrix(0.06172839506172839,0,0,0.06172839506172839,62.962962962962955,0)" xlink:href="#bb"/></g><path fill="#333" d="M185-189c-5-48-123-54-124 2 14 75 158 14 163 119 3 78-121 87-175 55-17-10-28-26-33-46l33-7c5 56 141 63 141-1 0-78-155-14-162-118-5-82 145-84 179-34 5 7 8 16 11 25" id="bc"/><path fill="#333" d="M114-163C36-179 61-72 57 0H25l-1-190h30c1 12-1 29 2 39 6-27 23-49 58-41v29" id="bd"/><g id="r"><use transform="matrix(0.06172839506172839,0,0,0.06172839506172839,0,0)" xlink:href="#ai"/><use transform="matrix(0.06172839506172839,0,0,0.06172839506172839,12.345679012345679,0)" xlink:href="#aj"/><use transform="matrix(0.06172839506172839,0,0,0.06172839506172839,23.45679012345679,0)" xlink:href="#ak"/><use transform="matrix(0.06172839506172839,0,0,0.06172839506172839,29.62962962962963,0)" xlink:href="#bc"/><use transform="matrix(0.06172839506172839,0,0,0.06172839506172839,44.44444444444444,0)" xlink:href="#au"/><use transform="matrix(0.06172839506172839,0,0,0.06172839506172839,50.617283950617285,0)" xlink:href="#bd"/><use transform="matrix(0.06172839506172839,0,0,0.06172839506172839,57.96296296296296,0)" xlink:href="#ai"/><use transform="matrix(0.06172839506172839,0,0,0.06172839506172839,70.30864197530865,0)" xlink:href="#ai"/><use transform="matrix(0.06172839506172839,0,0,0.06172839506172839,82.65432098765433,0)" xlink:href="#au"/></g><path fill="#333" d="M135-143c-3-34-86-38-87 0 15 53 115 12 119 90S17 21 10-45l28-5c4 36 97 45 98 0-10-56-113-15-118-90-4-57 82-63 122-42 12 7 21 19 24 35" id="be"/><path fill="#333" d="M24 0v-261h32V0H24" id="bf"/><path fill="#333" d="M24-231v-30h32v30H24zM24 0v-190h32V0H24" id="bg"/><path fill="#333" d="M101-234c-31-9-42 10-38 44h38v23H63V0H32v-167H5v-23h27c-7-52 17-82 69-68v24" id="bh"/><g id="s"><use transform="matrix(0.06172839506172839,0,0,0.06172839506172839,0,0)" xlink:href="#ai"/><use transform="matrix(0.06172839506172839,0,0,0.06172839506172839,12.345679012345679,0)" xlink:href="#aj"/><use transform="matrix(0.06172839506172839,0,0,0.06172839506172839,23.45679012345679,0)" xlink:href="#ak"/><use transform="matrix(0.06172839506172839,0,0,0.06172839506172839,29.62962962962963,0)" xlink:href="#be"/><use transform="matrix(0.06172839506172839,0,0,0.06172839506172839,40.74074074074074,0)" xlink:href="#bb"/><use transform="matrix(0.06172839506172839,0,0,0.06172839506172839,53.08641975308642,0)" xlink:href="#aq"/><use transform="matrix(0.06172839506172839,0,0,0.06172839506172839,65.4320987654321,0)" xlink:href="#bd"/><use transform="matrix(0.06172839506172839,0,0,0.06172839506172839,72.77777777777779,0)" xlink:href="#al"/><use transform="matrix(0.06172839506172839,0,0,0.06172839506172839,85.12345679012347,0)" xlink:href="#at"/><use transform="matrix(0.06172839506172839,0,0,0.06172839506172839,96.23456790123458,0)" xlink:href="#bf"/><use transform="matrix(0.06172839506172839,0,0,0.06172839506172839,101.11111111111113,0)" xlink:href="#bg"/><use transform="matrix(0.06172839506172839,0,0,0.06172839506172839,105.98765432098767,0)" xlink:href="#bh"/><use transform="matrix(0.06172839506172839,0,0,0.06172839506172839,111.7283950617284,0)" xlink:href="#bh"/><use transform="matrix(0.06172839506172839,0,0,0.06172839506172839,117.90123456790124,0)" xlink:href="#ai"/></g><path fill="#333" d="M145-31C134-9 116 4 85 4 32 4 16-35 15-94c0-59 17-99 70-100 32-1 48 14 60 33 0-11-1-24 2-32h30l-1 268h-32zM93-21c41 0 51-33 51-76s-8-73-50-73c-40 0-46 35-46 75s5 74 45 74" id="bi"/><g id="t"><use transform="matrix(0.06172839506172839,0,0,0.06172839506172839,0,0)" xlink:href="#ai"/><use transform="matrix(0.06172839506172839,0,0,0.06172839506172839,12.345679012345679,0)" xlink:href="#aj"/><use transform="matrix(0.06172839506172839,0,0,0.06172839506172839,23.45679012345679,0)" xlink:href="#ak"/><use transform="matrix(0.06172839506172839,0,0,0.06172839506172839,29.62962962962963,0)" xlink:href="#bi"/><use transform="matrix(0.06172839506172839,0,0,0.06172839506172839,41.97530864197531,0)" xlink:href="#aZ"/><use transform="matrix(0.06172839506172839,0,0,0.06172839506172839,54.32098765432099,0)" xlink:href="#ai"/><use transform="matrix(0.06172839506172839,0,0,0.06172839506172839,66.66666666666667,0)" xlink:href="#ai"/><use transform="matrix(0.06172839506172839,0,0,0.06172839506172839,79.01234567901236,0)" xlink:href="#al"/><use transform="matrix(0.06172839506172839,0,0,0.06172839506172839,91.35802469135804,0)" xlink:href="#be"/><use transform="matrix(0.06172839506172839,0,0,0.06172839506172839,102.46913580246915,0)" xlink:href="#bf"/><use transform="matrix(0.06172839506172839,0,0,0.06172839506172839,107.3456790123457,0)" xlink:href="#am"/><use transform="matrix(0.06172839506172839,0,0,0.06172839506172839,119.69135802469138,0)" xlink:href="#al"/><use transform="matrix(0.06172839506172839,0,0,0.06172839506172839,132.03703703703707,0)" xlink:href="#ba"/></g><path fill="#333" d="M155-56V0h-30v-56H8v-25l114-167h33v167h35v25h-35zm-30-156c-27 46-58 90-88 131h88v-131" id="bj"/><path fill="#333" d="M101-251c68 0 85 55 85 127S166 4 100 4C33 4 14-52 14-124c0-73 17-127 87-127zm-1 229c47 0 54-49 54-102s-4-102-53-102c-51 0-55 48-55 102 0 53 5 102 54 102" id="bk"/><path fill="#333" d="M27 0v-27h64v-190l-56 39v-29l58-41h29v221h61V0H27" id="bl"/><g id="u"><use transform="matrix(0.06172839506172839,0,0,0.06172839506172839,0,0)" xlink:href="#bj"/><use transform="matrix(0.06172839506172839,0,0,0.06172839506172839,12.345679012345679,0)" xlink:href="#bk"/><use transform="matrix(0.06172839506172839,0,0,0.06172839506172839,24.691358024691358,0)" xlink:href="#bl"/><use transform="matrix(0.06172839506172839,0,0,0.06172839506172839,37.03703703703704,0)" xlink:href="#aW"/></g><g id="v"><use transform="matrix(0.06172839506172839,0,0,0.06172839506172839,0,0)" xlink:href="#ai"/><use transform="matrix(0.06172839506172839,0,0,0.06172839506172839,12.345679012345679,0)" xlink:href="#aj"/><use transform="matrix(0.06172839506172839,0,0,0.06172839506172839,23.45679012345679,0)" xlink:href="#ak"/><use transform="matrix(0.06172839506172839,0,0,0.06172839506172839,29.62962962962963,0)" xlink:href="#am"/><use transform="matrix(0.06172839506172839,0,0,0.06172839506172839,41.97530864197531,0)" xlink:href="#aZ"/></g><path fill="#979ea8" d="M106-169C34-169 62-67 57 0H25v-261h32l-1 103c12-21 28-36 61-36 89 0 53 116 60 194h-32v-121c2-32-8-49-39-48" id="bm"/><path fill="#979ea8" d="M141-36C126-15 110 5 73 4 37 3 15-17 15-53c-1-64 63-63 125-63 3-35-9-54-41-54-24 1-41 7-42 31l-33-3c5-37 33-52 76-52 45 0 72 20 72 64v82c-1 20 7 32 28 27v20c-31 9-61-2-59-35zM48-53c0 20 12 33 32 33 41-3 63-29 60-74-43 2-92-5-92 41" id="bn"/><path fill="#979ea8" d="M135-143c-3-34-86-38-87 0 15 53 115 12 119 90S17 21 10-45l28-5c4 36 97 45 98 0-10-56-113-15-118-90-4-57 82-63 122-42 12 7 21 19 24 35" id="bo"/><g id="w"><use transform="matrix(0.04938271604938272,0,0,0.04938271604938272,0,0)" xlink:href="#bm"/><use transform="matrix(0.04938271604938272,0,0,0.04938271604938272,9.876543209876544,0)" xlink:href="#bn"/><use transform="matrix(0.04938271604938272,0,0,0.04938271604938272,19.75308641975309,0)" xlink:href="#bo"/></g><path fill="#979ea8" d="M115-194c55 1 70 41 70 98S169 2 115 4C84 4 66-9 55-30l1 105H24l-1-265h31l2 30c10-21 28-34 59-34zm-8 174c40 0 45-34 45-75s-6-73-45-74c-42 0-51 32-51 76 0 43 10 73 51 73" id="bp"/><path fill="#979ea8" d="M114-163C36-179 61-72 57 0H25l-1-190h30c1 12-1 29 2 39 6-27 23-49 58-41v29" id="bq"/><path fill="#979ea8" d="M59-47c-2 24 18 29 38 22v24C64 9 27 4 27-40v-127H5v-23h24l9-43h21v43h35v23H59v120" id="br"/><g id="x"><use transform="matrix(0.04938271604938272,0,0,0.04938271604938272,0,0)" xlink:href="#bp"/><use transform="matrix(0.04938271604938272,0,0,0.04938271604938272,9.876543209876544,0)" xlink:href="#bn"/><use transform="matrix(0.04938271604938272,0,0,0.04938271604938272,19.75308641975309,0)" xlink:href="#bq"/><use transform="matrix(0.04938271604938272,0,0,0.04938271604938272,25.629629629629633,0)" xlink:href="#br"/></g><path fill="#979ea8" d="M108 0H70L1-190h34L89-25l56-165h34" id="bs"/><path fill="#979ea8" d="M24 0v-261h32V0H24" id="bt"/><path fill="#979ea8" d="M84 4C-5 8 30-112 23-190h32v120c0 31 7 50 39 49 72-2 45-101 50-169h31l1 190h-30c-1-10 1-25-2-33-11 22-28 36-60 37" id="bu"/><path fill="#979ea8" d="M100-194c63 0 86 42 84 106H49c0 40 14 67 53 68 26 1 43-12 49-29l28 8c-11 28-37 45-77 45C44 4 14-33 15-96c1-61 26-98 85-98zm52 81c6-60-76-77-97-28-3 7-6 17-6 28h103" id="bv"/><g id="y"><use transform="matrix(0.04938271604938272,0,0,0.04938271604938272,0,0)" xlink:href="#bs"/><use transform="matrix(0.04938271604938272,0,0,0.04938271604938272,8.88888888888889,0)" xlink:href="#bn"/><use transform="matrix(0.04938271604938272,0,0,0.04938271604938272,18.765432098765434,0)" xlink:href="#bt"/><use transform="matrix(0.04938271604938272,0,0,0.04938271604938272,22.666666666666668,0)" xlink:href="#bu"/><use transform="matrix(0.04938271604938272,0,0,0.04938271604938272,32.543209876543216,0)" xlink:href="#bv"/></g><path fill="#333" d="M212-179c-10-28-35-45-73-45-59 0-87 40-87 99 0 60 29 101 89 101 43 0 62-24 78-52l27 14C228-24 195 4 139 4 59 4 22-46 18-125c-6-104 99-153 187-111 19 9 31 26 39 46" id="bw"/><g id="z"><use transform="matrix(0.06172839506172839,0,0,0.06172839506172839,0,0)" xlink:href="#ai"/><use transform="matrix(0.06172839506172839,0,0,0.06172839506172839,12.345679012345679,0)" xlink:href="#aj"/><use transform="matrix(0.06172839506172839,0,0,0.06172839506172839,23.45679012345679,0)" xlink:href="#ak"/><use transform="matrix(0.06172839506172839,0,0,0.06172839506172839,29.62962962962963,0)" xlink:href="#bw"/><use transform="matrix(0.06172839506172839,0,0,0.06172839506172839,45.617283950617285,0)" xlink:href="#aq"/><use transform="matrix(0.06172839506172839,0,0,0.06172839506172839,57.96296296296296,0)" xlink:href="#aZ"/><use transform="matrix(0.06172839506172839,0,0,0.06172839506172839,70.30864197530865,0)" xlink:href="#al"/><use transform="matrix(0.06172839506172839,0,0,0.06172839506172839,82.65432098765433,0)" xlink:href="#au"/><use transform="matrix(0.06172839506172839,0,0,0.06172839506172839,88.82716049382717,0)" xlink:href="#bd"/><use transform="matrix(0.06172839506172839,0,0,0.06172839506172839,96.17283950617285,0)" xlink:href="#ap"/></g><path fill="#979ea8" d="M85-194c31 0 48 13 60 33l-1-100h32l1 261h-30c-2-10 0-23-3-31C134-8 116 4 85 4 32 4 16-35 15-94c0-66 23-100 70-100zm9 24c-40 0-46 34-46 75 0 40 6 74 45 74 42 0 51-32 51-76 0-42-9-74-50-73" id="bx"/><path fill="#979ea8" d="M24-231v-30h32v30H24zM24 0v-190h32V0H24" id="by"/><path fill="#979ea8" d="M100-194c62-1 85 37 85 99 1 63-27 99-86 99S16-35 15-95c0-66 28-99 85-99zM99-20c44 1 53-31 53-75 0-43-8-75-51-75s-53 32-53 75 10 74 51 75" id="bz"/><path fill="#979ea8" d="M117-194c89-4 53 116 60 194h-32v-121c0-31-8-49-39-48C34-167 62-67 57 0H25l-1-190h30c1 10-1 24 2 32 11-22 29-35 61-36" id="bA"/><g id="A"><use transform="matrix(0.04938271604938272,0,0,0.04938271604938272,0,0)" xlink:href="#bn"/><use transform="matrix(0.04938271604938272,0,0,0.04938271604938272,9.876543209876544,0)" xlink:href="#bx"/><use transform="matrix(0.04938271604938272,0,0,0.04938271604938272,19.75308641975309,0)" xlink:href="#bx"/><use transform="matrix(0.04938271604938272,0,0,0.04938271604938272,29.629629629629633,0)" xlink:href="#by"/><use transform="matrix(0.04938271604938272,0,0,0.04938271604938272,33.53086419753087,0)" xlink:href="#br"/><use transform="matrix(0.04938271604938272,0,0,0.04938271604938272,38.46913580246914,0)" xlink:href="#by"/><use transform="matrix(0.04938271604938272,0,0,0.04938271604938272,42.370370370370374,0)" xlink:href="#bz"/><use transform="matrix(0.04938271604938272,0,0,0.04938271604938272,52.24691358024692,0)" xlink:href="#bA"/><use transform="matrix(0.04938271604938272,0,0,0.04938271604938272,62.12345679012346,0)" xlink:href="#bn"/><use transform="matrix(0.04938271604938272,0,0,0.04938271604938272,72,0)" xlink:href="#bt"/></g><path fill="#979ea8" d="M179-190L93 31C79 59 56 82 12 73V49c39 6 53-20 64-50L1-190h34L92-34l54-156h33" id="bB"/><g id="B"><use transform="matrix(0.04938271604938272,0,0,0.04938271604938272,0,0)" xlink:href="#br"/><use transform="matrix(0.04938271604938272,0,0,0.04938271604938272,4.938271604938272,0)" xlink:href="#bB"/><use transform="matrix(0.04938271604938272,0,0,0.04938271604938272,13.827160493827162,0)" xlink:href="#bp"/><use transform="matrix(0.04938271604938272,0,0,0.04938271604938272,23.703703703703706,0)" xlink:href="#bv"/></g><path fill="#333" d="M30-248c87 1 191-15 191 75 0 78-77 80-158 76V0H30v-248zm33 125c57 0 124 11 124-50 0-59-68-47-124-48v98" id="bC"/><g id="C"><use transform="matrix(0.06172839506172839,0,0,0.06172839506172839,0,0)" xlink:href="#ai"/><use transform="matrix(0.06172839506172839,0,0,0.06172839506172839,12.345679012345679,0)" xlink:href="#aj"/><use transform="matrix(0.06172839506172839,0,0,0.06172839506172839,23.45679012345679,0)" xlink:href="#ak"/><use transform="matrix(0.06172839506172839,0,0,0.06172839506172839,29.62962962962963,0)" xlink:href="#bC"/><use transform="matrix(0.06172839506172839,0,0,0.06172839506172839,44.44444444444444,0)" xlink:href="#aq"/><use transform="matrix(0.06172839506172839,0,0,0.06172839506172839,56.79012345679012,0)" xlink:href="#be"/><use transform="matrix(0.06172839506172839,0,0,0.06172839506172839,67.90123456790123,0)" xlink:href="#au"/><use transform="matrix(0.06172839506172839,0,0,0.06172839506172839,74.07407407407406,0)" xlink:href="#bw"/><use transform="matrix(0.06172839506172839,0,0,0.06172839506172839,90.06172839506172,0)" xlink:href="#aq"/><use transform="matrix(0.06172839506172839,0,0,0.06172839506172839,102.4074074074074,0)" xlink:href="#ba"/><use transform="matrix(0.06172839506172839,0,0,0.06172839506172839,114.75308641975309,0)" xlink:href="#ai"/></g><path d="M233-177c-1 41-23 64-60 70L243 0h-38l-65-103H63V0H30v-248c88 3 205-21 203 71zM63-129c60-2 137 13 137-47 0-61-80-42-137-45v92" id="bD"/><path d="M100-194c62-1 85 37 85 99 1 63-27 99-86 99S16-35 15-95c0-66 28-99 85-99zM99-20c44 1 53-31 53-75 0-43-8-75-51-75s-53 32-53 75 10 74 51 75" id="bE"/><path d="M84 4C-5 8 30-112 23-190h32v120c0 31 7 50 39 49 72-2 45-101 50-169h31l1 190h-30c-1-10 1-25-2-33-11 22-28 36-60 37" id="bF"/><g id="D"><use transform="matrix(0.05,0,0,0.05,0,0)" xlink:href="#bD"/><use transform="matrix(0.05,0,0,0.05,12.950000000000001,0)" xlink:href="#V"/><use transform="matrix(0.05,0,0,0.05,22.950000000000003,0)" xlink:href="#W"/><use transform="matrix(0.05,0,0,0.05,31.950000000000003,0)" xlink:href="#bE"/><use transform="matrix(0.05,0,0,0.05,41.95,0)" xlink:href="#bF"/><use transform="matrix(0.05,0,0,0.05,51.95,0)" xlink:href="#U"/><use transform="matrix(0.05,0,0,0.05,57.900000000000006,0)" xlink:href="#ac"/><use transform="matrix(0.05,0,0,0.05,66.9,0)" xlink:href="#V"/></g><g id="E"><use transform="matrix(0.06172839506172839,0,0,0.06172839506172839,0,0)" xlink:href="#ai"/><use transform="matrix(0.06172839506172839,0,0,0.06172839506172839,12.345679012345679,0)" xlink:href="#aj"/><use transform="matrix(0.06172839506172839,0,0,0.06172839506172839,23.45679012345679,0)" xlink:href="#ak"/><use transform="matrix(0.06172839506172839,0,0,0.06172839506172839,29.62962962962963,0)" xlink:href="#bc"/><use transform="matrix(0.06172839506172839,0,0,0.06172839506172839,44.44444444444444,0)" xlink:href="#au"/><use transform="matrix(0.06172839506172839,0,0,0.06172839506172839,50.617283950617285,0)" xlink:href="#am"/><use transform="matrix(0.06172839506172839,0,0,0.06172839506172839,62.96296296296296,0)" xlink:href="#au"/><use transform="matrix(0.06172839506172839,0,0,0.06172839506172839,69.1358024691358,0)" xlink:href="#ai"/></g><path fill="#333" d="M30 0v-248h33v221h125V0H30" id="bG"/><g id="F"><use transform="matrix(0.06172839506172839,0,0,0.06172839506172839,0,0)" xlink:href="#ai"/><use transform="matrix(0.06172839506172839,0,0,0.06172839506172839,12.345679012345679,0)" xlink:href="#aj"/><use transform="matrix(0.06172839506172839,0,0,0.06172839506172839,23.45679012345679,0)" xlink:href="#ak"/><use transform="matrix(0.06172839506172839,0,0,0.06172839506172839,29.62962962962963,0)" xlink:href="#bG"/><use transform="matrix(0.06172839506172839,0,0,0.06172839506172839,41.97530864197531,0)" xlink:href="#aq"/><use transform="matrix(0.06172839506172839,0,0,0.06172839506172839,54.32098765432099,0)" xlink:href="#at"/><use transform="matrix(0.06172839506172839,0,0,0.06172839506172839,65.4320987654321,0)" xlink:href="#am"/><use transform="matrix(0.06172839506172839,0,0,0.06172839506172839,77.77777777777779,0)" xlink:href="#bf"/><use transform="matrix(0.06172839506172839,0,0,0.06172839506172839,82.65432098765433,0)" xlink:href="#bg"/><use transform="matrix(0.06172839506172839,0,0,0.06172839506172839,87.53086419753087,0)" xlink:href="#au"/><use transform="matrix(0.06172839506172839,0,0,0.06172839506172839,93.70370370370371,0)" xlink:href="#ap"/></g><path fill="#333" d="M127-220V0H93v-220H8v-28h204v28h-85" id="bH"/><path fill="#333" d="M115-194c55 1 70 41 70 98S169 2 115 4C84 4 66-9 55-30l1 105H24l-1-265h31l2 30c10-21 28-34 59-34zm-8 174c40 0 45-34 45-75s-6-73-45-74c-42 0-51 32-51 76 0 43 10 73 51 73" id="bI"/><g id="G"><use transform="matrix(0.06172839506172839,0,0,0.06172839506172839,0,0)" xlink:href="#ai"/><use transform="matrix(0.06172839506172839,0,0,0.06172839506172839,12.345679012345679,0)" xlink:href="#aj"/><use transform="matrix(0.06172839506172839,0,0,0.06172839506172839,23.45679012345679,0)" xlink:href="#ak"/><use transform="matrix(0.06172839506172839,0,0,0.06172839506172839,29.62962962962963,0)" xlink:href="#bc"/><use transform="matrix(0.06172839506172839,0,0,0.06172839506172839,44.44444444444444,0)" xlink:href="#au"/><use transform="matrix(0.06172839506172839,0,0,0.06172839506172839,50.617283950617285,0)" xlink:href="#bd"/><use transform="matrix(0.06172839506172839,0,0,0.06172839506172839,57.96296296296296,0)" xlink:href="#ai"/><use transform="matrix(0.06172839506172839,0,0,0.06172839506172839,70.30864197530865,0)" xlink:href="#ai"/><use transform="matrix(0.06172839506172839,0,0,0.06172839506172839,82.65432098765433,0)" xlink:href="#au"/><use transform="matrix(0.06172839506172839,0,0,0.06172839506172839,88.82716049382717,0)" xlink:href="#bH"/><use transform="matrix(0.06172839506172839,0,0,0.06172839506172839,101.11111111111111,0)" xlink:href="#ap"/><use transform="matrix(0.06172839506172839,0,0,0.06172839506172839,112.22222222222223,0)" xlink:href="#bI"/><use transform="matrix(0.06172839506172839,0,0,0.06172839506172839,124.56790123456791,0)" xlink:href="#ai"/></g><path fill="#333" d="M190 0L58-211 59 0H30v-248h39L202-35l-2-213h31V0h-41" id="bJ"/><g id="H"><use transform="matrix(0.06172839506172839,0,0,0.06172839506172839,0,0)" xlink:href="#ai"/><use transform="matrix(0.06172839506172839,0,0,0.06172839506172839,12.345679012345679,0)" xlink:href="#aj"/><use transform="matrix(0.06172839506172839,0,0,0.06172839506172839,23.45679012345679,0)" xlink:href="#ak"/><use transform="matrix(0.06172839506172839,0,0,0.06172839506172839,29.62962962962963,0)" xlink:href="#bc"/><use transform="matrix(0.06172839506172839,0,0,0.06172839506172839,44.44444444444444,0)" xlink:href="#au"/><use transform="matrix(0.06172839506172839,0,0,0.06172839506172839,50.617283950617285,0)" xlink:href="#bd"/><use transform="matrix(0.06172839506172839,0,0,0.06172839506172839,57.96296296296296,0)" xlink:href="#ai"/><use transform="matrix(0.06172839506172839,0,0,0.06172839506172839,70.30864197530865,0)" xlink:href="#ai"/><use transform="matrix(0.06172839506172839,0,0,0.06172839506172839,82.65432098765433,0)" xlink:href="#au"/><use transform="matrix(0.06172839506172839,0,0,0.06172839506172839,88.82716049382717,0)" xlink:href="#bJ"/><use transform="matrix(0.06172839506172839,0,0,0.06172839506172839,104.81481481481482,0)" xlink:href="#am"/><use transform="matrix(0.06172839506172839,0,0,0.06172839506172839,117.16049382716051,0)" xlink:href="#an"/><use transform="matrix(0.06172839506172839,0,0,0.06172839506172839,135.6172839506173,0)" xlink:href="#ai"/></g><g id="I"><use transform="matrix(0.06172839506172839,0,0,0.06172839506172839,0,0)" xlink:href="#ai"/><use transform="matrix(0.06172839506172839,0,0,0.06172839506172839,12.345679012345679,0)" xlink:href="#aj"/><use transform="matrix(0.06172839506172839,0,0,0.06172839506172839,23.45679012345679,0)" xlink:href="#ak"/></g><g id="J"><use transform="matrix(0.06172839506172839,0,0,0.06172839506172839,0,0)" xlink:href="#bc"/><use transform="matrix(0.06172839506172839,0,0,0.06172839506172839,14.814814814814813,0)" xlink:href="#au"/><use transform="matrix(0.06172839506172839,0,0,0.06172839506172839,20.98765432098765,0)" xlink:href="#bd"/><use transform="matrix(0.06172839506172839,0,0,0.06172839506172839,28.33333333333333,0)" xlink:href="#ai"/><use transform="matrix(0.06172839506172839,0,0,0.06172839506172839,40.679012345679006,0)" xlink:href="#ai"/><use transform="matrix(0.06172839506172839,0,0,0.06172839506172839,53.02469135802468,0)" xlink:href="#au"/><use transform="matrix(0.06172839506172839,0,0,0.06172839506172839,59.197530864197525,0)" xlink:href="#bJ"/><use transform="matrix(0.06172839506172839,0,0,0.06172839506172839,75.18518518518518,0)" xlink:href="#aZ"/><use transform="matrix(0.06172839506172839,0,0,0.06172839506172839,87.53086419753086,0)" xlink:href="#an"/><use transform="matrix(0.06172839506172839,0,0,0.06172839506172839,105.98765432098764,0)" xlink:href="#ar"/><use transform="matrix(0.06172839506172839,0,0,0.06172839506172839,118.33333333333333,0)" xlink:href="#ai"/><use transform="matrix(0.06172839506172839,0,0,0.06172839506172839,130.679012345679,0)" xlink:href="#bd"/></g><path fill="#333" d="M205 0l-28-72H64L36 0H1l101-248h38L239 0h-34zm-38-99l-47-123c-12 45-31 82-46 123h93" id="bK"/><g id="K"><use transform="matrix(0.06172839506172839,0,0,0.06172839506172839,0,0)" xlink:href="#bK"/><use transform="matrix(0.06172839506172839,0,0,0.06172839506172839,14.814814814814813,0)" xlink:href="#aZ"/><use transform="matrix(0.06172839506172839,0,0,0.06172839506172839,27.160493827160494,0)" xlink:href="#be"/><use transform="matrix(0.06172839506172839,0,0,0.06172839506172839,38.27160493827161,0)" xlink:href="#au"/><use transform="matrix(0.06172839506172839,0,0,0.06172839506172839,44.44444444444445,0)" xlink:href="#bd"/><use transform="matrix(0.06172839506172839,0,0,0.06172839506172839,51.79012345679013,0)" xlink:href="#am"/><use transform="matrix(0.06172839506172839,0,0,0.06172839506172839,64.13580246913581,0)" xlink:href="#bf"/><use transform="matrix(0.06172839506172839,0,0,0.06172839506172839,69.01234567901236,0)" xlink:href="#bg"/><use transform="matrix(0.06172839506172839,0,0,0.06172839506172839,73.8888888888889,0)" xlink:href="#am"/></g><path fill="#6f7681" d="M106-169C34-169 62-67 57 0H25v-261h32l-1 103c12-21 28-36 61-36 89 0 53 116 60 194h-32v-121c2-32-8-49-39-48" id="bL"/><path fill="#6f7681" d="M135-143c-3-34-86-38-87 0 15 53 115 12 119 90S17 21 10-45l28-5c4 36 97 45 98 0-10-56-113-15-118-90-4-57 82-63 122-42 12 7 21 19 24 35" id="bM"/><g id="L"><use transform="matrix(0.04938271604938272,0,0,0.04938271604938272,0,0)" xlink:href="#bL"/><use transform="matrix(0.04938271604938272,0,0,0.04938271604938272,9.876543209876544,0)" xlink:href="#af"/><use transform="matrix(0.04938271604938272,0,0,0.04938271604938272,19.75308641975309,0)" xlink:href="#bM"/></g><path fill="#6f7681" d="M115-194c55 1 70 41 70 98S169 2 115 4C84 4 66-9 55-30l1 105H24l-1-265h31l2 30c10-21 28-34 59-34zm-8 174c40 0 45-34 45-75s-6-73-45-74c-42 0-51 32-51 76 0 43 10 73 51 73" id="bN"/><path fill="#6f7681" d="M114-163C36-179 61-72 57 0H25l-1-190h30c1 12-1 29 2 39 6-27 23-49 58-41v29" id="bO"/><path fill="#6f7681" d="M59-47c-2 24 18 29 38 22v24C64 9 27 4 27-40v-127H5v-23h24l9-43h21v43h35v23H59v120" id="bP"/><g id="M"><use transform="matrix(0.04938271604938272,0,0,0.04938271604938272,0,0)" xlink:href="#bN"/><use transform="matrix(0.04938271604938272,0,0,0.04938271604938272,9.876543209876544,0)" xlink:href="#af"/><use transform="matrix(0.04938271604938272,0,0,0.04938271604938272,19.75308641975309,0)" xlink:href="#bO"/><use transform="matrix(0.04938271604938272,0,0,0.04938271604938272,25.629629629629633,0)" xlink:href="#bP"/></g><g id="N"><use transform="matrix(0.05,0,0,0.05,0,0)" xlink:href="#S"/><use transform="matrix(0.05,0,0,0.05,12,0)" xlink:href="#T"/><use transform="matrix(0.05,0,0,0.05,22,0)" xlink:href="#T"/><use transform="matrix(0.05,0,0,0.05,32,0)" xlink:href="#U"/><use transform="matrix(0.05,0,0,0.05,37.95,0)" xlink:href="#V"/><use transform="matrix(0.05,0,0,0.05,47.95,0)" xlink:href="#W"/><use transform="matrix(0.05,0,0,0.05,56.95,0)" xlink:href="#W"/></g><path d="M212-179c-10-28-35-45-73-45-59 0-87 40-87 99 0 60 29 101 89 101 43 0 62-24 78-52l27 14C228-24 195 4 139 4 59 4 22-46 18-125c-6-104 99-153 187-111 19 9 31 26 39 46" id="bQ"/><path d="M210-169c-67 3-38 105-44 169h-31v-121c0-29-5-50-35-48C34-165 62-65 56 0H25l-1-190h30c1 10-1 24 2 32 10-44 99-50 107 0 11-21 27-35 58-36 85-2 47 119 55 194h-31v-121c0-29-5-49-35-48" id="bR"/><path d="M115-194c55 1 70 41 70 98S169 2 115 4C84 4 66-9 55-30l1 105H24l-1-265h31l2 30c10-21 28-34 59-34zm-8 174c40 0 45-34 45-75s-6-73-45-74c-42 0-51 32-51 76 0 43 10 73 51 73" id="bS"/><path d="M117-194c89-4 53 116 60 194h-32v-121c0-31-8-49-39-48C34-167 62-67 57 0H25l-1-190h30c1 10-1 24 2 32 11-22 29-35 61-36" id="bT"/><g id="O"><use transform="matrix(0.05,0,0,0.05,0,0)" xlink:href="#bQ"/><use transform="matrix(0.05,0,0,0.05,12.950000000000001,0)" xlink:href="#bE"/><use transform="matrix(0.05,0,0,0.05,22.950000000000003,0)" xlink:href="#bR"/><use transform="matrix(0.05,0,0,0.05,37.900000000000006,0)" xlink:href="#bS"/><use transform="matrix(0.05,0,0,0.05,47.900000000000006,0)" xlink:href="#bE"/><use transform="matrix(0.05,0,0,0.05,57.900000000000006,0)" xlink:href="#bF"/><use transform="matrix(0.05,0,0,0.05,67.9,0)" xlink:href="#bT"/><use transform="matrix(0.05,0,0,0.05,77.9,0)" xlink:href="#T"/></g><path d="M190 0L58-211 59 0H30v-248h39L202-35l-2-213h31V0h-41" id="bU"/><g id="P"><use transform="matrix(0.05,0,0,0.05,0,0)" xlink:href="#bU"/><use transform="matrix(0.05,0,0,0.05,12.950000000000001,0)" xlink:href="#X"/><use transform="matrix(0.05,0,0,0.05,22.950000000000003,0)" xlink:href="#bR"/><use transform="matrix(0.05,0,0,0.05,37.900000000000006,0)" xlink:href="#V"/></g><g id="Q"><use transform="matrix(0.05,0,0,0.05,0,0)" xlink:href="#bQ"/><use transform="matrix(0.05,0,0,0.05,12.950000000000001,0)" xlink:href="#bE"/><use transform="matrix(0.05,0,0,0.05,22.950000000000003,0)" xlink:href="#bT"/><use transform="matrix(0.05,0,0,0.05,32.95,0)" xlink:href="#ac"/><use transform="matrix(0.05,0,0,0.05,41.95,0)" xlink:href="#V"/><use transform="matrix(0.05,0,0,0.05,51.95,0)" xlink:href="#bS"/><use transform="matrix(0.05,0,0,0.05,61.95,0)" xlink:href="#ad"/></g><g id="R"><use transform="matrix(0.06172839506172839,0,0,0.06172839506172839,0,0)" xlink:href="#bw"/><use transform="matrix(0.06172839506172839,0,0,0.06172839506172839,15.987654320987653,0)" xlink:href="#aq"/><use transform="matrix(0.06172839506172839,0,0,0.06172839506172839,28.333333333333332,0)" xlink:href="#aZ"/><use transform="matrix(0.06172839506172839,0,0,0.06172839506172839,40.67901234567901,0)" xlink:href="#al"/><use transform="matrix(0.06172839506172839,0,0,0.06172839506172839,53.02469135802469,0)" xlink:href="#au"/><use transform="matrix(0.06172839506172839,0,0,0.06172839506172839,59.19753086419753,0)" xlink:href="#bd"/><use transform="matrix(0.06172839506172839,0,0,0.06172839506172839,66.54320987654322,0)" xlink:href="#ap"/><use transform="matrix(0.06172839506172839,0,0,0.06172839506172839,77.65432098765433,0)" xlink:href="#bJ"/><use transform="matrix(0.06172839506172839,0,0,0.06172839506172839,93.64197530864199,0)" xlink:href="#am"/><use transform="matrix(0.06172839506172839,0,0,0.06172839506172839,105.98765432098767,0)" xlink:href="#an"/><use transform="matrix(0.06172839506172839,0,0,0.06172839506172839,124.44444444444446,0)" xlink:href="#ai"/></g></defs></g></svg>