<svg xmlns="http://www.w3.org/2000/svg" xmlns:xlink="http://www.w3.org/1999/xlink" xmlns:lucid="lucid" width="952.28" height="1130.54"><g transform="translate(-508.44444444444434 -90.07825198335297)" lucid:page-tab-id="PZI2ajJ7JBqE"><path d="M500 0h1000v1500H500z" fill="#fff"/><path d="M572.9 115.08a5 5 0 0 1 5-5h150a5 5 0 0 1 5 5v90a5 5 0 0 1-5 5h-150a5 5 0 0 1-5-5z" stroke="#000" stroke-width="2" fill="#dfe3e8"/><use xlink:href="#a" transform="matrix(1,0,0,1,584.8888888888887,122.07825198335297) translate(37.05 40.525)"/><path d="M834.67 115.08a5 5 0 0 1 5-5h150a5 5 0 0 1 5 5v90a5 5 0 0 1-5 5h-150a5 5 0 0 1-5-5z" stroke="#000" stroke-width="2" fill="#fff"/><use xlink:href="#b" transform="matrix(1,0,0,1,846.6666666666665,122.07825198335297) translate(24.049999999999997 31.025)"/><use xlink:href="#c" transform="matrix(1,0,0,1,846.6666666666665,122.07825198335297) translate(44.05 52.625)"/><path d="M754.8 161.08h-19.9v-2h19.9zm77.05 0H799.2v-2h32.65z" stroke="#979ea8" stroke-width=".05" fill="#979ea8"/><path d="M734.9 161.08h-1v-2h1z" fill="#979ea8"/><path d="M734.94 161.1h-1.08v-2.05h1.08zm-1.03-2v1.95h1v-1.95zM833.67 160.08L815 171.12l-1.02-1.72 15.76-9.32-15.76-9.32 1.02-1.72z" stroke="#979ea8" stroke-width=".05" fill="#979ea8"/><use xlink:href="#d" transform="matrix(1,0,0,1,754.8024691358024,149.4115853166863) translate(0 14.222222222222223)"/><path d="M832.44 309.33a6 6 0 0 1 6-6H990.9a6 6 0 0 1 6 6v88a6 6 0 0 1-6 6H838.43a6 6 0 0 1-6-6z" stroke="#5e5e5e" stroke-width="6" fill="#fff"/><use xlink:href="#e" transform="matrix(1,0,0,1,837.4444444444443,308.3333333333333) translate(25.709876543209873 48.71527777777778)"/><path d="M914.67 299.33v-3.63m0-7.27v-7.28m0-7.27v-7.27m0-7.26V252.15m0-7.14v-7.13m0-7.14v-7.13m0-7.13v-3.57" stroke="#3a414a" stroke-width="2" fill="none"/><path d="M915.67 300.33h-2v-1.02h2z" stroke="#3a414a" stroke-width=".05" fill="#3a414a"/><path d="M924.85 230.26l-10.18-17.22-10.18 17.22" stroke="#3a414a" stroke-width="2" fill="none"/><path d="M568.44 309.33a6 6 0 0 1 6-6H726.9a6 6 0 0 1 6 6v88a6 6 0 0 1-6 6H574.43a6 6 0 0 1-6-6z" stroke="#5e5e5e" stroke-width="6" fill="#fff"/><use xlink:href="#f" transform="matrix(1,0,0,1,573.4444444444443,308.3333333333333) translate(18.919753086419746 48.71527777777778)"/><path d="M650.67 299.33V295m0-8.63v-8.65m0-8.64v-8.64m0-8.65v-8.65m0-8.64v-8.64m0-8.64v-4.32" stroke="#3a414a" stroke-width="2" fill="none"/><path d="M651.67 300.33h-2v-1.02h2z" stroke="#3a414a" stroke-width=".05" fill="#3a414a"/><path d="M660.85 230.26l-10.18-17.22-10.18 17.22" stroke="#3a414a" stroke-width="2" fill="none"/><path d="M623.78 517.94a6 6 0 0 1 6-6h152.44a6 6 0 0 1 6 6v88a6 6 0 0 1-6 6H629.78a6 6 0 0 1-6-6z" stroke="#5e5e5e" stroke-width="6" fill="#fff"/><use xlink:href="#g" transform="matrix(1,0,0,1,628.777928232905,516.943739501073) translate(68.24074074074073 48.71527777777778)"/><use xlink:href="#h" transform="matrix(1,0,0,1,628.777928232905,516.943739501073) translate(80.58641975308642 48.71527777777778)"/><path d="M1151.56 517.94a6 6 0 0 1 6-6H1310a6 6 0 0 1 6 6v88a6 6 0 0 1-6 6h-152.44a6 6 0 0 1-6-6z" stroke="#5e5e5e" stroke-width="6" fill="#fff"/><use xlink:href="#g" transform="matrix(1,0,0,1,1156.5557060106814,516.943739501073) translate(68.24074074074073 48.71527777777778)"/><use xlink:href="#h" transform="matrix(1,0,0,1,1156.5557060106814,516.943739501073) translate(80.58641975308642 48.71527777777778)"/><path d="M1096.44 309.33a6 6 0 0 1 6-6h152.45a6 6 0 0 1 6 6v88a6 6 0 0 1-6 6h-152.46a6 6 0 0 1-6-6z" stroke="#5e5e5e" stroke-width="6" fill="#fff"/><use xlink:href="#i" transform="matrix(1,0,0,1,1101.4444444444443,308.3333333333333) translate(4.1358024691358395 48.71527777777777)"/><use xlink:href="#j" transform="matrix(1,0,0,1,1101.4444444444443,308.3333333333333) translate(91.66666666666666 48.71527777777777)"/><path d="M1017.95 161.08h-21.28v-2h21.28zm78.23 0h-33.84v-2h33.84z" stroke="#979ea8" stroke-width=".05" fill="#979ea8"/><path d="M996.7 161.08h-1.03v-2h1.02z" fill="#979ea8"/><path d="M996.72 161.1h-1.08v-2.05h1.08zm-1.03-2v1.95h.97v-1.95zM1098 160.08l-18.67 11.04-1.02-1.72 15.77-9.32-15.76-9.32 1.03-1.72z" stroke="#979ea8" stroke-width=".05" fill="#979ea8"/><use xlink:href="#d" transform="matrix(1,0,0,1,1017.9473493314528,149.4115853166863) translate(0 14.222222222222223)"/><path d="M1178.67 299.33v-4.66m0-9.32v-9.32m0-9.32v-9.32m0-9.32v-9.26m0-9.18v-9.18m0-9.2v-9.17m0-9.2v-4.58" stroke="#3a414a" stroke-width="2" fill="none"/><path d="M1179.67 300.33h-2v-1.02h2z" stroke="#3a414a" stroke-width=".05" fill="#3a414a"/><path d="M1188.85 205.65l-10.18-17.22-10.18 17.22" stroke="#3a414a" stroke-width="2" fill="none"/><path d="M1018.35 354.33h-17.46v-2h17.45zm73.28 0h-28.88v-2h28.88z" stroke="#979ea8" stroke-width=".05" fill="#979ea8"/><path d="M1000.9 354.33h-1v-2h1z" fill="#979ea8"/><path d="M1000.94 354.36h-1.08v-2.05h1.08zm-1.03-2v1.95h1v-1.94zM1093.44 353.33l-18.67 11.05-1-1.73 15.75-9.32-15.76-9.32 1-1.7z" stroke="#979ea8" stroke-width=".05" fill="#979ea8"/><use xlink:href="#d" transform="matrix(1,0,0,1,1018.354392816923,342.66666666666663) translate(0 14.222222222222223)"/><path d="M1099 139.7a5 5 0 0 1 5-5h149.33a5 5 0 0 1 5 5v40.77a5 5 0 0 1-5 5H1104a5 5 0 0 1-5-5z" stroke="#000" stroke-width="2" fill="#dfe3e8"/><use xlink:href="#k" transform="matrix(1,0,0,1,1111,146.68704194794105) translate(43.575 17.775)"/><path d="M528.44 757.87a6 6 0 0 1 6-6H686.9a6 6 0 0 1 6 6v38.78a6 6 0 0 1-6 6H534.43a6 6 0 0 1-6-6z" stroke="#5e5e5e" stroke-width="6" fill="#fff"/><use xlink:href="#l" transform="matrix(1,0,0,1,533.4444444444443,756.8654375177202) translate(36.82098765432099 25.46527777777778)"/><path d="M1025.56 757.87a6 6 0 0 1 6-6H1184a6 6 0 0 1 6 6v88a6 6 0 0 1-6 6h-152.44a6 6 0 0 1-6-6z" stroke="#5e5e5e" stroke-width="6" fill="#fff"/><use xlink:href="#m" transform="matrix(1,0,0,1,1030.5557060106814,756.8654375177202) translate(33.08641975308641 48.71527777777778)"/><path d="M915.67 462.98l-.1 1.06-.24 1.07-.42 1.02-.57.94-.7.84-.85.7-.93.58-1.02.42-1.07.26-1.05.08H712.05l-.82.07-.76.2-.73.3-.67.4-.6.5-.5.6-.4.68-.3.72-.2.76-.06.82v32.15h-2V474.9l.08-1.05.26-1.07.42-1.02.58-.93.7-.84.84-.72.94-.58 1.02-.42 1.06-.25 1.06-.1h196.67l.82-.05.76-.18.73-.3.67-.4.6-.52.5-.6.42-.67.3-.7.18-.77.07-.83V461h2zm0-23.33h-2v-32.32h2z" stroke="#979ea8" stroke-width=".05" fill="#979ea8"/><path d="M915.67 407.36h-2v-1.03h2z" fill="#979ea8"/><path d="M915.7 407.38h-2.06v-1.07h2.05zm-2-1.02v.97h1.94v-.97zM717.04 490.27L706 508.94l-11.04-18.67 1.72-1L706 505l9.32-15.76z" stroke="#979ea8" stroke-width=".05" fill="#979ea8"/><use xlink:href="#n" transform="matrix(1,0,0,1,882.5925925925924,439.65228606494185) translate(0 14.222222222222223)"/><use xlink:href="#o" transform="matrix(1,0,0,1,882.5925925925924,439.65228606494185) translate(33.580246913580254 14.222222222222223)"/><path d="M915.67 462.9l.06.83.18.76.3.7.42.68.5.6.6.5.68.42.72.3.76.18.83.06h307.12l1.05.1 1.07.24 1.02.42.93.58.83.7.7.85.6.93.4 1.02.26 1.07.08 1.05v32.23h-2v-32.15l-.07-.82-.17-.76-.3-.72-.4-.67-.52-.6-.6-.5-.65-.4-.73-.3-.76-.2-.82-.06h-307.1l-1.07-.08-1.07-.26-1-.42-.95-.57-.83-.7-.72-.84-.57-.94-.42-1-.25-1.08-.08-1.06v-2h2zm0-23.25h-2v-32.32h2z" stroke="#979ea8" stroke-width=".05" fill="#979ea8"/><path d="M915.67 407.36h-2v-1.03h2z" fill="#979ea8"/><path d="M915.7 407.38h-2.06v-1.07h2.05zm-2-1.02v.97h1.94v-.97zM1244.82 490.27l-11.04 18.67-11.04-18.67 1.72-1 9.32 15.75 9.32-15.76zM612.54 747.96l-1.63-1.16 38.6-54.23h2.47zm93.7-131.62l-39.1 54.9h-2.44l39.9-56.06z" stroke="#979ea8" stroke-width=".05" fill="#979ea8"/><path d="M706.22 616.36l-1.63-1.16.17-.26h2.46z" fill="#979ea8"/><path d="M706.23 616.4l-1.67-1.2.2-.28h2.52zm-1.44-1.43l-.17.22 1.58 1.12.98-1.35zM614.5 727.42l-1.55 18.25 16.73-7.44.8 1.83-19.8 8.8 1.82-21.6z" stroke="#979ea8" stroke-width=".05" fill="#979ea8"/><use xlink:href="#p" transform="matrix(1,0,0,1,637.1235320176869,671.2379218427299) translate(0.004999999999999005 14.222222222222223)"/><path d="M1109.75 748.23l-1.45-1.37 51.07-54.3h2.75zm124.07-131.87l-51.63 54.88h-2.76l52.92-56.25z" stroke="#979ea8" stroke-width=".05" fill="#979ea8"/><path d="M1233.8 616.38l-1.45-1.38 2.8-.06z" fill="#979ea8"/><path d="M1233.8 616.4l-1.5-1.42 2.9-.06zm-1.4-1.37l1.4 1.3 1.3-1.36zM1114.48 728.14l-4 17.86 17.58-5.1.55 1.93-20.82 6.03 4.75-21.16z" stroke="#979ea8" stroke-width=".05" fill="#979ea8"/><use xlink:href="#p" transform="matrix(1,0,0,1,1149.5680516896937,671.2379218427299) translate(0.004999999999999005 14.222222222222223)"/><path d="M1276.28 757.87a6 6 0 0 1 6-6h152.44a6 6 0 0 1 6 6v88a6 6 0 0 1-6 6h-152.44a6 6 0 0 1-6-6z" stroke="#5e5e5e" stroke-width="6" fill="#fff"/><use xlink:href="#q" transform="matrix(1,0,0,1,1281.2778906191215,756.8654375177202) translate(62.68518518518518 37.46527777777778)"/><use xlink:href="#r" transform="matrix(1,0,0,1,1281.2778906191215,756.8654375177202) translate(15.246913580246904 64.13194444444446)"/><path d="M1358 746.85l-1.47 1.37-51.82-55.65h2.74zm-70.43-75.6h-2.73l-51.1-54.9 1.45-1.36z" stroke="#979ea8" stroke-width=".05" fill="#979ea8"/><path d="M1235.2 615l-1.46 1.38-1.33-1.44h2.74z" fill="#979ea8"/><path d="M1235.24 615l-1.5 1.4-1.4-1.48h2.82zm-2.77-.03l1.28 1.37 1.42-1.33-.04-.03zM1358.5 748.87l-20.8-6.14.56-1.92 17.56 5.2-3.92-17.9 1.96-.42z" stroke="#979ea8" stroke-width=".05" fill="#979ea8"/><use xlink:href="#s" transform="matrix(1,0,0,1,1238.9291439939138,671.2379218427299) translate(0.005000000000002558 14.222222222222223)"/><use xlink:href="#t" transform="matrix(1,0,0,1,1238.9291439939138,671.2379218427299) translate(80.84450617283952 14.222222222222223)"/><path d="M1280.72 1105.62a5 5 0 0 1 5-5h150a5 5 0 0 1 5 5v90a5 5 0 0 1-5 5h-150a5 5 0 0 1-5-5z" stroke="#000" stroke-width="2" fill="#dfe3e8"/><use xlink:href="#u" transform="matrix(1,0,0,1,1292.7223350635659,1112.6174360527757) translate(34.525 40.525)"/><path d="M1021.67 802.34l-3.57 1.9m-7.16 3.82l-7.16 3.8m-7.15 3.82l-7.16 3.82m-7.16 3.8l-7.14 3.83m-7.16 3.8l-7.16 3.83m-7.16 3.8l-7.15 3.82m-7.16 3.82l-7.15 3.8m-7.16 3.83l-7.16 3.8m-7.15 3.82l-7.16 3.82m-7.17 3.8l-7.15 3.83m-7.16 3.8l-7.16 3.82m-7.16 3.82l-7.15 3.8m-7.16 3.83l-7.16 3.8m-7.16 3.83l-7.16 3.8m-7.15 3.82l-7.16 3.82m-7.15 3.8l-7.15 3.82m-7.16 3.82l-3.58 1.9" stroke="#3a414a" stroke-width="2" fill="none"/><path d="M1022.56 803l-.44.23-.94-1.76 1.38-.74z" stroke="#3a414a" stroke-width=".05" fill="#3a414a"/><path d="M803.2 907.24l-10.4 17.08 19.97.9M1358.5 855.87v4.03m0 8.06v8.07m0 8.06v8.05m0 8.07v8.06m0 8.07v8.06m0 8.08v8.06m0 8.07v8.07m0 8.07v8.06m0 8.07v8.06m0 8.06v8.06m0 8.06v8.07m0 8.05v8.07m0 8.06v8.06m0 8.07v8.07m0 8.07v8.06m0 8.07v4.03" stroke="#3a414a" stroke-width="2" fill="none"/><path d="M1359.5 855.9h-2v-1.03h2z" stroke="#3a414a" stroke-width=".05" fill="#3a414a"/><path d="M1348.32 1080.44l10.18 17.2 10.18-17.2" stroke="#3a414a" stroke-width="2" fill="none"/><path d="M530.67 931.24a5 5 0 0 1 5-5h150a5 5 0 0 1 5 5v40.78a5 5 0 0 1-5 5h-150a5 5 0 0 1-5-5z" stroke="#000" stroke-width="2" fill="#dfe3e8"/><use xlink:href="#k" transform="matrix(1,0,0,1,542.6666666666665,938.241436785248) translate(43.575 17.775)"/><path d="M610.67 806.65v4.17m0 8.34v8.34m0 8.34v8.34m0 8.34v8.35m0 8.34v8.35m0 8.34v8.33m0 8.34v8.34m0 8.35v4.17" stroke="#3a414a" stroke-width="2" fill="none"/><path d="M611.67 806.67h-2v-1.02h2z" stroke="#3a414a" stroke-width=".05" fill="#3a414a"/><path d="M600.5 906.06l10.17 17.22 10.18-17.22" stroke="#3a414a" stroke-width="2" fill="none"/><path d="M711.06 757.87a6 6 0 0 1 6-6H869.5a6 6 0 0 1 6 6v88a6 6 0 0 1-6 6H717.06a6 6 0 0 1-6-6z" stroke="#5e5e5e" stroke-width="6" fill="#fff"/><use xlink:href="#q" transform="matrix(1,0,0,1,716.0555931693368,756.8654375177202) translate(62.68518518518518 37.46527777777778)"/><use xlink:href="#v" transform="matrix(1,0,0,1,716.0555931693368,756.8654375177202) translate(9.722222222222214 64.13194444444446)"/><path d="M793.12 746.8l-1.67 1.1-36.05-55.33h2.38zm-49.24-75.56h-2.4l-35.77-54.9 1.68-1.1z" stroke="#979ea8" stroke-width=".05" fill="#979ea8"/><path d="M707.4 615.26l-1.68 1.1-.9-1.42h2.37z" fill="#979ea8"/><path d="M707.43 615.26l-1.7 1.12-.97-1.46h2.45zm-2.58-.3l.88 1.35 1.63-1.05-.18-.28zM793.28 748.87l-19.45-9.62.9-1.8 16.4 8.12-.8-18.3 2-.07z" stroke="#979ea8" stroke-width=".05" fill="#979ea8"/><use xlink:href="#s" transform="matrix(1,0,0,1,692.4291063801331,671.2379218427299) translate(0.005000000000002558 14.222222222222223)"/><use xlink:href="#t" transform="matrix(1,0,0,1,692.4291063801331,671.2379218427299) translate(80.84450617283952 14.222222222222223)"/><path d="M751.8 354.33h-14.9v-2h14.9zm75.83 0H796.2v-2h31.43z" stroke="#979ea8" stroke-width=".05" fill="#979ea8"/><path d="M736.9 354.33h-1v-2h1z" fill="#979ea8"/><path d="M736.94 354.36h-1.08v-2.05h1.08zm-1.03-2v1.95h1v-1.94zM829.44 353.33l-18.67 11.05-1-1.73 15.75-9.32-15.76-9.32 1-1.7z" stroke="#979ea8" stroke-width=".05" fill="#979ea8"/><use xlink:href="#d" transform="matrix(1,0,0,1,751.8024691358024,342.66666666666663) translate(0 14.222222222222223)"/><path d="M925.56 1106.62a6 6 0 0 1 6-6H1084a6 6 0 0 1 6 6v38.78a6 6 0 0 1-6 6H931.56a6 6 0 0 1-6-6z" stroke="#5e5e5e" stroke-width="6" fill="#fff"/><use xlink:href="#w" transform="matrix(1,0,0,1,930.5557060106812,1105.6174360527757) translate(47.90123456790124 25.46527777777778)"/><path d="M1008.78 1095.8h-2v-26.17h2zm0-47.5h-2v-18.06h2z" stroke="#979ea8" stroke-width=".05" fill="#979ea8"/><path d="M1008.78 1030.27h-2v-1.03h2z" fill="#979ea8"/><path d="M1008.8 1030.3h-2.05v-1.08h2.05zm-2-1.03v.97h1.95v-.97zM1018.82 1078.95l-11.04 18.67-11.04-18.67 1.72-1.02 9.32 15.76 9.32-15.77z" stroke="#979ea8" stroke-width=".05" fill="#979ea8"/><use xlink:href="#x" transform="matrix(1,0,0,1,986.5680516896936,1048.293748037822) translate(0 14.222222222222223)"/><path d="M921.56 1126H911.4m-10.17 0H880.9m-10.16 0H850.4m-10.15 0h-20.32m-10.17 0h-20.32m-10.17 0h-20.32m-10.17 0h-20.32m-10.16 0h-20.33m-10.16 0H667.5m-10.16 0H637m-10.17 0h-10.16l-.94-.07-.92-.22-.86-.35-.8-.5-.72-.6-.6-.7-.5-.82-.36-.87-.22-.9-.07-.95v-9.34m0-9.34v-18.7m0-9.33v-18.7m0-9.35v-18.7m0-9.33v-18.7m0-9.33v-9.36" stroke="#3a414a" stroke-width="2" fill="none"/><path d="M922.56 1127h-1.03v-2h1.03z" stroke="#3a414a" stroke-width=".05" fill="#3a414a"/><path d="M620.85 997.2L610.67 980l-10.18 17.2" stroke="#3a414a" stroke-width="2" fill="none"/><path d="M925.56 932.24a6 6 0 0 1 6-6H1084a6 6 0 0 1 6 6v88a6 6 0 0 1-6 6H931.56a6 6 0 0 1-6-6z" stroke="#5e5e5e" stroke-width="6" fill="#fff"/><use xlink:href="#g" transform="matrix(1,0,0,1,930.5557060106814,931.241436785248) translate(68.24074074074073 48.71527777777778)"/><use xlink:href="#h" transform="matrix(1,0,0,1,930.5557060106814,931.241436785248) translate(80.58641975308642 48.71527777777778)"/><path d="M711.06 931.24a5 5 0 0 1 5-5h150a5 5 0 0 1 5 5v90a5 5 0 0 1-5 5h-150a5 5 0 0 1-5-5z" stroke="#000" stroke-width="2" fill="#fff"/><use xlink:href="#b" transform="matrix(1,0,0,1,723.0555931693368,938.241436785248) translate(24.049999999999997 31.025)"/><use xlink:href="#c" transform="matrix(1,0,0,1,723.0555931693368,938.241436785248) translate(44.05 52.625)"/><path d="M1009.84 923.04l-1.13-1.65 38.24-26.15h3.55zm97.68-66.78l-25.83 17.66h-3.56l28.25-19.32z" stroke="#979ea8" stroke-width=".05" fill="#979ea8"/><path d="M1107.5 856.27l-.96-1.4h3z" fill="#979ea8"/><path d="M1107.5 856.3l-1-1.46h3.13zm-.92-1.4l.92 1.34 1.97-1.35zM1018.77 904.43l-7.75 16.6 18.27-1.2.12 2-21.64 1.4 9.18-19.64z" stroke="#979ea8" stroke-width=".05" fill="#979ea8"/><use xlink:href="#n" transform="matrix(1,0,0,1,1032.239795463462,873.9177487702945) translate(0 14.222222222222223)"/><use xlink:href="#o" transform="matrix(1,0,0,1,1032.239795463462,873.9177487702945) translate(33.580246913580254 14.222222222222223)"/><path d="M1113.78 932.24a6 6 0 0 1 6-6h152.44a6 6 0 0 1 6 6v88a6 6 0 0 1-6 6h-152.44a6 6 0 0 1-6-6z" stroke="#5e5e5e" stroke-width="6" fill="#fff"/><g><use xlink:href="#q" transform="matrix(1,0,0,1,1118.7777777777778,931.241436785248) translate(62.68518518518518 23.40277777777778)"/><use xlink:href="#y" transform="matrix(1,0,0,1,1118.7777777777778,931.241436785248) translate(15.246913580246904 50.06944444444445)"/><use xlink:href="#z" transform="matrix(1,0,0,1,1118.7777777777778,931.241436785248) translate(47.9320987654321 76.73611111111111)"/></g><path d="M1195.18 921.34l-1.23 1.58-29.93-23.2h3.26zm-55.42-42.95h-3.27l-28.54-22.13 1.22-1.58z" stroke="#979ea8" stroke-width=".05" fill="#979ea8"/><path d="M1107.98 856.28l-1.83-1.4h2.93z" fill="#979ea8"/><path d="M1107.98 856.32l-1.9-1.48h3.05zm-1.76-1.43l1.75 1.35 1.06-1.36zM1196 923.24l-21.52-2.7.25-2 18.16 2.3-6.75-17.03 1.86-.72z" stroke="#979ea8" stroke-width=".05" fill="#979ea8"/><g><use xlink:href="#s" transform="matrix(1,0,0,1,1094.679087573242,878.3867704848172) translate(0.005000000000002558 14.222222222222223)"/><use xlink:href="#t" transform="matrix(1,0,0,1,1094.679087573242,878.3867704848172) translate(80.84450617283952 14.222222222222223)"/></g><path d="M1196 1030.24v4.1m0 8.16v8.17m0 8.16v8.18m0 8.17v8.17m0 8.17v8.18m0 8.17v8.17m0 8.17v8.16m0 8.17v4.1l.07.93.22.9.35.88.5.8.6.72.72.6.8.5.88.36.9.22.95.08h3.8m7.6 0h7.58m7.6 0h7.58m7.6 0h7.58m7.6 0h7.58m7.6 0h3.78" stroke="#3a414a" stroke-width="2" fill="none"/><path d="M1197 1030.27h-2v-1.03h2z" stroke="#3a414a" stroke-width=".05" fill="#3a414a"/><path d="M1260.54 1160.8l17.22-10.18-17.22-10.18" stroke="#3a414a" stroke-width="2" fill="none"/><defs><path d="M63-220v92h138v28H63V0H30v-248h175v28H63" id="A"/><path d="M100-194c63 0 86 42 84 106H49c0 40 14 67 53 68 26 1 43-12 49-29l28 8c-11 28-37 45-77 45C44 4 14-33 15-96c1-61 26-98 85-98zm52 81c6-60-76-77-97-28-3 7-6 17-6 28h103" id="B"/><path d="M141-36C126-15 110 5 73 4 37 3 15-17 15-53c-1-64 63-63 125-63 3-35-9-54-41-54-24 1-41 7-42 31l-33-3c5-37 33-52 76-52 45 0 72 20 72 64v82c-1 20 7 32 28 27v20c-31 9-61-2-59-35zM48-53c0 20 12 33 32 33 41-3 63-29 60-74-43 2-92-5-92 41" id="C"/><path d="M59-47c-2 24 18 29 38 22v24C64 9 27 4 27-40v-127H5v-23h24l9-43h21v43h35v23H59v120" id="D"/><path d="M84 4C-5 8 30-112 23-190h32v120c0 31 7 50 39 49 72-2 45-101 50-169h31l1 190h-30c-1-10 1-25-2-33-11 22-28 36-60 37" id="E"/><path d="M114-163C36-179 61-72 57 0H25l-1-190h30c1 12-1 29 2 39 6-27 23-49 58-41v29" id="F"/><g id="a"><use transform="matrix(0.05,0,0,0.05,0,0)" xlink:href="#A"/><use transform="matrix(0.05,0,0,0.05,10.950000000000001,0)" xlink:href="#B"/><use transform="matrix(0.05,0,0,0.05,20.950000000000003,0)" xlink:href="#C"/><use transform="matrix(0.05,0,0,0.05,30.950000000000003,0)" xlink:href="#D"/><use transform="matrix(0.05,0,0,0.05,35.95,0)" xlink:href="#E"/><use transform="matrix(0.05,0,0,0.05,45.95,0)" xlink:href="#F"/><use transform="matrix(0.05,0,0,0.05,51.900000000000006,0)" xlink:href="#B"/></g><path d="M212-179c-10-28-35-45-73-45-59 0-87 40-87 99 0 60 29 101 89 101 43 0 62-24 78-52l27 14C228-24 195 4 139 4 59 4 22-46 18-125c-6-104 99-153 187-111 19 9 31 26 39 46" id="G"/><path d="M100-194c62-1 85 37 85 99 1 63-27 99-86 99S16-35 15-95c0-66 28-99 85-99zM99-20c44 1 53-31 53-75 0-43-8-75-51-75s-53 32-53 75 10 74 51 75" id="H"/><path d="M210-169c-67 3-38 105-44 169h-31v-121c0-29-5-50-35-48C34-165 62-65 56 0H25l-1-190h30c1 10-1 24 2 32 10-44 99-50 107 0 11-21 27-35 58-36 85-2 47 119 55 194h-31v-121c0-29-5-49-35-48" id="I"/><path d="M115-194c55 1 70 41 70 98S169 2 115 4C84 4 66-9 55-30l1 105H24l-1-265h31l2 30c10-21 28-34 59-34zm-8 174c40 0 45-34 45-75s-6-73-45-74c-42 0-51 32-51 76 0 43 10 73 51 73" id="J"/><path d="M117-194c89-4 53 116 60 194h-32v-121c0-31-8-49-39-48C34-167 62-67 57 0H25l-1-190h30c1 10-1 24 2 32 11-22 29-35 61-36" id="K"/><path d="M85-194c31 0 48 13 60 33l-1-100h32l1 261h-30c-2-10 0-23-3-31C134-8 116 4 85 4 32 4 16-35 15-94c0-66 23-100 70-100zm9 24c-40 0-46 34-46 75 0 40 6 74 45 74 42 0 51-32 51-76 0-42-9-74-50-73" id="L"/><g id="b"><use transform="matrix(0.05,0,0,0.05,0,0)" xlink:href="#G"/><use transform="matrix(0.05,0,0,0.05,12.950000000000001,0)" xlink:href="#H"/><use transform="matrix(0.05,0,0,0.05,22.950000000000003,0)" xlink:href="#I"/><use transform="matrix(0.05,0,0,0.05,37.900000000000006,0)" xlink:href="#J"/><use transform="matrix(0.05,0,0,0.05,47.900000000000006,0)" xlink:href="#H"/><use transform="matrix(0.05,0,0,0.05,57.900000000000006,0)" xlink:href="#E"/><use transform="matrix(0.05,0,0,0.05,67.9,0)" xlink:href="#K"/><use transform="matrix(0.05,0,0,0.05,77.9,0)" xlink:href="#L"/></g><path d="M190 0L58-211 59 0H30v-248h39L202-35l-2-213h31V0h-41" id="M"/><g id="c"><use transform="matrix(0.05,0,0,0.05,0,0)" xlink:href="#M"/><use transform="matrix(0.05,0,0,0.05,12.950000000000001,0)" xlink:href="#C"/><use transform="matrix(0.05,0,0,0.05,22.950000000000003,0)" xlink:href="#I"/><use transform="matrix(0.05,0,0,0.05,37.900000000000006,0)" xlink:href="#B"/></g><path fill="#6f7681" d="M117-194c89-4 53 116 60 194h-32v-121c0-31-8-49-39-48C34-167 62-67 57 0H25l-1-190h30c1 10-1 24 2 32 11-22 29-35 61-36" id="N"/><path fill="#6f7681" d="M141-36C126-15 110 5 73 4 37 3 15-17 15-53c-1-64 63-63 125-63 3-35-9-54-41-54-24 1-41 7-42 31l-33-3c5-37 33-52 76-52 45 0 72 20 72 64v82c-1 20 7 32 28 27v20c-31 9-61-2-59-35zM48-53c0 20 12 33 32 33 41-3 63-29 60-74-43 2-92-5-92 41" id="O"/><path fill="#6f7681" d="M210-169c-67 3-38 105-44 169h-31v-121c0-29-5-50-35-48C34-165 62-65 56 0H25l-1-190h30c1 10-1 24 2 32 10-44 99-50 107 0 11-21 27-35 58-36 85-2 47 119 55 194h-31v-121c0-29-5-49-35-48" id="P"/><path fill="#6f7681" d="M100-194c63 0 86 42 84 106H49c0 40 14 67 53 68 26 1 43-12 49-29l28 8c-11 28-37 45-77 45C44 4 14-33 15-96c1-61 26-98 85-98zm52 81c6-60-76-77-97-28-3 7-6 17-6 28h103" id="Q"/><g id="d"><use transform="matrix(0.04938271604938272,0,0,0.04938271604938272,0,0)" xlink:href="#N"/><use transform="matrix(0.04938271604938272,0,0,0.04938271604938272,9.876543209876544,0)" xlink:href="#O"/><use transform="matrix(0.04938271604938272,0,0,0.04938271604938272,19.75308641975309,0)" xlink:href="#P"/><use transform="matrix(0.04938271604938272,0,0,0.04938271604938272,34.51851851851852,0)" xlink:href="#Q"/></g><path fill="#333" d="M100-194c63 0 86 42 84 106H49c0 40 14 67 53 68 26 1 43-12 49-29l28 8c-11 28-37 45-77 45C44 4 14-33 15-96c1-61 26-98 85-98zm52 81c6-60-76-77-97-28-3 7-6 17-6 28h103" id="R"/><path fill="#333" d="M141 0L90-78 38 0H4l68-98-65-92h35l48 74 47-74h35l-64 92 68 98h-35" id="S"/><path fill="#333" d="M33-154v-36h34v36H33zM33 0v-36h34V0H33" id="T"/><path fill="#333" d="M117-194c89-4 53 116 60 194h-32v-121c0-31-8-49-39-48C34-167 62-67 57 0H25l-1-190h30c1 10-1 24 2 32 11-22 29-35 61-36" id="U"/><path fill="#333" d="M141-36C126-15 110 5 73 4 37 3 15-17 15-53c-1-64 63-63 125-63 3-35-9-54-41-54-24 1-41 7-42 31l-33-3c5-37 33-52 76-52 45 0 72 20 72 64v82c-1 20 7 32 28 27v20c-31 9-61-2-59-35zM48-53c0 20 12 33 32 33 41-3 63-29 60-74-43 2-92-5-92 41" id="V"/><path fill="#333" d="M210-169c-67 3-38 105-44 169h-31v-121c0-29-5-50-35-48C34-165 62-65 56 0H25l-1-190h30c1 10-1 24 2 32 10-44 99-50 107 0 11-21 27-35 58-36 85-2 47 119 55 194h-31v-121c0-29-5-49-35-48" id="W"/><path fill="#333" d="M16-82v-28h88v28H16" id="X"/><path fill="#333" d="M179-190L93 31C79 59 56 82 12 73V49c39 6 53-20 64-50L1-190h34L92-34l54-156h33" id="Y"/><g id="e"><use transform="matrix(0.06172839506172839,0,0,0.06172839506172839,0,0)" xlink:href="#R"/><use transform="matrix(0.06172839506172839,0,0,0.06172839506172839,12.345679012345679,0)" xlink:href="#S"/><use transform="matrix(0.06172839506172839,0,0,0.06172839506172839,23.45679012345679,0)" xlink:href="#T"/><use transform="matrix(0.06172839506172839,0,0,0.06172839506172839,29.62962962962963,0)" xlink:href="#U"/><use transform="matrix(0.06172839506172839,0,0,0.06172839506172839,41.97530864197531,0)" xlink:href="#V"/><use transform="matrix(0.06172839506172839,0,0,0.06172839506172839,54.32098765432099,0)" xlink:href="#W"/><use transform="matrix(0.06172839506172839,0,0,0.06172839506172839,72.77777777777777,0)" xlink:href="#R"/><use transform="matrix(0.06172839506172839,0,0,0.06172839506172839,85.12345679012346,0)" xlink:href="#X"/><use transform="matrix(0.06172839506172839,0,0,0.06172839506172839,92.46913580246914,0)" xlink:href="#Y"/></g><path fill="#333" d="M101-234c-31-9-42 10-38 44h38v23H63V0H32v-167H5v-23h27c-7-52 17-82 69-68v24" id="Z"/><path fill="#333" d="M59-47c-2 24 18 29 38 22v24C64 9 27 4 27-40v-127H5v-23h24l9-43h21v43h35v23H59v120" id="aa"/><path fill="#333" d="M84 4C-5 8 30-112 23-190h32v120c0 31 7 50 39 49 72-2 45-101 50-169h31l1 190h-30c-1-10 1-25-2-33-11 22-28 36-60 37" id="ab"/><path fill="#333" d="M114-163C36-179 61-72 57 0H25l-1-190h30c1 12-1 29 2 39 6-27 23-49 58-41v29" id="ac"/><g id="f"><use transform="matrix(0.06172839506172839,0,0,0.06172839506172839,0,0)" xlink:href="#R"/><use transform="matrix(0.06172839506172839,0,0,0.06172839506172839,12.345679012345679,0)" xlink:href="#S"/><use transform="matrix(0.06172839506172839,0,0,0.06172839506172839,23.45679012345679,0)" xlink:href="#T"/><use transform="matrix(0.06172839506172839,0,0,0.06172839506172839,29.62962962962963,0)" xlink:href="#Z"/><use transform="matrix(0.06172839506172839,0,0,0.06172839506172839,35.80246913580247,0)" xlink:href="#R"/><use transform="matrix(0.06172839506172839,0,0,0.06172839506172839,48.148148148148145,0)" xlink:href="#V"/><use transform="matrix(0.06172839506172839,0,0,0.06172839506172839,60.49382716049382,0)" xlink:href="#aa"/><use transform="matrix(0.06172839506172839,0,0,0.06172839506172839,66.66666666666666,0)" xlink:href="#ab"/><use transform="matrix(0.06172839506172839,0,0,0.06172839506172839,79.01234567901234,0)" xlink:href="#ac"/><use transform="matrix(0.06172839506172839,0,0,0.06172839506172839,86.35802469135803,0)" xlink:href="#R"/><use transform="matrix(0.06172839506172839,0,0,0.06172839506172839,98.70370370370371,0)" xlink:href="#X"/><use transform="matrix(0.06172839506172839,0,0,0.06172839506172839,106.0493827160494,0)" xlink:href="#S"/></g><path fill="#333" d="M26 75v-336h71v23H56V52h41v23H26" id="ad"/><use transform="matrix(0.06172839506172839,0,0,0.06172839506172839,0,0)" xlink:href="#ad" id="g"/><path fill="#333" d="M3 75V52h41v-290H3v-23h71V75H3" id="ae"/><use transform="matrix(0.06172839506172839,0,0,0.06172839506172839,0,0)" xlink:href="#ae" id="h"/><path fill="#3a414a" d="M240 0l2-218c-23 76-54 145-80 218h-23L58-218 59 0H30v-248h44l77 211c21-75 51-140 76-211h43V0h-30" id="af"/><path fill="#3a414a" d="M100-194c62-1 85 37 85 99 1 63-27 99-86 99S16-35 15-95c0-66 28-99 85-99zM99-20c44 1 53-31 53-75 0-43-8-75-51-75s-53 32-53 75 10 74 51 75" id="ag"/><path fill="#3a414a" d="M114-163C36-179 61-72 57 0H25l-1-190h30c1 12-1 29 2 39 6-27 23-49 58-41v29" id="ah"/><path fill="#3a414a" d="M100-194c63 0 86 42 84 106H49c0 40 14 67 53 68 26 1 43-12 49-29l28 8c-11 28-37 45-77 45C44 4 14-33 15-96c1-61 26-98 85-98zm52 81c6-60-76-77-97-28-3 7-6 17-6 28h103" id="ai"/><path fill="#3a414a" d="M59-47c-2 24 18 29 38 22v24C64 9 27 4 27-40v-127H5v-23h24l9-43h21v43h35v23H59v120" id="aj"/><path fill="#3a414a" d="M117-194c89-4 53 116 60 194h-32v-121c0-31-8-49-39-48C34-167 62-67 57 0H25l-1-190h30c1 10-1 24 2 32 11-22 29-35 61-36" id="ak"/><g id="i"><use transform="matrix(0.06172839506172837,0,0,0.06172839506172837,0,0)" xlink:href="#af"/><use transform="matrix(0.06172839506172837,0,0,0.06172839506172837,18.456790123456784,0)" xlink:href="#ag"/><use transform="matrix(0.06172839506172837,0,0,0.06172839506172837,30.802469135802458,0)" xlink:href="#ah"/><use transform="matrix(0.06172839506172837,0,0,0.06172839506172837,38.14814814814813,0)" xlink:href="#ai"/><use transform="matrix(0.06172839506172837,0,0,0.06172839506172837,50.49382716049381,0)" xlink:href="#aj"/><use transform="matrix(0.06172839506172837,0,0,0.06172839506172837,56.66666666666664,0)" xlink:href="#ag"/><use transform="matrix(0.06172839506172837,0,0,0.06172839506172837,69.01234567901231,0)" xlink:href="#ak"/></g><path fill="#3a414a" d="M33 0v-248h34V0H33" id="al"/><path fill="#3a414a" d="M135-143c-3-34-86-38-87 0 15 53 115 12 119 90S17 21 10-45l28-5c4 36 97 45 98 0-10-56-113-15-118-90-4-57 82-63 122-42 12 7 21 19 24 35" id="am"/><path fill="#3a414a" d="M24 0v-261h32V0H24" id="an"/><path fill="#3a414a" d="M141-36C126-15 110 5 73 4 37 3 15-17 15-53c-1-64 63-63 125-63 3-35-9-54-41-54-24 1-41 7-42 31l-33-3c5-37 33-52 76-52 45 0 72 20 72 64v82c-1 20 7 32 28 27v20c-31 9-61-2-59-35zM48-53c0 20 12 33 32 33 41-3 63-29 60-74-43 2-92-5-92 41" id="ao"/><path fill="#3a414a" d="M85-194c31 0 48 13 60 33l-1-100h32l1 261h-30c-2-10 0-23-3-31C134-8 116 4 85 4 32 4 16-35 15-94c0-66 23-100 70-100zm9 24c-40 0-46 34-46 75 0 40 6 74 45 74 42 0 51-32 51-76 0-42-9-74-50-73" id="ap"/><g id="j"><use transform="matrix(0.06172839506172837,0,0,0.06172839506172837,0,0)" xlink:href="#al"/><use transform="matrix(0.06172839506172837,0,0,0.06172839506172837,6.172839506172837,0)" xlink:href="#am"/><use transform="matrix(0.06172839506172837,0,0,0.06172839506172837,17.283950617283942,0)" xlink:href="#an"/><use transform="matrix(0.06172839506172837,0,0,0.06172839506172837,22.160493827160483,0)" xlink:href="#ao"/><use transform="matrix(0.06172839506172837,0,0,0.06172839506172837,34.506172839506156,0)" xlink:href="#ak"/><use transform="matrix(0.06172839506172837,0,0,0.06172839506172837,46.85185185185183,0)" xlink:href="#ap"/></g><path d="M30 0v-248h33v221h125V0H30" id="aq"/><path d="M24-231v-30h32v30H24zM24 0v-190h32V0H24" id="ar"/><path d="M24 0v-261h32V0H24" id="as"/><g id="k"><use transform="matrix(0.05,0,0,0.05,0,0)" xlink:href="#aq"/><use transform="matrix(0.05,0,0,0.05,10,0)" xlink:href="#ar"/><use transform="matrix(0.05,0,0,0.05,13.949999999999998,0)" xlink:href="#D"/><use transform="matrix(0.05,0,0,0.05,18.95,0)" xlink:href="#B"/><use transform="matrix(0.05,0,0,0.05,28.950000000000003,0)" xlink:href="#F"/><use transform="matrix(0.05,0,0,0.05,34.9,0)" xlink:href="#C"/><use transform="matrix(0.05,0,0,0.05,44.9,0)" xlink:href="#as"/></g><path fill="#333" d="M240 0l2-218c-23 76-54 145-80 218h-23L58-218 59 0H30v-248h44l77 211c21-75 51-140 76-211h43V0h-30" id="at"/><path fill="#333" d="M100-194c62-1 85 37 85 99 1 63-27 99-86 99S16-35 15-95c0-66 28-99 85-99zM99-20c44 1 53-31 53-75 0-43-8-75-51-75s-53 32-53 75 10 74 51 75" id="au"/><g id="l"><use transform="matrix(0.06172839506172839,0,0,0.06172839506172839,0,0)" xlink:href="#at"/><use transform="matrix(0.06172839506172839,0,0,0.06172839506172839,18.456790123456788,0)" xlink:href="#au"/><use transform="matrix(0.06172839506172839,0,0,0.06172839506172839,30.80246913580247,0)" xlink:href="#ac"/><use transform="matrix(0.06172839506172839,0,0,0.06172839506172839,38.148148148148145,0)" xlink:href="#R"/><use transform="matrix(0.06172839506172839,0,0,0.06172839506172839,50.49382716049382,0)" xlink:href="#aa"/><use transform="matrix(0.06172839506172839,0,0,0.06172839506172839,56.666666666666664,0)" xlink:href="#au"/><use transform="matrix(0.06172839506172839,0,0,0.06172839506172839,69.01234567901234,0)" xlink:href="#U"/></g><path fill="#333" d="M33 0v-248h34V0H33" id="av"/><path fill="#333" d="M135-143c-3-34-86-38-87 0 15 53 115 12 119 90S17 21 10-45l28-5c4 36 97 45 98 0-10-56-113-15-118-90-4-57 82-63 122-42 12 7 21 19 24 35" id="aw"/><path fill="#333" d="M24 0v-261h32V0H24" id="ax"/><path fill="#333" d="M85-194c31 0 48 13 60 33l-1-100h32l1 261h-30c-2-10 0-23-3-31C134-8 116 4 85 4 32 4 16-35 15-94c0-66 23-100 70-100zm9 24c-40 0-46 34-46 75 0 40 6 74 45 74 42 0 51-32 51-76 0-42-9-74-50-73" id="ay"/><g id="m"><use transform="matrix(0.06172839506172839,0,0,0.06172839506172839,0,0)" xlink:href="#R"/><use transform="matrix(0.06172839506172839,0,0,0.06172839506172839,12.345679012345679,0)" xlink:href="#S"/><use transform="matrix(0.06172839506172839,0,0,0.06172839506172839,23.45679012345679,0)" xlink:href="#T"/><use transform="matrix(0.06172839506172839,0,0,0.06172839506172839,29.62962962962963,0)" xlink:href="#av"/><use transform="matrix(0.06172839506172839,0,0,0.06172839506172839,35.80246913580247,0)" xlink:href="#aw"/><use transform="matrix(0.06172839506172839,0,0,0.06172839506172839,46.91358024691358,0)" xlink:href="#ax"/><use transform="matrix(0.06172839506172839,0,0,0.06172839506172839,51.79012345679013,0)" xlink:href="#V"/><use transform="matrix(0.06172839506172839,0,0,0.06172839506172839,64.13580246913581,0)" xlink:href="#U"/><use transform="matrix(0.06172839506172839,0,0,0.06172839506172839,76.4814814814815,0)" xlink:href="#ay"/></g><path fill="#6f7681" d="M106-169C34-169 62-67 57 0H25v-261h32l-1 103c12-21 28-36 61-36 89 0 53 116 60 194h-32v-121c2-32-8-49-39-48" id="az"/><path fill="#6f7681" d="M135-143c-3-34-86-38-87 0 15 53 115 12 119 90S17 21 10-45l28-5c4 36 97 45 98 0-10-56-113-15-118-90-4-57 82-63 122-42 12 7 21 19 24 35" id="aA"/><g id="n"><use transform="matrix(0.04938271604938272,0,0,0.04938271604938272,0,0)" xlink:href="#az"/><use transform="matrix(0.04938271604938272,0,0,0.04938271604938272,9.876543209876544,0)" xlink:href="#O"/><use transform="matrix(0.04938271604938272,0,0,0.04938271604938272,19.75308641975309,0)" xlink:href="#aA"/></g><path fill="#6f7681" d="M115-194c55 1 70 41 70 98S169 2 115 4C84 4 66-9 55-30l1 105H24l-1-265h31l2 30c10-21 28-34 59-34zm-8 174c40 0 45-34 45-75s-6-73-45-74c-42 0-51 32-51 76 0 43 10 73 51 73" id="aB"/><path fill="#6f7681" d="M114-163C36-179 61-72 57 0H25l-1-190h30c1 12-1 29 2 39 6-27 23-49 58-41v29" id="aC"/><path fill="#6f7681" d="M59-47c-2 24 18 29 38 22v24C64 9 27 4 27-40v-127H5v-23h24l9-43h21v43h35v23H59v120" id="aD"/><g id="o"><use transform="matrix(0.04938271604938272,0,0,0.04938271604938272,0,0)" xlink:href="#aB"/><use transform="matrix(0.04938271604938272,0,0,0.04938271604938272,9.876543209876544,0)" xlink:href="#O"/><use transform="matrix(0.04938271604938272,0,0,0.04938271604938272,19.75308641975309,0)" xlink:href="#aC"/><use transform="matrix(0.04938271604938272,0,0,0.04938271604938272,25.629629629629633,0)" xlink:href="#aD"/></g><path fill="#979ea8" d="M108 0H70L1-190h34L89-25l56-165h34" id="aE"/><path fill="#979ea8" d="M141-36C126-15 110 5 73 4 37 3 15-17 15-53c-1-64 63-63 125-63 3-35-9-54-41-54-24 1-41 7-42 31l-33-3c5-37 33-52 76-52 45 0 72 20 72 64v82c-1 20 7 32 28 27v20c-31 9-61-2-59-35zM48-53c0 20 12 33 32 33 41-3 63-29 60-74-43 2-92-5-92 41" id="aF"/><path fill="#979ea8" d="M24 0v-261h32V0H24" id="aG"/><path fill="#979ea8" d="M84 4C-5 8 30-112 23-190h32v120c0 31 7 50 39 49 72-2 45-101 50-169h31l1 190h-30c-1-10 1-25-2-33-11 22-28 36-60 37" id="aH"/><path fill="#979ea8" d="M100-194c63 0 86 42 84 106H49c0 40 14 67 53 68 26 1 43-12 49-29l28 8c-11 28-37 45-77 45C44 4 14-33 15-96c1-61 26-98 85-98zm52 81c6-60-76-77-97-28-3 7-6 17-6 28h103" id="aI"/><g id="p"><use transform="matrix(0.04938271604938272,0,0,0.04938271604938272,0,0)" xlink:href="#aE"/><use transform="matrix(0.04938271604938272,0,0,0.04938271604938272,8.88888888888889,0)" xlink:href="#aF"/><use transform="matrix(0.04938271604938272,0,0,0.04938271604938272,18.765432098765434,0)" xlink:href="#aG"/><use transform="matrix(0.04938271604938272,0,0,0.04938271604938272,22.666666666666668,0)" xlink:href="#aH"/><use transform="matrix(0.04938271604938272,0,0,0.04938271604938272,32.543209876543216,0)" xlink:href="#aI"/></g><g id="q"><use transform="matrix(0.06172839506172839,0,0,0.06172839506172839,0,0)" xlink:href="#R"/><use transform="matrix(0.06172839506172839,0,0,0.06172839506172839,12.345679012345679,0)" xlink:href="#S"/><use transform="matrix(0.06172839506172839,0,0,0.06172839506172839,23.45679012345679,0)" xlink:href="#T"/></g><path fill="#333" d="M63-220v92h138v28H63V0H30v-248h175v28H63" id="aJ"/><path fill="#333" d="M127-220V0H93v-220H8v-28h204v28h-85" id="aK"/><path fill="#333" d="M115-194c55 1 70 41 70 98S169 2 115 4C84 4 66-9 55-30l1 105H24l-1-265h31l2 30c10-21 28-34 59-34zm-8 174c40 0 45-34 45-75s-6-73-45-74c-42 0-51 32-51 76 0 43 10 73 51 73" id="aL"/><g id="r"><use transform="matrix(0.06172839506172839,0,0,0.06172839506172839,0,0)" xlink:href="#aJ"/><use transform="matrix(0.06172839506172839,0,0,0.06172839506172839,13.518518518518517,0)" xlink:href="#R"/><use transform="matrix(0.06172839506172839,0,0,0.06172839506172839,25.864197530864196,0)" xlink:href="#V"/><use transform="matrix(0.06172839506172839,0,0,0.06172839506172839,38.20987654320987,0)" xlink:href="#aa"/><use transform="matrix(0.06172839506172839,0,0,0.06172839506172839,44.382716049382715,0)" xlink:href="#ab"/><use transform="matrix(0.06172839506172839,0,0,0.06172839506172839,56.72839506172839,0)" xlink:href="#ac"/><use transform="matrix(0.06172839506172839,0,0,0.06172839506172839,64.07407407407408,0)" xlink:href="#R"/><use transform="matrix(0.06172839506172839,0,0,0.06172839506172839,76.41975308641976,0)" xlink:href="#aK"/><use transform="matrix(0.06172839506172839,0,0,0.06172839506172839,88.70370370370371,0)" xlink:href="#Y"/><use transform="matrix(0.06172839506172839,0,0,0.06172839506172839,99.81481481481482,0)" xlink:href="#aL"/><use transform="matrix(0.06172839506172839,0,0,0.06172839506172839,112.16049382716051,0)" xlink:href="#R"/></g><path fill="#979ea8" d="M85-194c31 0 48 13 60 33l-1-100h32l1 261h-30c-2-10 0-23-3-31C134-8 116 4 85 4 32 4 16-35 15-94c0-66 23-100 70-100zm9 24c-40 0-46 34-46 75 0 40 6 74 45 74 42 0 51-32 51-76 0-42-9-74-50-73" id="aM"/><path fill="#979ea8" d="M24-231v-30h32v30H24zM24 0v-190h32V0H24" id="aN"/><path fill="#979ea8" d="M59-47c-2 24 18 29 38 22v24C64 9 27 4 27-40v-127H5v-23h24l9-43h21v43h35v23H59v120" id="aO"/><path fill="#979ea8" d="M100-194c62-1 85 37 85 99 1 63-27 99-86 99S16-35 15-95c0-66 28-99 85-99zM99-20c44 1 53-31 53-75 0-43-8-75-51-75s-53 32-53 75 10 74 51 75" id="aP"/><path fill="#979ea8" d="M117-194c89-4 53 116 60 194h-32v-121c0-31-8-49-39-48C34-167 62-67 57 0H25l-1-190h30c1 10-1 24 2 32 11-22 29-35 61-36" id="aQ"/><g id="s"><use transform="matrix(0.04938271604938272,0,0,0.04938271604938272,0,0)" xlink:href="#aF"/><use transform="matrix(0.04938271604938272,0,0,0.04938271604938272,9.876543209876544,0)" xlink:href="#aM"/><use transform="matrix(0.04938271604938272,0,0,0.04938271604938272,19.75308641975309,0)" xlink:href="#aM"/><use transform="matrix(0.04938271604938272,0,0,0.04938271604938272,29.629629629629633,0)" xlink:href="#aN"/><use transform="matrix(0.04938271604938272,0,0,0.04938271604938272,33.53086419753087,0)" xlink:href="#aO"/><use transform="matrix(0.04938271604938272,0,0,0.04938271604938272,38.46913580246914,0)" xlink:href="#aN"/><use transform="matrix(0.04938271604938272,0,0,0.04938271604938272,42.370370370370374,0)" xlink:href="#aP"/><use transform="matrix(0.04938271604938272,0,0,0.04938271604938272,52.24691358024692,0)" xlink:href="#aQ"/><use transform="matrix(0.04938271604938272,0,0,0.04938271604938272,62.12345679012346,0)" xlink:href="#aF"/><use transform="matrix(0.04938271604938272,0,0,0.04938271604938272,72,0)" xlink:href="#aG"/></g><path fill="#979ea8" d="M179-190L93 31C79 59 56 82 12 73V49c39 6 53-20 64-50L1-190h34L92-34l54-156h33" id="aR"/><path fill="#979ea8" d="M115-194c55 1 70 41 70 98S169 2 115 4C84 4 66-9 55-30l1 105H24l-1-265h31l2 30c10-21 28-34 59-34zm-8 174c40 0 45-34 45-75s-6-73-45-74c-42 0-51 32-51 76 0 43 10 73 51 73" id="aS"/><g id="t"><use transform="matrix(0.04938271604938272,0,0,0.04938271604938272,0,0)" xlink:href="#aO"/><use transform="matrix(0.04938271604938272,0,0,0.04938271604938272,4.938271604938272,0)" xlink:href="#aR"/><use transform="matrix(0.04938271604938272,0,0,0.04938271604938272,13.827160493827162,0)" xlink:href="#aS"/><use transform="matrix(0.04938271604938272,0,0,0.04938271604938272,23.703703703703706,0)" xlink:href="#aI"/></g><path d="M96-169c-40 0-48 33-48 73s9 75 48 75c24 0 41-14 43-38l32 2c-6 37-31 61-74 61-59 0-76-41-82-99-10-93 101-131 147-64 4 7 5 14 7 22l-32 3c-4-21-16-35-41-35" id="aT"/><g id="u"><use transform="matrix(0.05,0,0,0.05,0,0)" xlink:href="#G"/><use transform="matrix(0.05,0,0,0.05,12.950000000000001,0)" xlink:href="#H"/><use transform="matrix(0.05,0,0,0.05,22.950000000000003,0)" xlink:href="#K"/><use transform="matrix(0.05,0,0,0.05,32.95,0)" xlink:href="#aT"/><use transform="matrix(0.05,0,0,0.05,41.95,0)" xlink:href="#B"/><use transform="matrix(0.05,0,0,0.05,51.95,0)" xlink:href="#J"/><use transform="matrix(0.05,0,0,0.05,61.95,0)" xlink:href="#D"/></g><path fill="#333" d="M190 0L58-211 59 0H30v-248h39L202-35l-2-213h31V0h-41" id="aU"/><g id="v"><use transform="matrix(0.06172839506172839,0,0,0.06172839506172839,0,0)" xlink:href="#aJ"/><use transform="matrix(0.06172839506172839,0,0,0.06172839506172839,13.518518518518517,0)" xlink:href="#R"/><use transform="matrix(0.06172839506172839,0,0,0.06172839506172839,25.864197530864196,0)" xlink:href="#V"/><use transform="matrix(0.06172839506172839,0,0,0.06172839506172839,38.20987654320987,0)" xlink:href="#aa"/><use transform="matrix(0.06172839506172839,0,0,0.06172839506172839,44.382716049382715,0)" xlink:href="#ab"/><use transform="matrix(0.06172839506172839,0,0,0.06172839506172839,56.72839506172839,0)" xlink:href="#ac"/><use transform="matrix(0.06172839506172839,0,0,0.06172839506172839,64.07407407407408,0)" xlink:href="#R"/><use transform="matrix(0.06172839506172839,0,0,0.06172839506172839,76.41975308641976,0)" xlink:href="#aU"/><use transform="matrix(0.06172839506172839,0,0,0.06172839506172839,92.40740740740742,0)" xlink:href="#V"/><use transform="matrix(0.06172839506172839,0,0,0.06172839506172839,104.7530864197531,0)" xlink:href="#W"/><use transform="matrix(0.06172839506172839,0,0,0.06172839506172839,123.20987654320989,0)" xlink:href="#R"/></g><g id="w"><use transform="matrix(0.06172839506172839,0,0,0.06172839506172839,0,0)" xlink:href="#av"/><use transform="matrix(0.06172839506172839,0,0,0.06172839506172839,6.172839506172839,0)" xlink:href="#aw"/><use transform="matrix(0.06172839506172839,0,0,0.06172839506172839,17.28395061728395,0)" xlink:href="#ax"/><use transform="matrix(0.06172839506172839,0,0,0.06172839506172839,22.160493827160494,0)" xlink:href="#V"/><use transform="matrix(0.06172839506172839,0,0,0.06172839506172839,34.50617283950617,0)" xlink:href="#U"/><use transform="matrix(0.06172839506172839,0,0,0.06172839506172839,46.85185185185185,0)" xlink:href="#ay"/></g><path fill="#6f7681" d="M108 0H70L1-190h34L89-25l56-165h34" id="aV"/><path fill="#6f7681" d="M24 0v-261h32V0H24" id="aW"/><path fill="#6f7681" d="M84 4C-5 8 30-112 23-190h32v120c0 31 7 50 39 49 72-2 45-101 50-169h31l1 190h-30c-1-10 1-25-2-33-11 22-28 36-60 37" id="aX"/><g id="x"><use transform="matrix(0.04938271604938272,0,0,0.04938271604938272,0,0)" xlink:href="#aV"/><use transform="matrix(0.04938271604938272,0,0,0.04938271604938272,8.88888888888889,0)" xlink:href="#O"/><use transform="matrix(0.04938271604938272,0,0,0.04938271604938272,18.765432098765434,0)" xlink:href="#aW"/><use transform="matrix(0.04938271604938272,0,0,0.04938271604938272,22.666666666666668,0)" xlink:href="#aX"/><use transform="matrix(0.04938271604938272,0,0,0.04938271604938272,32.543209876543216,0)" xlink:href="#Q"/></g><g id="y"><use transform="matrix(0.06172839506172839,0,0,0.06172839506172839,0,0)" xlink:href="#aJ"/><use transform="matrix(0.06172839506172839,0,0,0.06172839506172839,13.518518518518517,0)" xlink:href="#R"/><use transform="matrix(0.06172839506172839,0,0,0.06172839506172839,25.864197530864196,0)" xlink:href="#V"/><use transform="matrix(0.06172839506172839,0,0,0.06172839506172839,38.20987654320987,0)" xlink:href="#aa"/><use transform="matrix(0.06172839506172839,0,0,0.06172839506172839,44.382716049382715,0)" xlink:href="#ab"/><use transform="matrix(0.06172839506172839,0,0,0.06172839506172839,56.72839506172839,0)" xlink:href="#ac"/><use transform="matrix(0.06172839506172839,0,0,0.06172839506172839,64.07407407407408,0)" xlink:href="#R"/><use transform="matrix(0.06172839506172839,0,0,0.06172839506172839,76.41975308641976,0)" xlink:href="#aK"/><use transform="matrix(0.06172839506172839,0,0,0.06172839506172839,88.70370370370371,0)" xlink:href="#Y"/><use transform="matrix(0.06172839506172839,0,0,0.06172839506172839,99.81481481481482,0)" xlink:href="#aL"/><use transform="matrix(0.06172839506172839,0,0,0.06172839506172839,112.16049382716051,0)" xlink:href="#R"/></g><g id="z"><use transform="matrix(0.06172839506172839,0,0,0.06172839506172839,0,0)" xlink:href="#aU"/><use transform="matrix(0.06172839506172839,0,0,0.06172839506172839,15.987654320987653,0)" xlink:href="#V"/><use transform="matrix(0.06172839506172839,0,0,0.06172839506172839,28.333333333333332,0)" xlink:href="#W"/><use transform="matrix(0.06172839506172839,0,0,0.06172839506172839,46.79012345679012,0)" xlink:href="#R"/></g></defs></g></svg>