<svg xmlns="http://www.w3.org/2000/svg" xmlns:xlink="http://www.w3.org/1999/xlink" xmlns:lucid="lucid" width="1700.57" height="391.32"><g transform="translate(275.42466994806455 -9.292922150361115)" lucid:page-tab-id="EFnUpzGesQAL"><path d="M-500 0h2000v500H-500z" fill="#fff"/><path d="M-255.43 35.3a6 6 0 0 1 6-6h747.96a6 6 0 0 1 6 6v339.3a6 6 0 0 1-6 6h-747.95a6 6 0 0 1-6-6z" fill="#ffeca9"/><path d="M-234.58 29.3h5.93m11.87 0h5.94m11.87 0h5.94m11.87 0h5.94m11.87 0h5.94m11.86 0h5.93m11.87 0h5.93m11.88 0h5.93m11.88 0h5.94m11.87 0h5.93m11.87 0h5.94m11.87 0h5.94m11.88 0h5.93m11.88 0h5.93m11.87 0h5.94m11.87 0h5.94m11.87 0h5.94m11.86 0h5.94m11.87 0h5.93m11.88 0h5.93m11.88 0h5.94m11.87 0h5.93m11.87 0h5.94m11.87 0h5.94m11.88 0h5.93m11.88 0h5.93m11.88 0h5.93m11.87 0h5.94m11.87 0H270m11.86 0h5.94m11.87 0h5.93m11.88 0h5.93m11.9 0h5.92m11.87 0h5.93m11.87 0h5.94m11.87 0h5.95m11.87 0h5.94m11.87 0h5.93m11.88 0h5.93m11.87 0h5.94m11.87 0h5.94m11.86 0h2.97l.94.07.9.22.88.35.8.5.72.6.6.72.5.8.37.87.2.9.1.95v2.97m0 11.9v5.96m0 11.9V74m0 11.9v5.95m0 11.9v5.96m0 11.9v5.97m0 11.9v5.95m0 11.9v5.96m0 11.9v5.96m0 11.9V199m0 11.9v5.96m0 11.9v5.96m0 11.9v5.96m0 11.9v5.96m0 11.9v5.96m0 11.9v5.95m0 11.9v5.96m0 11.92v5.95m0 11.9v5.96m0 11.9v2.98l-.1.95-.2.92-.37.87-.5.8-.6.72-.7.6-.82.5-.87.36-.9.22-.95.07h-2.97m-11.87 0h-5.95m-11.87 0h-5.94m-11.87 0h-5.93m-11.88 0h-5.93m-11.88 0h-5.93m-11.87 0h-5.94m-11.86 0h-5.94m-11.87 0h-5.94m-11.88 0h-5.94m-11.87 0h-5.92m-11.88 0h-5.93m-11.87 0h-5.94m-11.87 0h-5.95m-11.87 0h-5.94m-11.87 0h-5.94m-11.87 0h-5.93m-11.88 0h-5.93m-11.88 0H175m-11.86 0h-5.94m-11.87 0h-5.94m-11.88 0h-5.94m-11.87 0h-5.92m-11.88 0h-5.93m-11.88 0h-5.94m-11.87 0h-5.95m-11.87 0h-5.94m-11.87 0h-5.94m-11.87 0h-5.94m-11.87 0h-5.93m-11.88 0h-5.93m-11.86 0h-5.94m-11.87 0h-5.94m-11.88 0h-5.94m-11.87 0h-5.92m-11.88 0h-5.93m-11.88 0h-5.94m-11.88 0h-5.93m-11.87 0h-5.94m-11.87 0h-5.94m-11.87 0h-5.94m-11.87 0h-5.93m-11.88 0h-2.97l-.93-.06-.92-.22-.87-.36-.8-.5-.72-.6-.6-.72-.5-.8-.36-.87-.22-.92-.08-.94v-2.96m0-11.9v-5.96m0-11.9v-5.96m0-11.9v-5.96m0-11.9v-5.96m0-11.9v-5.96m0-11.9v-5.96m0-11.9v-5.96m0-11.9v-5.95m0-11.9v-5.96m0-11.9v-5.95m0-11.9v-5.96m0-11.92v-5.95m0-11.9v-5.96m0-11.9v-5.96m0-11.9v-5.95m0-11.9V85.9m0-11.9v-5.97m0-11.9v-5.96m0-11.9V35.3l.08-.95.22-.9.36-.88.5-.8.6-.72.72-.6.8-.5.87-.36.92-.23.94-.08h2.96" stroke="#5e5e5e" stroke-width="3" fill="none"/><use xlink:href="#a" transform="matrix(1,0,0,1,-250.42466994806455,34.292922150361115) translate(279.4753086419753 17.77777777777778)"/><use xlink:href="#b" transform="matrix(1,0,0,1,-250.42466994806455,34.292922150361115) translate(394.16666666666663 17.77777777777778)"/><path d="M648.34 35.3a6 6 0 0 1 6-6h744.8a6 6 0 0 1 6 6v339.3a6 6 0 0 1-6 6h-744.8a6 6 0 0 1-6-6z" fill="#b2d6ef"/><path d="M669.48 29.3h6.06m12.1 0h6.06m12.1 0h6.07m12.1 0h6.06m12.12 0h6.05m12.1 0h6.07m12.1 0h6.06m12.1 0h6.07m12.1 0h6.07m12.1 0h6.06m12.1 0h6.07m12.1 0h6.06m12.1 0h6.07m12.1 0h6.06m12.1 0h6.06m12.1 0h6.07m12.1 0h6.06m12.1 0h6.06m12.1 0h6.06m12.1 0h6.07m12.1 0h6.06m12.1 0h6.06m12.1 0h6.07m12.1 0h6.05m12.1 0h6.07m12.1 0h6.06m12.12 0h6.05m12.1 0h6.07m12.1 0h6.06m12.1 0h6.07m12.1 0h6.06m12.12 0h6.06m12.1 0h6.07m12.1 0h6.06m12.12 0h6.06m12.1 0h6.06m12.1 0h6.07m12.12 0h6.05m12.12 0h6.04m12.1 0h6.07m12.12 0h3.02l.94.07.92.22.87.35.8.5.72.6.6.72.5.8.35.87.22.9.07.95v2.97m0 11.9v5.96m0 11.9V74m0 11.9v5.95m0 11.9v5.96m0 11.9v5.97m0 11.9v5.95m0 11.9v5.96m0 11.9v5.96m0 11.9V199m0 11.9v5.96m0 11.9v5.96m0 11.9v5.96m0 11.9v5.96m0 11.9v5.96m0 11.9v5.95m0 11.9v5.96m0 11.92v5.95m0 11.9v5.96m0 11.9v2.98l-.07.95-.22.92-.36.87-.5.8-.6.72-.73.6-.8.5-.87.36-.92.22-.94.07h-3.02m-12.1 0h-6.07m-12.1 0h-6.06m-12.13 0h-6.05m-12.1 0h-6.07m-12.1 0h-6.06m-12.12 0h-6.06m-12.1 0h-6.06m-12.12 0h-6.05m-12.12 0h-6.06m-12.1 0h-6.06m-12.1 0h-6.07m-12.12 0h-6.05m-12.1 0h-6.07m-12.1 0h-6.06m-12.12 0h-6.05m-12.1 0h-6.07m-12.1 0h-6.06m-12.1 0h-6.07m-12.1 0h-6.07m-12.1 0h-6.06m-12.1 0h-6.07m-12.1 0h-6.06m-12.1 0h-6.07m-12.1 0h-6.06m-12.1 0h-6.07m-12.1 0h-6.07m-12.1 0h-6.06m-12.1 0h-6.07m-12.1 0h-6.06m-12.1 0h-6.06m-12.1 0h-6.06m-12.12 0h-6.05m-12.1 0h-6.06m-12.1 0h-6.06m-12.1 0h-6.07m-12.1 0h-6.05m-12.12 0H724m-12.1 0h-6.07m-12.1 0h-6.05m-12.1 0h-6.07m-12.1 0h-3.04l-.93-.06-.9-.22-.88-.36-.8-.5-.72-.6-.6-.72-.5-.8-.36-.87-.22-.92-.08-.94v-2.96m0-11.9v-5.96m0-11.9v-5.96m0-11.9v-5.96m0-11.9v-5.96m0-11.9v-5.96m0-11.9v-5.96m0-11.9v-5.96m0-11.9v-5.95m0-11.9v-5.96m0-11.9v-5.95m0-11.9v-5.96m0-11.92v-5.95m0-11.9v-5.96m0-11.9v-5.96m0-11.9v-5.95m0-11.9V85.9m0-11.9v-5.97m0-11.9v-5.96m0-11.9V35.3l.08-.95.22-.9.36-.88.5-.8.6-.72.72-.6.8-.5.87-.36.9-.23.94-.08h3.03" stroke="#5e5e5e" stroke-width="3" fill="none"/><use xlink:href="#c" transform="matrix(1,0,0,1,653.3443513865872,34.292922150361115) translate(328.5308641975309 17.77777777777778)"/><path d="M532.58 123.08h-324.4v-2h324.4zm412.4 0H621.44v-2H945z" stroke="#000" stroke-width=".05"/><path d="M208.22 123.08h-1.03v-2h1.02z"/><path d="M208.24 123.1h-1.07v-2.04h1.07zm-1.02-2v1.96h.97v-1.95zM946.8 122.08l-18.66 11.04-1.02-1.72 15.76-9.32-15.76-9.32 1.02-1.72z" stroke="#000" stroke-width=".05"/><use xlink:href="#d" transform="matrix(1,0,0,1,532.5760818177187,100.48019488793113) translate(0.005000000000002558 14.4)"/><use xlink:href="#e" transform="matrix(1,0,0,1,532.5760818177187,100.48019488793113) translate(17.955000000000002 14.4)"/><use xlink:href="#f" transform="matrix(1,0,0,1,532.5760818177187,100.48019488793113) translate(67.905 14.4)"/><use xlink:href="#g" transform="matrix(1,0,0,1,532.5760818177187,100.48019488793113) translate(25.930000000000007 36)"/><path d="M46.2 77.08a5 5 0 0 1 5-5h150a5 5 0 0 1 5 5v90a5 5 0 0 1-5 5h-150a5 5 0 0 1-5-5z" stroke="#000" stroke-width="2" fill="#fff"/><use xlink:href="#h" transform="matrix(1,0,0,1,58.19135381541844,84.0801948879311) translate(24.049999999999997 31.24375)"/><use xlink:href="#i" transform="matrix(1,0,0,1,58.19135381541844,84.0801948879311) translate(44.05 52.84375)"/><path d="M947.8 77.08a5 5 0 0 1 5-5h150a5 5 0 0 1 5 5v90a5 5 0 0 1-5 5h-150a5 5 0 0 1-5-5z" stroke="#000" stroke-width="2" fill="#dfe3e8"/><use xlink:href="#j" transform="matrix(1,0,0,1,959.8108098200188,84.0801948879311) translate(50.525 31.24375)"/><use xlink:href="#k" transform="matrix(1,0,0,1,959.8108098200188,84.0801948879311) translate(29.549999999999997 52.84375)"/><path d="M-46.17 257.55a5 5 0 0 1 5-5h150a5 5 0 0 1 5 5v90a5 5 0 0 1-5 5h-150a5 5 0 0 1-5-5z" stroke="#000" stroke-width="2" fill="#dfe3e8"/><use xlink:href="#l" transform="matrix(1,0,0,1,-34.17279275882015,264.5524114915196) translate(14.574999999999996 31.24375)"/><use xlink:href="#i" transform="matrix(1,0,0,1,-34.17279275882015,264.5524114915196) translate(44.05 52.84375)"/><path d="M135.07 257.55a5 5 0 0 1 5-5h150a5 5 0 0 1 5 5v90a5 5 0 0 1-5 5h-150a5 5 0 0 1-5-5z" stroke="#000" stroke-width="2" fill="#dfe3e8"/><use xlink:href="#m" transform="matrix(1,0,0,1,147.07061745519718,264.5524114915196) translate(20.074999999999996 43.275)"/><use xlink:href="#n" transform="matrix(1,0,0,1,147.07061745519718,264.5524114915196) translate(68.025 43.275)"/><path d="M316.3 257.55a5 5 0 0 1 5-5h150a5 5 0 0 1 5 5v90a5 5 0 0 1-5 5h-150a5 5 0 0 1-5-5z" stroke="#000" stroke-width="2" fill="#dfe3e8"/><use xlink:href="#o" transform="matrix(1,0,0,1,328.3140276692145,264.5524114915196) translate(11.624999999999993 31.24375)"/><use xlink:href="#p" transform="matrix(1,0,0,1,328.3140276692145,264.5524114915196) translate(22.574999999999996 52.84375)"/><use xlink:href="#i" transform="matrix(1,0,0,1,328.3140276692145,264.5524114915196) translate(65.525 52.84375)"/><path d="M-227.42 257.55a5 5 0 0 1 5-5h150a5 5 0 0 1 5 5v90a5 5 0 0 1-5 5h-150a5 5 0 0 1-5-5z" stroke="#000" stroke-width="2" fill="#dfe3e8"/><use xlink:href="#q" transform="matrix(1,0,0,1,-215.41620297283748,264.5524114915196) translate(35.025 43.275)"/><path d="M-147.42 250.55v-32.23a6 6 0 0 1 6-6h261.6a6 6 0 0 0 6-6v-14.74" stroke="#3a414a" stroke-width="2" fill="none"/><path d="M-146.42 251.55h-2v-1.02h2z" stroke="#3a414a" stroke-width=".05" fill="#3a414a"/><path d="M126.2 176.32l4.63 14.26h-9.27z" stroke="#3a414a" stroke-width="2" fill="#fff"/><path d="M33.83 250.55v-32.23a6 6 0 0 1 6-6h80.36a6 6 0 0 0 6-6v-14.74" stroke="#3a414a" stroke-width="2" fill="none"/><path d="M34.83 251.55h-2v-1.02h2z" stroke="#3a414a" stroke-width=".05" fill="#3a414a"/><path d="M126.2 176.32l4.63 14.26h-9.27z" stroke="#3a414a" stroke-width="2" fill="#fff"/><path d="M215.07 250.55v-32.23a6 6 0 0 0-6-6H132.2a6 6 0 0 1-6-6v-14.74" stroke="#3a414a" stroke-width="2" fill="none"/><path d="M216.07 251.55h-2v-1.02h2z" stroke="#3a414a" stroke-width=".05" fill="#3a414a"/><path d="M126.2 176.32l4.63 14.26h-9.27z" stroke="#3a414a" stroke-width="2" fill="#fff"/><path d="M396.3 250.55v-32.23a6 6 0 0 0-6-6H132.2a6 6 0 0 1-6-6v-14.74" stroke="#3a414a" stroke-width="2" fill="none"/><path d="M397.3 251.55h-2v-1.02h2z" stroke="#3a414a" stroke-width=".05" fill="#3a414a"/><path d="M126.2 176.32l4.63 14.26h-9.27z" stroke="#3a414a" stroke-width="2" fill="#fff"/><path d="M675.7 257.55a5 5 0 0 1 5-5h150a5 5 0 0 1 5 5v90a5 5 0 0 1-5 5h-150a5 5 0 0 1-5-5z" stroke="#000" stroke-width="2" fill="#dfe3e8"/><use xlink:href="#r" transform="matrix(1,0,0,1,687.7080153300277,264.5524114915196) translate(18.049999999999997 31.24375)"/><use xlink:href="#s" transform="matrix(1,0,0,1,687.7080153300277,264.5524114915196) translate(42.025 52.84375)"/><path d="M856.95 257.55a5 5 0 0 1 5-5h150a5 5 0 0 1 5 5v90a5 5 0 0 1-5 5h-150a5 5 0 0 1-5-5z" stroke="#000" stroke-width="2" fill="#dfe3e8"/><use xlink:href="#l" transform="matrix(1,0,0,1,868.9514255440449,264.5524114915196) translate(14.574999999999996 31.24375)"/><use xlink:href="#t" transform="matrix(1,0,0,1,868.9514255440449,264.5524114915196) translate(42.025 52.84375)"/><path d="M1038.2 257.55a5 5 0 0 1 5-5h150a5 5 0 0 1 5 5v90a5 5 0 0 1-5 5h-150a5 5 0 0 1-5-5z" stroke="#000" stroke-width="2" fill="#dfe3e8"/><use xlink:href="#u" transform="matrix(1,0,0,1,1050.1948357580623,264.5524114915196) translate(18.049999999999997 43.275)"/><use xlink:href="#t" transform="matrix(1,0,0,1,1050.1948357580623,264.5524114915196) translate(66 43.275)"/><path d="M1219.44 257.55a5 5 0 0 1 5-5h150a5 5 0 0 1 5 5v90a5 5 0 0 1-5 5h-150a5 5 0 0 1-5-5z" stroke="#000" stroke-width="2" fill="#dfe3e8"/><use xlink:href="#o" transform="matrix(1,0,0,1,1231.4382459720796,264.5524114915196) translate(11.624999999999993 31.24375)"/><use xlink:href="#p" transform="matrix(1,0,0,1,1231.4382459720796,264.5524114915196) translate(20.549999999999997 52.84375)"/><use xlink:href="#t" transform="matrix(1,0,0,1,1231.4382459720796,264.5524114915196) translate(63.5 52.84375)"/><path d="M755.7 250.55v-32.23a6 6 0 0 1 6-6h260.1a6 6 0 0 0 6-6v-14.74" stroke="#3a414a" stroke-width="2" fill="none"/><path d="M756.7 251.55h-2v-1.02h2z" stroke="#3a414a" stroke-width=".05" fill="#3a414a"/><path d="M1027.8 176.32l4.65 14.26h-9.27z" stroke="#3a414a" stroke-width="2" fill="#fff"/><path d="M936.95 250.55v-32.23a6 6 0 0 1 6-6h78.86a6 6 0 0 0 6-6v-14.74" stroke="#3a414a" stroke-width="2" fill="none"/><path d="M937.95 251.55h-2v-1.02h2z" stroke="#3a414a" stroke-width=".05" fill="#3a414a"/><path d="M1027.8 176.32l4.65 14.26h-9.27z" stroke="#3a414a" stroke-width="2" fill="#fff"/><path d="M1118.2 250.55v-32.23a6 6 0 0 0-6-6h-78.4a6 6 0 0 1-6-6v-14.74" stroke="#3a414a" stroke-width="2" fill="none"/><path d="M1119.2 251.55h-2v-1.02h2z" stroke="#3a414a" stroke-width=".05" fill="#3a414a"/><path d="M1027.8 176.32l4.65 14.26h-9.27z" stroke="#3a414a" stroke-width="2" fill="#fff"/><path d="M1299.44 250.55v-32.23a6 6 0 0 0-6-6H1033.8a6 6 0 0 1-6-6v-14.74" stroke="#3a414a" stroke-width="2" fill="none"/><path d="M1300.44 251.55h-2v-1.02h2z" stroke="#3a414a" stroke-width=".05" fill="#3a414a"/><path d="M1027.8 176.32l4.65 14.26h-9.27z" stroke="#3a414a" stroke-width="2" fill="#fff"/><defs><path fill="#333" d="M212-179c-10-28-35-45-73-45-59 0-87 40-87 99 0 60 29 101 89 101 43 0 62-24 78-52l27 14C228-24 195 4 139 4 59 4 22-46 18-125c-6-104 99-153 187-111 19 9 31 26 39 46" id="v"/><path fill="#333" d="M100-194c62-1 85 37 85 99 1 63-27 99-86 99S16-35 15-95c0-66 28-99 85-99zM99-20c44 1 53-31 53-75 0-43-8-75-51-75s-53 32-53 75 10 74 51 75" id="w"/><path fill="#333" d="M210-169c-67 3-38 105-44 169h-31v-121c0-29-5-50-35-48C34-165 62-65 56 0H25l-1-190h30c1 10-1 24 2 32 10-44 99-50 107 0 11-21 27-35 58-36 85-2 47 119 55 194h-31v-121c0-29-5-49-35-48" id="x"/><path fill="#333" d="M115-194c55 1 70 41 70 98S169 2 115 4C84 4 66-9 55-30l1 105H24l-1-265h31l2 30c10-21 28-34 59-34zm-8 174c40 0 45-34 45-75s-6-73-45-74c-42 0-51 32-51 76 0 43 10 73 51 73" id="y"/><path fill="#333" d="M84 4C-5 8 30-112 23-190h32v120c0 31 7 50 39 49 72-2 45-101 50-169h31l1 190h-30c-1-10 1-25-2-33-11 22-28 36-60 37" id="z"/><path fill="#333" d="M117-194c89-4 53 116 60 194h-32v-121c0-31-8-49-39-48C34-167 62-67 57 0H25l-1-190h30c1 10-1 24 2 32 11-22 29-35 61-36" id="A"/><path fill="#333" d="M85-194c31 0 48 13 60 33l-1-100h32l1 261h-30c-2-10 0-23-3-31C134-8 116 4 85 4 32 4 16-35 15-94c0-66 23-100 70-100zm9 24c-40 0-46 34-46 75 0 40 6 74 45 74 42 0 51-32 51-76 0-42-9-74-50-73" id="B"/><g id="a"><use transform="matrix(0.06172839506172839,0,0,0.06172839506172839,0,0)" xlink:href="#v"/><use transform="matrix(0.06172839506172839,0,0,0.06172839506172839,15.987654320987653,0)" xlink:href="#w"/><use transform="matrix(0.06172839506172839,0,0,0.06172839506172839,28.333333333333332,0)" xlink:href="#x"/><use transform="matrix(0.06172839506172839,0,0,0.06172839506172839,46.79012345679012,0)" xlink:href="#y"/><use transform="matrix(0.06172839506172839,0,0,0.06172839506172839,59.1358024691358,0)" xlink:href="#w"/><use transform="matrix(0.06172839506172839,0,0,0.06172839506172839,71.48148148148148,0)" xlink:href="#z"/><use transform="matrix(0.06172839506172839,0,0,0.06172839506172839,83.82716049382717,0)" xlink:href="#A"/><use transform="matrix(0.06172839506172839,0,0,0.06172839506172839,96.17283950617285,0)" xlink:href="#B"/></g><path fill="#333" d="M190 0L58-211 59 0H30v-248h39L202-35l-2-213h31V0h-41" id="C"/><path fill="#333" d="M141-36C126-15 110 5 73 4 37 3 15-17 15-53c-1-64 63-63 125-63 3-35-9-54-41-54-24 1-41 7-42 31l-33-3c5-37 33-52 76-52 45 0 72 20 72 64v82c-1 20 7 32 28 27v20c-31 9-61-2-59-35zM48-53c0 20 12 33 32 33 41-3 63-29 60-74-43 2-92-5-92 41" id="D"/><path fill="#333" d="M24-231v-30h32v30H24zM24 0v-190h32V0H24" id="E"/><path fill="#333" d="M177-190C167-65 218 103 67 71c-23-6-38-20-44-43l32-5c15 47 100 32 89-28v-30C133-14 115 1 83 1 29 1 15-40 15-95c0-56 16-97 71-98 29-1 48 16 59 35 1-10 0-23 2-32h30zM94-22c36 0 50-32 50-73 0-42-14-75-50-75-39 0-46 34-46 75s6 73 46 73" id="F"/><g id="b"><use transform="matrix(0.06172839506172839,0,0,0.06172839506172839,0,0)" xlink:href="#C"/><use transform="matrix(0.06172839506172839,0,0,0.06172839506172839,15.987654320987653,0)" xlink:href="#D"/><use transform="matrix(0.06172839506172839,0,0,0.06172839506172839,28.333333333333332,0)" xlink:href="#x"/><use transform="matrix(0.06172839506172839,0,0,0.06172839506172839,46.79012345679012,0)" xlink:href="#E"/><use transform="matrix(0.06172839506172839,0,0,0.06172839506172839,51.666666666666664,0)" xlink:href="#A"/><use transform="matrix(0.06172839506172839,0,0,0.06172839506172839,64.01234567901234,0)" xlink:href="#F"/></g><path fill="#333" d="M185-189c-5-48-123-54-124 2 14 75 158 14 163 119 3 78-121 87-175 55-17-10-28-26-33-46l33-7c5 56 141 63 141-1 0-78-155-14-162-118-5-82 145-84 179-34 5 7 8 16 11 25" id="G"/><path fill="#333" d="M59-47c-2 24 18 29 38 22v24C64 9 27 4 27-40v-127H5v-23h24l9-43h21v43h35v23H59v120" id="H"/><path fill="#333" d="M24 0v-261h32V0H24" id="I"/><path fill="#333" d="M179-190L93 31C79 59 56 82 12 73V49c39 6 53-20 64-50L1-190h34L92-34l54-156h33" id="J"/><g id="c"><use transform="matrix(0.06172839506172839,0,0,0.06172839506172839,0,0)" xlink:href="#G"/><use transform="matrix(0.06172839506172839,0,0,0.06172839506172839,14.814814814814813,0)" xlink:href="#y"/><use transform="matrix(0.06172839506172839,0,0,0.06172839506172839,27.160493827160494,0)" xlink:href="#D"/><use transform="matrix(0.06172839506172839,0,0,0.06172839506172839,39.50617283950617,0)" xlink:href="#H"/><use transform="matrix(0.06172839506172839,0,0,0.06172839506172839,45.67901234567901,0)" xlink:href="#E"/><use transform="matrix(0.06172839506172839,0,0,0.06172839506172839,50.55555555555556,0)" xlink:href="#D"/><use transform="matrix(0.06172839506172839,0,0,0.06172839506172839,62.901234567901234,0)" xlink:href="#I"/><use transform="matrix(0.06172839506172839,0,0,0.06172839506172839,67.77777777777777,0)" xlink:href="#E"/><use transform="matrix(0.06172839506172839,0,0,0.06172839506172839,72.65432098765432,0)" xlink:href="#H"/><use transform="matrix(0.06172839506172839,0,0,0.06172839506172839,78.82716049382715,0)" xlink:href="#J"/></g><path d="M24-231v-30h32v30H24zM24 0v-190h32V0H24" id="K"/><path d="M135-143c-3-34-86-38-87 0 15 53 115 12 119 90S17 21 10-45l28-5c4 36 97 45 98 0-10-56-113-15-118-90-4-57 82-63 122-42 12 7 21 19 24 35" id="L"/><g id="d"><use transform="matrix(0.05,0,0,0.05,0,0)" xlink:href="#K"/><use transform="matrix(0.05,0,0,0.05,3.95,0)" xlink:href="#L"/></g><path d="M117-194c89-4 53 116 60 194h-32v-121c0-31-8-49-39-48C34-167 62-67 57 0H25l-1-190h30c1 10-1 24 2 32 11-22 29-35 61-36" id="M"/><path d="M141-36C126-15 110 5 73 4 37 3 15-17 15-53c-1-64 63-63 125-63 3-35-9-54-41-54-24 1-41 7-42 31l-33-3c5-37 33-52 76-52 45 0 72 20 72 64v82c-1 20 7 32 28 27v20c-31 9-61-2-59-35zM48-53c0 20 12 33 32 33 41-3 63-29 60-74-43 2-92-5-92 41" id="N"/><path d="M210-169c-67 3-38 105-44 169h-31v-121c0-29-5-50-35-48C34-165 62-65 56 0H25l-1-190h30c1 10-1 24 2 32 10-44 99-50 107 0 11-21 27-35 58-36 85-2 47 119 55 194h-31v-121c0-29-5-49-35-48" id="O"/><path d="M100-194c63 0 86 42 84 106H49c0 40 14 67 53 68 26 1 43-12 49-29l28 8c-11 28-37 45-77 45C44 4 14-33 15-96c1-61 26-98 85-98zm52 81c6-60-76-77-97-28-3 7-6 17-6 28h103" id="P"/><g id="e"><use transform="matrix(0.05,0,0,0.05,0,0)" xlink:href="#M"/><use transform="matrix(0.05,0,0,0.05,10,0)" xlink:href="#N"/><use transform="matrix(0.05,0,0,0.05,20,0)" xlink:href="#O"/><use transform="matrix(0.05,0,0,0.05,34.95,0)" xlink:href="#P"/></g><path d="M101-234c-31-9-42 10-38 44h38v23H63V0H32v-167H5v-23h27c-7-52 17-82 69-68v24" id="Q"/><path d="M100-194c62-1 85 37 85 99 1 63-27 99-86 99S16-35 15-95c0-66 28-99 85-99zM99-20c44 1 53-31 53-75 0-43-8-75-51-75s-53 32-53 75 10 74 51 75" id="R"/><path d="M114-163C36-179 61-72 57 0H25l-1-190h30c1 12-1 29 2 39 6-27 23-49 58-41v29" id="S"/><g id="f"><use transform="matrix(0.05,0,0,0.05,0,0)" xlink:href="#Q"/><use transform="matrix(0.05,0,0,0.05,5,0)" xlink:href="#R"/><use transform="matrix(0.05,0,0,0.05,15,0)" xlink:href="#S"/></g><path d="M26 75v-336h71v23H56V52h41v23H26" id="T"/><path d="M80-196l47-18 7 23-49 13 32 44-20 13-27-46-27 45-21-12 33-44-49-13 8-23 47 19-2-53h23" id="U"/><path d="M33 0v-38h34V0H33" id="V"/><path d="M27 0v-27h64v-190l-56 39v-29l58-41h29v221h61V0H27" id="W"/><path d="M3 75V52h41v-290H3v-23h71V75H3" id="X"/><g id="g"><use transform="matrix(0.05,0,0,0.05,0,0)" xlink:href="#T"/><use transform="matrix(0.05,0,0,0.05,5,0)" xlink:href="#U"/><use transform="matrix(0.05,0,0,0.05,12,0)" xlink:href="#V"/><use transform="matrix(0.05,0,0,0.05,17,0)" xlink:href="#V"/><use transform="matrix(0.05,0,0,0.05,22,0)" xlink:href="#W"/><use transform="matrix(0.05,0,0,0.05,32,0)" xlink:href="#X"/></g><path d="M212-179c-10-28-35-45-73-45-59 0-87 40-87 99 0 60 29 101 89 101 43 0 62-24 78-52l27 14C228-24 195 4 139 4 59 4 22-46 18-125c-6-104 99-153 187-111 19 9 31 26 39 46" id="Y"/><path d="M115-194c55 1 70 41 70 98S169 2 115 4C84 4 66-9 55-30l1 105H24l-1-265h31l2 30c10-21 28-34 59-34zm-8 174c40 0 45-34 45-75s-6-73-45-74c-42 0-51 32-51 76 0 43 10 73 51 73" id="Z"/><path d="M84 4C-5 8 30-112 23-190h32v120c0 31 7 50 39 49 72-2 45-101 50-169h31l1 190h-30c-1-10 1-25-2-33-11 22-28 36-60 37" id="aa"/><path d="M85-194c31 0 48 13 60 33l-1-100h32l1 261h-30c-2-10 0-23-3-31C134-8 116 4 85 4 32 4 16-35 15-94c0-66 23-100 70-100zm9 24c-40 0-46 34-46 75 0 40 6 74 45 74 42 0 51-32 51-76 0-42-9-74-50-73" id="ab"/><g id="h"><use transform="matrix(0.05,0,0,0.05,0,0)" xlink:href="#Y"/><use transform="matrix(0.05,0,0,0.05,12.950000000000001,0)" xlink:href="#R"/><use transform="matrix(0.05,0,0,0.05,22.950000000000003,0)" xlink:href="#O"/><use transform="matrix(0.05,0,0,0.05,37.900000000000006,0)" xlink:href="#Z"/><use transform="matrix(0.05,0,0,0.05,47.900000000000006,0)" xlink:href="#R"/><use transform="matrix(0.05,0,0,0.05,57.900000000000006,0)" xlink:href="#aa"/><use transform="matrix(0.05,0,0,0.05,67.9,0)" xlink:href="#M"/><use transform="matrix(0.05,0,0,0.05,77.9,0)" xlink:href="#ab"/></g><path d="M190 0L58-211 59 0H30v-248h39L202-35l-2-213h31V0h-41" id="ac"/><g id="i"><use transform="matrix(0.05,0,0,0.05,0,0)" xlink:href="#ac"/><use transform="matrix(0.05,0,0,0.05,12.950000000000001,0)" xlink:href="#N"/><use transform="matrix(0.05,0,0,0.05,22.950000000000003,0)" xlink:href="#O"/><use transform="matrix(0.05,0,0,0.05,37.900000000000006,0)" xlink:href="#P"/></g><path d="M33-154v-36h34v36H33zM33 0v-36h34V0H33" id="ad"/><g id="j"><use transform="matrix(0.05,0,0,0.05,0,0)" xlink:href="#S"/><use transform="matrix(0.05,0,0,0.05,5.95,0)" xlink:href="#ab"/><use transform="matrix(0.05,0,0,0.05,15.949999999999998,0)" xlink:href="#Q"/><use transform="matrix(0.05,0,0,0.05,20.95,0)" xlink:href="#L"/><use transform="matrix(0.05,0,0,0.05,29.950000000000003,0)" xlink:href="#ad"/></g><path d="M233-177c-1 41-23 64-60 70L243 0h-38l-65-103H63V0H30v-248c88 3 205-21 203 71zM63-129c60-2 137 13 137-47 0-61-80-42-137-45v92" id="ae"/><path d="M96-169c-40 0-48 33-48 73s9 75 48 75c24 0 41-14 43-38l32 2c-6 37-31 61-74 61-59 0-76-41-82-99-10-93 101-131 147-64 4 7 5 14 7 22l-32 3c-4-21-16-35-41-35" id="af"/><g id="k"><use transform="matrix(0.05,0,0,0.05,0,0)" xlink:href="#ae"/><use transform="matrix(0.05,0,0,0.05,12.950000000000001,0)" xlink:href="#P"/><use transform="matrix(0.05,0,0,0.05,22.950000000000003,0)" xlink:href="#L"/><use transform="matrix(0.05,0,0,0.05,31.950000000000003,0)" xlink:href="#R"/><use transform="matrix(0.05,0,0,0.05,41.95,0)" xlink:href="#aa"/><use transform="matrix(0.05,0,0,0.05,51.95,0)" xlink:href="#S"/><use transform="matrix(0.05,0,0,0.05,57.900000000000006,0)" xlink:href="#af"/><use transform="matrix(0.05,0,0,0.05,66.9,0)" xlink:href="#P"/></g><path d="M143 4C61 4 22-44 18-125c-5-107 100-154 193-111 17 8 29 25 37 43l-32 9c-13-25-37-40-76-40-61 0-88 39-88 99 0 61 29 100 91 101 35 0 62-11 79-27v-45h-74v-28h105v86C228-13 192 4 143 4" id="ag"/><path d="M177-190C167-65 218 103 67 71c-23-6-38-20-44-43l32-5c15 47 100 32 89-28v-30C133-14 115 1 83 1 29 1 15-40 15-95c0-56 16-97 71-98 29-1 48 16 59 35 1-10 0-23 2-32h30zM94-22c36 0 50-32 50-73 0-42-14-75-50-75-39 0-46 34-46 75s6 73 46 73" id="ah"/><path d="M106-169C34-169 62-67 57 0H25v-261h32l-1 103c12-21 28-36 61-36 89 0 53 116 60 194h-32v-121c2-32-8-49-39-48" id="ai"/><path d="M24 0v-261h32V0H24" id="aj"/><g id="l"><use transform="matrix(0.05,0,0,0.05,0,0)" xlink:href="#ag"/><use transform="matrix(0.05,0,0,0.05,14,0)" xlink:href="#P"/><use transform="matrix(0.05,0,0,0.05,24,0)" xlink:href="#R"/><use transform="matrix(0.05,0,0,0.05,34,0)" xlink:href="#ah"/><use transform="matrix(0.05,0,0,0.05,44,0)" xlink:href="#S"/><use transform="matrix(0.05,0,0,0.05,49.95,0)" xlink:href="#N"/><use transform="matrix(0.05,0,0,0.05,59.95,0)" xlink:href="#Z"/><use transform="matrix(0.05,0,0,0.05,69.95,0)" xlink:href="#ai"/><use transform="matrix(0.05,0,0,0.05,79.95,0)" xlink:href="#K"/><use transform="matrix(0.05,0,0,0.05,83.9,0)" xlink:href="#af"/><use transform="matrix(0.05,0,0,0.05,92.9,0)" xlink:href="#N"/><use transform="matrix(0.05,0,0,0.05,102.9,0)" xlink:href="#aj"/></g><g id="m"><use transform="matrix(0.05,0,0,0.05,0,0)" xlink:href="#ae"/><use transform="matrix(0.05,0,0,0.05,12.950000000000001,0)" xlink:href="#R"/><use transform="matrix(0.05,0,0,0.05,22.950000000000003,0)" xlink:href="#N"/><use transform="matrix(0.05,0,0,0.05,32.95,0)" xlink:href="#ab"/></g><g id="n"><use transform="matrix(0.05,0,0,0.05,0,0)" xlink:href="#ac"/><use transform="matrix(0.05,0,0,0.05,12.950000000000001,0)" xlink:href="#N"/><use transform="matrix(0.05,0,0,0.05,22.950000000000003,0)" xlink:href="#O"/><use transform="matrix(0.05,0,0,0.05,37.900000000000006,0)" xlink:href="#P"/></g><path d="M205 0l-28-72H64L36 0H1l101-248h38L239 0h-34zm-38-99l-47-123c-12 45-31 82-46 123h93" id="ak"/><path d="M59-47c-2 24 18 29 38 22v24C64 9 27 4 27-40v-127H5v-23h24l9-43h21v43h35v23H59v120" id="al"/><path d="M108 0H70L1-190h34L89-25l56-165h34" id="am"/><g id="o"><use transform="matrix(0.05,0,0,0.05,0,0)" xlink:href="#ak"/><use transform="matrix(0.05,0,0,0.05,12,0)" xlink:href="#ab"/><use transform="matrix(0.05,0,0,0.05,22,0)" xlink:href="#O"/><use transform="matrix(0.05,0,0,0.05,36.95,0)" xlink:href="#K"/><use transform="matrix(0.05,0,0,0.05,40.900000000000006,0)" xlink:href="#M"/><use transform="matrix(0.05,0,0,0.05,50.900000000000006,0)" xlink:href="#K"/><use transform="matrix(0.05,0,0,0.05,54.85,0)" xlink:href="#L"/><use transform="matrix(0.05,0,0,0.05,63.85,0)" xlink:href="#al"/><use transform="matrix(0.05,0,0,0.05,68.85000000000001,0)" xlink:href="#S"/><use transform="matrix(0.05,0,0,0.05,74.80000000000001,0)" xlink:href="#N"/><use transform="matrix(0.05,0,0,0.05,84.80000000000001,0)" xlink:href="#al"/><use transform="matrix(0.05,0,0,0.05,89.80000000000001,0)" xlink:href="#K"/><use transform="matrix(0.05,0,0,0.05,93.75000000000001,0)" xlink:href="#am"/><use transform="matrix(0.05,0,0,0.05,102.75,0)" xlink:href="#P"/></g><g id="p"><use transform="matrix(0.05,0,0,0.05,0,0)" xlink:href="#ak"/><use transform="matrix(0.05,0,0,0.05,12,0)" xlink:href="#S"/><use transform="matrix(0.05,0,0,0.05,17.95,0)" xlink:href="#P"/><use transform="matrix(0.05,0,0,0.05,27.950000000000003,0)" xlink:href="#N"/></g><g id="q"><use transform="matrix(0.05,0,0,0.05,0,0)" xlink:href="#ak"/><use transform="matrix(0.05,0,0,0.05,12,0)" xlink:href="#ab"/><use transform="matrix(0.05,0,0,0.05,22,0)" xlink:href="#ab"/><use transform="matrix(0.05,0,0,0.05,32,0)" xlink:href="#S"/><use transform="matrix(0.05,0,0,0.05,37.95,0)" xlink:href="#P"/><use transform="matrix(0.05,0,0,0.05,47.95,0)" xlink:href="#L"/><use transform="matrix(0.05,0,0,0.05,56.95,0)" xlink:href="#L"/></g><path d="M115-194c53 0 69 39 70 98 0 66-23 100-70 100C84 3 66-7 56-30L54 0H23l1-261h32v101c10-23 28-34 59-34zm-8 174c40 0 45-34 45-75 0-40-5-75-45-74-42 0-51 32-51 76 0 43 10 73 51 73" id="an"/><g id="r"><use transform="matrix(0.05,0,0,0.05,0,0)" xlink:href="#ak"/><use transform="matrix(0.05,0,0,0.05,12,0)" xlink:href="#ab"/><use transform="matrix(0.05,0,0,0.05,22,0)" xlink:href="#ab"/><use transform="matrix(0.05,0,0,0.05,32,0)" xlink:href="#S"/><use transform="matrix(0.05,0,0,0.05,37.95,0)" xlink:href="#P"/><use transform="matrix(0.05,0,0,0.05,47.95,0)" xlink:href="#L"/><use transform="matrix(0.05,0,0,0.05,56.95,0)" xlink:href="#L"/><use transform="matrix(0.05,0,0,0.05,65.95,0)" xlink:href="#N"/><use transform="matrix(0.05,0,0,0.05,75.95,0)" xlink:href="#an"/><use transform="matrix(0.05,0,0,0.05,85.95,0)" xlink:href="#aj"/><use transform="matrix(0.05,0,0,0.05,89.9,0)" xlink:href="#P"/></g><path d="M140-251c81 0 123 46 123 126C263-46 219 4 140 4 59 4 17-45 17-125s42-126 123-126zm0 227c63 0 89-41 89-101s-29-99-89-99c-61 0-89 39-89 99S79-25 140-24" id="ao"/><path d="M24-231v-30h32v30H24zM-9 49c24 4 33-6 33-30v-209h32V24c2 40-23 58-65 49V49" id="ap"/><g id="s"><use transform="matrix(0.05,0,0,0.05,0,0)" xlink:href="#ao"/><use transform="matrix(0.05,0,0,0.05,14,0)" xlink:href="#an"/><use transform="matrix(0.05,0,0,0.05,24,0)" xlink:href="#ap"/><use transform="matrix(0.05,0,0,0.05,27.950000000000003,0)" xlink:href="#P"/><use transform="matrix(0.05,0,0,0.05,37.95,0)" xlink:href="#af"/><use transform="matrix(0.05,0,0,0.05,46.95,0)" xlink:href="#al"/></g><g id="t"><use transform="matrix(0.05,0,0,0.05,0,0)" xlink:href="#ao"/><use transform="matrix(0.05,0,0,0.05,14,0)" xlink:href="#an"/><use transform="matrix(0.05,0,0,0.05,24,0)" xlink:href="#ap"/><use transform="matrix(0.05,0,0,0.05,27.950000000000003,0)" xlink:href="#P"/><use transform="matrix(0.05,0,0,0.05,37.95,0)" xlink:href="#af"/><use transform="matrix(0.05,0,0,0.05,46.95,0)" xlink:href="#al"/></g><g id="u"><use transform="matrix(0.05,0,0,0.05,0,0)" xlink:href="#ae"/><use transform="matrix(0.05,0,0,0.05,12.950000000000001,0)" xlink:href="#R"/><use transform="matrix(0.05,0,0,0.05,22.950000000000003,0)" xlink:href="#N"/><use transform="matrix(0.05,0,0,0.05,32.95,0)" xlink:href="#ab"/></g></defs></g></svg>